<?xml version="1.0" encoding="UTF-8"?><svg id="Capa_1" xmlns="http://www.w3.org/2000/svg" viewBox="0 0 1338.42 930.33"><defs><style>.cls-1{fill:#c7c6c6;}.cls-2{stroke:#b1b1b1;stroke-width:3.12px;}.cls-2,.cls-3,.cls-4,.cls-5{stroke-miterlimit:10;}.cls-2,.cls-3,.cls-5,.cls-6{fill:none;}.cls-3{stroke-width:4.27px;}.cls-3,.cls-4{stroke:#28779c;}.cls-7{fill:#4d4d4d;font-family:ArialMT, Arial;font-size:37px;}.cls-4{fill:#a569b7;stroke-width:6.24px;}.cls-8{fill:#1e1e1c;}.cls-9{letter-spacing:-.11em;}.cls-10{fill:#dadada;}.cls-5{stroke:#c7c6c6;stroke-width:3.84px;}.cls-6{opacity:.25;}</style></defs><polygon class="cls-4" points="166.1 593.79 513.56 421.14 1042.38 482.73 897.74 737.33 166.1 593.79"/><g class="cls-6"><path class="cls-8" d="m781.62,578.15c-.62-1.33-4.28-1-5.53-1.92-1.25-.92-1.6-1.52-3.96-.85-2.36.68-1.9.14-8.78-3.03-6.87-3.17-10.53.54-19.18-2.08-8.65-2.62-10.19-3.87-12.52-5.22-2.33-1.35-.91-2.51-.91-2.51,8.5-4.05,14.77-9.27,16.87-11.04,2.1-1.77,1.74-4.53-.16-4.93-1.91-.4-28.07-.03-31.08.65-3.01.68-3.88-1.15-8.03-1.1-4.16.05-3.87-.6-5.66-.14-1.79.47-1.74,1.14-1.29,1.66.45.52,1.27.09,3.96,1.03,2.69.94,1.29,2.64,3.39,3.75,2.1,1.11,5.06-1.16,7.54-2.24,2.48-1.08,8.66-.22,12.28.57,3.62.79,9.35.58,9.35.58-2.56.84-5.64,2.97-15.58,6.59-9.94,3.62-7.5,6.72-10.04,9.06-2.54,2.34-8.18,2.98-10.22,2.03-2.04-.95-5.11-.35-5.88-.91-.77-.56-.25-1.39-.25-1.39,3.14-1.05,3.96-3.46,4.31-3.58,0,0,3.45.62,3.59-1.97.13-2.59-1.66-2.85-3.58-1.58,0,0-1.21-3.77-6.77-1.22-5.56,2.55-6.03,5.93-6.58,7.27-.55,1.35,2.43,2.2,4.93,1.62,0,0,.86,1.29-.64,2.45-1.5,1.17-10.32,4.35-10.32,4.35,0,0-11.46,4.61-18.77,7.7,0,0-2.98-2.45-4.6-3.08-1.62-.63-.82.85.12,3.19.94,2.34,2.11,1.49,2.85,2.32l1.07.19c1.17,4.47,3.06,3.56,3.06,3.56,5.93-1.98,13.91-5.34,16.98-6.59,3.07-1.25,10.8-4.02,12.69-4.57,1.89-.55,1.48,0,1.48,0,3.64,2.12,10.61.96,16.16-1,5.55-1.96,6.16-3.28,8.17-4.44,2.01-1.16,3.22-.84,3.22-.84,8.1,5.75,22.07,5.5,26.78,5.53,4.71.03,12.86,1.63,17.37,1.82,4.51.19,4.29,2.1,7.17,1.78,2.89-.32,7.02.65,7.02.65,0,0,.63-.78.01-2.11Zm-115.99,7.37s-1.14-1.23-2.02-2.19c0,0,11.94-4.23,13.06-4.75,1.11-.53,7.77-3.01,8.92-2.27,0,0-2.34.73-8.5,4.13-6.16,3.4-11.46,5.09-11.46,5.09Z"/><ellipse class="cls-8" cx="701.28" cy="553.17" rx="6.36" ry="4.46" transform="translate(-146.94 273.32) rotate(-20.01)"/></g><text class="cls-7" transform="translate(1134.67 687.09)"><tspan x="0" y="0">13 metros</tspan></text><text class="cls-7" transform="translate(326.94 827.15)"><tspan x="0" y="0">13 metros</tspan></text><line class="cls-2" x1="1151.84" y1="461.58" x2="1185.03" y2="471.35"/><line class="cls-2" x1="977.68" y1="828.3" x2="1009.69" y2="840.36"/><line class="cls-2" x1="1168.44" y1="465.54" x2="993.68" y2="834.33"/><line class="cls-2" x1="958.52" y1="834.33" x2="945.28" y2="866.29"/><line class="cls-2" x1="16.8" y1="626.33" x2="1.4" y2="656.87"/><line class="cls-2" x1="952.82" y1="850.41" x2="8.59" y2="642.61"/><text class="cls-7" transform="translate(696.8 132)"><tspan class="cls-9" x="0" y="0">T</tspan><tspan x="18.5" y="0">apiz</tspan></text><text class="cls-7" transform="translate(848.31 132)"><tspan x="0" y="0">Borde</tspan></text><polygon class="cls-3" points="48.44 608.02 509.45 399.7 1128.62 470.41 963.13 801.32 48.44 608.02"/><path class="cls-10" d="m704.09,478.01c-1.86.11-3.06,3.28-4.7,4.04-1.64.76-2.51.87-2.73,3.06-.22,2.18-.65,1.64-7.43,6.42-6.77,4.79-3.93,8.98-10.81,15.42-6.88,6.45-9.05,7.35-11.67,8.89-2.62,1.54-3.39,0-3.39,0-1.15-8.35-4.64-15.19-5.84-17.49-1.2-2.29-4.64-2.84-5.95-1.37-1.31,1.48-12.24,23.49-12.73,26.22-.49,2.73-3.06,2.89-4.81,6.39-1.75,3.5-2.4,3.06-2.62,4.7-.22,1.64.6,1.8,1.42,1.58.82-.22.66-1.04,2.95-3,2.29-1.97,3.71-.27,5.95-1.69,2.24-1.42.82-4.59.6-6.99-.22-2.4,3.5-7.32,6.01-10.1,2.51-2.79,4.75-7.65,4.75-7.65-.11,2.4,1.09,5.63,1.09,15.05s4.75,8.33,6.45,11.17c1.69,2.84,0,7.76-2.02,9.18-2.02,1.42-2.64,4.17-3.64,4.64-1,.47-1.77-.22-1.77-.22.11-2.95-2.4-4.37-2.4-4.7,0,0,2.24-2.7-.79-3.61-3.03-.9-4.13.52-3.44,2.51,0,0-5.03-.14-4.4,5.3.63,5.43,4.45,6.86,5.82,7.73,1.37.87,3.69-1.37,4.07-3.63,0,0,1.91-.33,2.65,1.28.74,1.61.71,9.97.71,9.97,0,0,.52,11,1.03,18.06,0,0-4.22,1.75-5.68,2.91-1.46,1.17.65.95,3.86.87,3.2-.07,2.69-1.31,4-1.68l.69-.84c5.84.38,5.57-1.47,5.57-1.47.22-5.57-.33-13.27-.49-16.22s-.11-10.27.05-12.02c.16-1.75.65-1.24.65-1.24,4.12-2.4,5.75-8.59,5.83-13.84s-1.24-6.15-1.75-8.19c-.51-2.04.4-2.95.4-2.95,10.38-5.03,16.15-16.8,18.23-20.73,2.07-3.93,7.54-10.27,9.72-13.98,2.19-3.71,4.37-2.95,5.24-5.46s3.82-5.68,3.82-5.68c0,0-.65-.76-2.51-.66Zm-41.61,99.35s-1.97.58-3.5,1.02c0,0,.15-11.29,0-12.38-.15-1.09-.22-7.43,1.16-8.16,0,0-.14,2.18,1.24,8.38,1.39,6.19,1.09,11.14,1.09,11.14Z"/><circle class="cls-10" cx="639.38" cy="537.65" r="5.66"/><text class="cls-7" transform="translate(1004.49 76.98)"><tspan x="0" y="0">Área de</tspan><tspan x="0" y="44.4">seguridad</tspan></text><line class="cls-5" x1="760.48" y1="537.65" x2="760.48" y2="164.32"/><circle class="cls-1" cx="760.48" cy="538.44" r="7.8"/><line class="cls-5" x1="1086.41" y1="480.24" x2="1088.73" y2="164.32"/><circle class="cls-1" cx="1086.41" cy="481.03" r="7.8"/><line class="cls-5" x1="912" y1="465.74" x2="912" y2="164.32"/><circle class="cls-1" cx="912" cy="466.53" r="7.8"/></svg>