<?xml version="1.0" encoding="UTF-8"?><svg id="Capa_1" xmlns="http://www.w3.org/2000/svg" xmlns:xlink="http://www.w3.org/1999/xlink" viewBox="0 0 339.74 415.55"><defs><style>.cls-1{fill:#28779c;}.cls-2{fill:#fff;}.cls-3{fill:url(#Degradado_sin_nombre_48);}.cls-4{fill:#c6c6c6;}</style><linearGradient id="Degradado_sin_nombre_48" x1="169.87" y1="415.55" x2="169.87" y2="343.19" gradientUnits="userSpaceOnUse"><stop offset="0" stop-color="#fff"/><stop offset=".35" stop-color="#fbfbfb"/><stop offset=".63" stop-color="#f2f2f2"/><stop offset=".87" stop-color="#e1e1e1"/><stop offset="1" stop-color="#d6d6d6"/></linearGradient></defs><path class="cls-4" d="m176.53,222.69s-1.71-3.61-3.61-5.43c-1.9-1.82-3.42.68-9.31,0-5.89-.68-5.13-10.35-5.13-10.35,4.18-29.27,24.33-18.25,24.33-18.25,0,0,3.6-7,9.31-2.03,6.99,6.07-.86,11.06-.86,11.06.86,7.41-4.85,10.12-6.99,13.4-2.14,3.28,2,5.99,2.42,6.17,0,0,4.09-.46,11.5,1.82,7.41,2.28,20.72,3.23,22.43-7.6,1.71-10.83,2.09-21.67,18.63-28.51,0,0,2.47,0,1.9-11.78-.57-11.78,6.08-26.04,5.51-39.15-.57-13.11-8.74-15.78-4.37-49.99,0,0,1.71-7.03,0-12.73-1.71-5.7-3.99-2.09.57-13.3,4.56-11.21-1.45-13.3,3.84-17.49,0,0,5.29-1.14,4.91,16.73-.38,17.87-1.86,9.88.02,28.89,1.88,19.01,5.3,28.7,7.2,37.06,1.9,8.36,8.36,52.65-1.33,77.93,0,0-6.27,11.02-8.55,26.04-2.28,15.02-3.61,14.07-3.23,43.34.38,29.27-6.84,15.21-12.35,43.72,0,0-1.33,1.71,0,9.88,1.33,8.17-4.18,7.03-5.32,11.78-1.14,4.75-.19,9.31-5.7,9.31h-12.54s-2.28-2.85,5.32-5.32c7.6-2.47,5.89-8.55,9.5-21.67,3.61-13.11,5.7-31.17,5.51-42.2-.19-11.02-4.94-26.42-1.9-34.78,0,0-5.13,6.84-13.3,8.17-8.17,1.33-19.01-1.9-20.72-.57,0,0-2.09-.19-1.33,11.97.76,12.16-.19,11.78-2.47,12.35,0,0,1.33,9.88-.38,11.97-1.71,2.09-23.63.19-31.58-1.52-7.95-1.71-16.5,2.47-22.97-.95-6.46-3.42-1.71-3.23,4.75-3.8,6.46-.57,4.37-1.52,1.71-3.42-2.66-1.9.19-3.61,8.17,1.33,7.98,4.94,18.25-1.71,26.23-1.14l-.19-3.99s-9.88-2.66-19.39-7.41c-9.5-4.75-13.3,2.47-17.49-10.45,0,0,2.66-1.71,6.84,1.52,4.18,3.23,4.56,1.9,2.66-.57-1.9-2.47-2.28-3.99-1.71-3.99s5.32.76,7.79,6.46c2.47,5.7,20.91,4.75,22.43,5.13,0,0-6.46-23.95-1.14-32.69,0,0,1.97-2.09.38-4.94Z"/><polygon class="cls-1" points="149.66 238.37 147.63 239.42 128.52 194.31 130.52 193.2 149.66 238.37"/><path class="cls-1" d="m131,182.4c.1.12-1.22,1.7-1.18,1.85.06.18,1.76.03,1.78.21.96,8.29.45,9.05-2.57,10.14-3.03,1.09-4.82-.59-8.19-6-.07-.12,1.76-1.67,1.71-1.8-.07-.17-2.65.11-2.67-.34-.53-8.7-.59-8.21,2.64-9.37,3.22-1.16,2.89-1.5,8.48,5.31Z"/><path class="cls-1" d="m149.1,239.88h0c-.8.42-1.79.06-2.14-.78l-1.72-4.1c-.19-.46-.01-.99.43-1.23l1.44-.53c.4-.22.9-.05,1.07.37l1.73,4.06c.35.83,0,1.8-.8,2.21Z"/><polygon class="cls-1" points="137.31 264.14 136.36 266.21 93.53 242.44 94.42 240.33 137.31 264.14"/><path class="cls-1" d="m88.15,231.52c.15.03.08,2.1.21,2.18.16.1,1.41-1.06,1.54-.93,5.86,5.94,5.93,6.86,4.22,9.57-1.72,2.72-4.16,2.5-10.15.31-.13-.05.36-2.4.24-2.47-.16-.09-2.01,1.72-2.31,1.38-5.78-6.52-5.52-6.11-3.69-9.01,1.83-2.9,1.35-2.96,9.95-1.04Z"/><path class="cls-1" d="m137.8,265.66h0c-.38.82-1.38,1.15-2.17.71l-3.88-2.17c-.44-.24-.62-.77-.42-1.23l.81-1.3c.18-.42.68-.59,1.07-.37l3.86,2.13c.79.44,1.11,1.41.73,2.24Z"/><rect class="cls-3" x="0" y="343.19" width="339.74" height="72.36"/><rect class="cls-2" width=".01" height=".01"/><rect class="cls-2" x="339.73" y="415.54" width="0" height=".01"/></svg>