<?xml version="1.0" encoding="UTF-8"?><svg id="Capa_1" xmlns="http://www.w3.org/2000/svg" xmlns:xlink="http://www.w3.org/1999/xlink" viewBox="0 0 339.74 415.55"><defs><style>.cls-1{fill:#28779c;}.cls-2{fill:#fff;}.cls-3{fill:none;stroke:#1d1d1b;stroke-linecap:round;stroke-linejoin:round;stroke-width:1.86px;}.cls-4{fill:url(#Degradado_sin_nombre_48);}.cls-5{fill:#c6c6c6;}</style><linearGradient id="Degradado_sin_nombre_48" x1="169.87" y1="415.55" x2="169.87" y2="343.19" gradientUnits="userSpaceOnUse"><stop offset="0" stop-color="#fff"/><stop offset=".35" stop-color="#fbfbfb"/><stop offset=".63" stop-color="#f2f2f2"/><stop offset=".87" stop-color="#e1e1e1"/><stop offset="1" stop-color="#d6d6d6"/></linearGradient></defs><line class="cls-3" x1="135.24" y1="69.83" x2="144.56" y2="78.58"/><path class="cls-5" d="m182.46,209.83s12.16-16.13,14.01-34.9c0,0,9.52-.26,19.3-5.29,9.78-5.02,11.77.79,46.2-8.46,0,0,12.93-1.5,16.37-12.43,0,0-2.2-2.47-5.38.71-3.17,3.17-3.79,4.85-4.94,4.05s1.59-1.76.88-4.49-5.6,1.23-6.94,6.21c-.96,3.54-11.43,2.12-24.46,1.45-13.02-.66-13.68,2.31-14.01,2.38-9.64,1.93-23.73-1.45-29.35-.13-5.62,1.32-6.68-.46-6.68-.46-1.32-2.25.33-8.53.33-8.53,17.71-4.63,10.24-14.67,10.24-14.67-12.03-24.32-27.1-8.86-27.1-8.86-1.45-1.59-7.01-2.12-7.01,3.55s5.29,4.64,5.29,4.64c-1.59,10.31,6.53,12.5,8.66,13.22,0,0,1.63,10.33-.33,6.87-7.18-12.65-21.37-30.36-25.6-42.35-4.23-11.99-13.75-32.08-15.51-34.9-1.76-2.82,1.76-5.64.71-10.58-1.06-4.94-12.34-15.86-12.34-6.7s1.76,13.04,5.29,18.68c3.53,5.64,8.46,27.85,12.34,38.07,3.88,10.22,11.99,13.4,13.4,22.91,1.41,9.52,3.88,18.68,8.11,31.37,4.23,12.69,0,25.73,0,25.73-3.97-.44-11.9,4.14-15.86,7.73-3.97,3.58-23.27,9.9-42.65,2.5-19.38-7.4-31.64,3.97-38.52,4.49-6.87.53-4.49-3.17-4.49-3.17-4.23-8.2-13.48,1.32-19.3,1.32s-1.85-5.29-8.99-2.12c-7.14,3.17,0,6.87,0,6.87,0,0,20.62,5.02,31.73,3.44,11.1-1.59,37.01,2.12,37.01,2.12,0,0,16.13,11.1,56.58,6.87,0,0,7.4,7.14,13.75,7.4,6.35.26,21.42-7.14,42.57-7.93,21.15-.79,24.85-4.49,47.32-15.86,7.14-3.17,8.99,2.91,13.48-1.32,4.49-4.23,3.17-8.46,12.95-14.54,4.23-2.38,5.55-6.08,0-5.55-5.55.53-12.16,5.82-25.12,10.58-12.95,4.76-23.79,11.37-40.19,11.37s-35.43-2.38-41.77-1.32Z"/><line class="cls-3" x1="96.14" y1="33.55" x2="126.19" y2="61.17"/><path class="cls-1" d="m58.75,227.73c115,114.07,226.64,14.83,234.77-48.07,9.19-71.11-19.73-136.78-79.62-164-59.88-27.22-109.55,14.93-109.55,14.93h-6.43l2.68-7.27S143.47-14.89,204.71,6.51c61.24,21.4,106.16,78.7,95.95,167.95-10.21,89.25-135.76,169.89-245.49,60.67l-4.34-11.36,7.91,3.96Z"/><rect class="cls-4" x="0" y="343.19" width="339.74" height="72.36"/><rect class="cls-2" width=".01" height=".01"/><rect class="cls-2" x="339.73" y="415.54" width=".01" height=".01"/></svg>