<?xml version="1.0" encoding="UTF-8"?><svg id="Capa_1" xmlns="http://www.w3.org/2000/svg" xmlns:xlink="http://www.w3.org/1999/xlink" viewBox="0 0 339.74 415.55"><defs><style>.cls-1{fill:#28779c;}.cls-2{fill:#fff;}.cls-3{fill:url(#Degradado_sin_nombre_48);}.cls-4{fill:#c6c6c6;}</style><linearGradient id="Degradado_sin_nombre_48" x1="169.87" y1="415.55" x2="169.87" y2="343.19" gradientUnits="userSpaceOnUse"><stop offset="0" stop-color="#fff"/><stop offset=".35" stop-color="#fbfbfb"/><stop offset=".63" stop-color="#f2f2f2"/><stop offset=".87" stop-color="#e1e1e1"/><stop offset="1" stop-color="#d6d6d6"/></linearGradient></defs><rect class="cls-3" x="0" y="343.19" width="339.74" height="72.36"/><path class="cls-1" d="m118.35,288.67c-15.39-12.36-23.7-31.03-23.38-49.99.24-14.17,4.49-28.73,14.41-40.53l.51,4.21c-.46.62.61,1.2.18,1.83-6.98,10.17-10.66,22.05-10.66,34.48,0,16.99,7.09,33.2,19.5,44.74.42.39-.04.75.39,1.13l-.95,4.12Z"/><path class="cls-1" d="m160.49,304.2c-10.09,0-19.77-2.23-28.77-6.64l1.95-3.99c8.38,4.1,17.4,6.19,26.82,6.19,14.66,0,28.83-5.27,39.91-14.84l2.9,3.36c-11.88,10.27-27.09,15.92-42.81,15.92Z"/><path class="cls-1" d="m213.62,277.62l-2.48-4.22c4.93-7.05,7.7-14.63,9.33-23.06l4.69-.32c-1.62,10.2-6.48,20.16-11.53,27.59Z"/><path class="cls-1" d="m219.71,221.33c-5.25-14.95-17.83-30.04-31.28-36.97l2.03-3.95c12.36,6.37,22.29,16.42,28.5,28.69,1.03,2.04.29,4.49,1.11,6.65l-.36,5.58Z"/><path class="cls-1" d="m123.11,190.22l-.93-3.53c.78-.59.22-1.33,1.03-1.89,9.75-6.76,21.09-10.72,32.98-11.5l.29,4.43c-11.99.78-23.8,5.19-33.37,12.48Z"/><path class="cls-4" d="m157.57,213.99s1.26-1.75-.39-19.83c-1.65-18.08-.78-31.21,1.36-35.39,2.14-4.18-.78-5.25-6.22-2.92-5.44,2.33-23.63,6.51-23.63,6.51.97,6.71-7,22.17-6.32,27.71.68,5.54-2.63,8.85-3.11,7.78-.49-1.07,1.07-4.47,1.07-4.47,0,0-3.21,4.96-4.96,8.36-1.75,3.4-5.44,2.24-5.44,2.24-1.46-4.57.29-11.18,4.86-13.9,4.57-2.72,3.11-9.04,3.11-9.04.78-17.21,2.33-25.04,2.33-25.04,5.61-6.2,20.13-7.15,28.07-12.18,7.95-5.03,17.28-4.38,21.22-2.77,3.94,1.6,13.78,2.55,13.78,2.55.73-.73,2.92-7.66-.95-10.06-9.99-6.13-2.7-14.66-2.7-14.66,0,0,8.68-14.37,25.52-8.9,16.84,5.47,9.04,22.82,9.04,22.82,3.79,5.4-.66,8.75-.66,8.75-5.83,4.52-8.46-1.76-8.46-1.76-3.69.87-4.76-.67-7.1.59-2.33,1.26-2.09,7.4-1.75,7.49,4.42,1.07,12.06,10.31,13.95,17.89s15.46,18.08,17.36,30.04c1.9,11.96-1.75,35-1.75,35,0,0,.73,6.05.51,12.98s-5.03,8.6-5.61,4.96c-.58-3.65-.36-8.39-.36-8.39-.66,3.14-1.97,1.24-1.97,1.24-.22-5.91,3.06-9.84,3.06-9.84,0,0,1.36-1.53-.78-9.12-2.14-7.58-2.53-27.42-2.53-27.42-7.58-6.81-16.53-23.53-20.81-23.53s-6.42,10.11-10.7,13.03c-4.28,2.92-3.69,8.75-3.69,8.75,0,0,20.86,12.4,17.06,28.88-3.79,16.48-4.52,11.08-.73,19.69,3.79,8.6,10.79,26.54,13.13,33.98,2.33,7.44,7.88,2.48,13.56,26.83,5.69,24.36,4.52,23.77,7.29,30.48,2.77,6.71.73,9.92-1.46,9.92h-26.69s-1.17-2.77,4.81-4.38c5.98-1.6,11.96-3.5,13.13-5.69,1.17-2.19,2.77-2.77-4.67-15.75-7.44-12.98-15.46-30.04-15.46-30.04,0,0-27.26-30.34-30.91-43.75,0,0-18.97,6.13-36.61,10.94,0,0-3.5.88-2.19,5.54,1.31,4.67,3.35,21.44-.88,35.88-4.23,14.44-4.96,11.81-3.06,16.33,1.9,4.52,5.98,7.73,3.35,11.23-2.63,3.5-10.79,7.58-11.23,13.27-.44,5.69-3.21,7-7.15,7.15s-4.83,0-4.83,0c0,0-1.59-3.5,3.08-5.98,4.67-2.48,2.77-1.6,3.94-11.67,1.17-10.06,4.67-7.58,3.5-15.17s-.58-41.13-2.63-58.63c0,0,2.92-6.42,22.02-22.02,19.11-15.61,18.23-16.53,18.23-16.53Z"/><rect class="cls-2" width=".01" height=".01"/><rect class="cls-2" x="339.73" y="415.54" width=".01" height=".01"/></svg>