<?xml version="1.0" encoding="UTF-8"?><svg id="Capa_1" xmlns="http://www.w3.org/2000/svg" xmlns:xlink="http://www.w3.org/1999/xlink" viewBox="0 0 339.74 415.55"><defs><style>.cls-1{fill:#28779c;}.cls-2{fill:#fff;}.cls-3{fill:url(#Degradado_sin_nombre_48);}.cls-4{fill:#c6c6c6;}</style><linearGradient id="Degradado_sin_nombre_48" x1="169.87" y1="415.55" x2="169.87" y2="343.19" gradientUnits="userSpaceOnUse"><stop offset="0" stop-color="#fff"/><stop offset=".35" stop-color="#fbfbfb"/><stop offset=".63" stop-color="#f2f2f2"/><stop offset=".87" stop-color="#e1e1e1"/><stop offset="1" stop-color="#d6d6d6"/></linearGradient></defs><rect class="cls-3" x="0" y="343.19" width="339.74" height="72.36"/><path class="cls-4" d="m274.76,74.63c-4.92.29-8.11,8.69-12.46,10.72-4.35,2.03-6.66,2.32-7.24,8.11-.58,5.79-1.74,4.35-19.7,17.04-17.96,12.69-10.43,23.81-28.68,40.9-18.25,17.09-24,19.49-30.95,23.57-6.95,4.07-8.98,0-8.98,0-3.04-22.14-12.31-40.28-15.5-46.36-3.19-6.08-12.31-7.53-15.79-3.62-3.48,3.91-32.44,62.28-33.75,69.52s-8.11,7.68-12.75,16.95c-4.63,9.27-6.37,8.11-6.95,12.46s1.59,4.78,3.77,4.2c2.17-.58,1.74-2.75,7.82-7.97s9.85-.72,15.79-4.49,2.17-12.17,1.59-18.54,9.27-19.41,15.93-26.8,12.6-20.28,12.6-20.28c-.29,6.37,2.9,14.92,2.9,39.9s12.6,22.09,17.09,29.62c4.49,7.53,0,20.57-5.36,24.33-5.36,3.77-7,11.06-9.66,12.31-2.66,1.26-4.68-.58-4.68-.58.29-7.82-6.37-11.59-6.37-12.46,0,0,5.94-7.17-2.1-9.56-8.04-2.39-10.94,1.38-9.12,6.66,0,0-13.33-.36-11.66,14.05,1.67,14.41,11.8,18.18,15.43,20.49,3.62,2.32,9.78-3.62,10.79-9.63,0,0,5.07-.87,7.02,3.4,1.96,4.27,1.88,26.43,1.88,26.43,0,0,1.38,29.16,2.73,47.89,0,0-11.2,4.63-15.06,7.72-3.86,3.09,1.74,2.51,10.24,2.32s7.15-3.48,10.62-4.44l1.83-2.22c15.5,1.01,14.77-3.91,14.77-3.91.58-14.77-.87-35.2-1.3-43.02-.43-7.82-.29-27.23.14-31.86s1.74-3.28,1.74-3.28c10.91-6.37,15.26-22.79,15.45-36.69.19-13.9-3.28-16.32-4.63-21.73s1.06-7.82,1.06-7.82c27.52-13.33,42.83-44.55,48.33-54.98,5.5-10.43,19.99-27.23,25.78-37.08,5.79-9.85,11.59-7.82,13.9-14.48,2.32-6.66,10.14-15.06,10.14-15.06,0,0-1.74-2.03-6.66-1.74Zm-110.32,263.45s-5.21,1.54-9.27,2.7c0,0,.39-29.93,0-32.83s-.58-19.7,3.09-21.63c0,0-.39,5.79,3.28,22.21,3.67,16.42,2.9,29.55,2.9,29.55Z"/><circle class="cls-1" cx="103.17" cy="232.78" r="15.01"/><rect class="cls-2" width=".01" height=".01"/><rect class="cls-2" x="339.73" y="415.54" width=".01" height=".01"/></svg>