<?xml version="1.0" encoding="UTF-8"?><svg xmlns="http://www.w3.org/2000/svg" viewBox="0 0 972.85 824.58"><defs><style>.cls-1,.cls-2,.cls-3,.cls-4,.cls-5,.cls-6,.cls-7,.cls-8{fill:none;}.cls-1,.cls-2,.cls-3,.cls-4,.cls-6,.cls-9,.cls-7,.cls-8{stroke-miterlimit:10;}.cls-1,.cls-9{stroke:#dedcdd;}.cls-1,.cls-9,.cls-8{stroke-width:1.5px;}.cls-10,.cls-11,.cls-12{font-family:ArialMT, Arial;}.cls-10,.cls-13{font-size:25.67px;}.cls-10,.cls-13,.cls-14{fill:#4d4d4d;}.cls-15{letter-spacing:-.07em;}.cls-16,.cls-9{fill:#fff;}.cls-11{font-size:35.54px;}.cls-11,.cls-17,.cls-12,.cls-18,.cls-19{fill:#333;}.cls-13,.cls-14{font-family:Arial-ItalicMT, Arial;font-style:italic;}.cls-2{stroke:#1d1d1b;}.cls-2,.cls-7{stroke-width:1.88px;}.cls-20{fill:#1c1d1a;}.cls-20,.cls-21,.cls-7{mix-blend-mode:multiply;}.cls-22{letter-spacing:-.02em;}.cls-17{font-size:37.57px;}.cls-17,.cls-19{font-family:Arial-BoldMT, Arial;font-weight:700;}.cls-12{font-size:17.77px;}.cls-23,.cls-21{fill:#dedcdd;}.cls-3{stroke-width:2.35px;}.cls-3,.cls-6{stroke:#05437b;}.cls-24{letter-spacing:-.02em;}.cls-4{stroke-width:4.99px;}.cls-4,.cls-8{stroke:#fff;}.cls-25{fill:#05437b;}.cls-5{isolation:isolate;}.cls-6{stroke-width:4.7px;}.cls-7{stroke:#1c1d1a;}.cls-14{font-size:25.67px;}.cls-26{fill:#80389b;}.cls-27{fill:#7e7a7a;}.cls-28{letter-spacing:-.07em;}.cls-29{letter-spacing:-.07em;}.cls-30{letter-spacing:-.04em;}.cls-19{font-size:30.6px;}</style></defs><g class="cls-5"><g id="Capa_1"><path class="cls-18" d="m666.45,622.11v-26.15h17.92v4.42h-12.65v6.19h10.92v4.42h-10.92v11.11h-5.28Z"/><path class="cls-18" d="m699.65,616.08l4.99.84c-.64,1.83-1.66,3.23-3.04,4.18-1.39.96-3.12,1.44-5.2,1.44-3.29,0-5.73-1.08-7.31-3.23-1.25-1.72-1.87-3.9-1.87-6.53,0-3.14.82-5.6,2.46-7.37,1.64-1.78,3.72-2.67,6.22-2.67,2.82,0,5.04.93,6.67,2.79s2.41,4.71,2.34,8.55h-12.56c.04,1.49.44,2.64,1.21,3.47.77.83,1.74,1.24,2.89,1.24.79,0,1.44-.21,1.98-.64s.94-1.12,1.21-2.07Zm.29-5.06c-.04-1.45-.41-2.55-1.12-3.31-.71-.75-1.58-1.13-2.6-1.13-1.09,0-2,.4-2.71,1.19-.71.8-1.06,1.88-1.05,3.25h7.49Z"/><path class="cls-18" d="m725.51,608.77l-4.94.89c-.17-.99-.54-1.73-1.13-2.23-.59-.5-1.35-.75-2.29-.75-1.25,0-2.25.43-2.99,1.29-.74.86-1.12,2.3-1.12,4.32,0,2.25.38,3.83,1.13,4.76.75.93,1.77,1.39,3.04,1.39.95,0,1.73-.27,2.34-.81s1.03-1.47,1.28-2.79l4.92.84c-.51,2.26-1.49,3.97-2.94,5.12-1.45,1.15-3.39,1.73-5.83,1.73-2.77,0-4.98-.87-6.62-2.62-1.65-1.75-2.47-4.17-2.47-7.26s.83-5.56,2.48-7.3c1.65-1.74,3.89-2.61,6.71-2.61,2.31,0,4.14.5,5.5,1.49,1.36.99,2.34,2.51,2.93,4.54Z"/><path class="cls-18" d="m734.31,595.97v9.61c1.62-1.89,3.55-2.84,5.8-2.84,1.15,0,2.19.21,3.12.64.93.43,1.63.98,2.1,1.64.47.67.79,1.4.96,2.21.17.81.26,2.06.26,3.76v11.11h-5.01v-10.01c0-1.99-.1-3.25-.29-3.78-.19-.54-.53-.96-1.01-1.28-.48-.31-1.08-.47-1.81-.47-.83,0-1.58.2-2.23.61-.65.4-1.13,1.01-1.44,1.83-.3.81-.46,2.02-.46,3.61v9.49h-5.01v-26.15h5.01Z"/><path class="cls-18" d="m755.37,608.95l-4.55-.82c.51-1.83,1.39-3.19,2.64-4.07,1.25-.88,3.1-1.32,5.56-1.32,2.23,0,3.9.26,4.99.79s1.86,1.2,2.31,2.02c.45.81.67,2.31.67,4.49l-.05,5.85c0,1.66.08,2.89.24,3.68.16.79.46,1.64.9,2.54h-4.96c-.13-.33-.29-.83-.48-1.48-.08-.3-.14-.49-.18-.59-.86.83-1.77,1.46-2.75,1.87-.98.42-2.02.62-3.12.62-1.95,0-3.49-.53-4.61-1.59-1.12-1.06-1.69-2.4-1.69-4.01,0-1.07.26-2.02.77-2.86.51-.84,1.23-1.48,2.15-1.93.92-.45,2.25-.84,3.99-1.17,2.34-.44,3.96-.85,4.87-1.23v-.5c0-.96-.24-1.65-.71-2.06s-1.37-.62-2.69-.62c-.89,0-1.59.18-2.09.53-.5.35-.9.97-1.21,1.85Zm6.71,4.07c-.64.21-1.66.47-3.05.77-1.39.3-2.3.59-2.73.87-.65.46-.98,1.05-.98,1.77s.26,1.31.79,1.82c.52.51,1.19.77,2,.77.9,0,1.77-.3,2.59-.89.61-.45,1-1,1.2-1.66.13-.43.2-1.24.2-2.44v-1Z"/><path class="cls-18" d="m770.17,616.71l5.03-.77c.21.97.65,1.72,1.3,2.22.65.51,1.57.76,2.75.76,1.3,0,2.27-.24,2.92-.71.44-.33.66-.78.66-1.34,0-.38-.12-.7-.36-.95-.25-.24-.81-.46-1.68-.66-4.04-.89-6.6-1.71-7.69-2.44-1.5-1.02-2.25-2.44-2.25-4.26,0-1.64.65-3.02,1.94-4.14,1.3-1.12,3.31-1.68,6.03-1.68s4.52.42,5.78,1.27c1.26.84,2.13,2.09,2.6,3.75l-4.73.87c-.2-.74-.59-1.3-1.15-1.69s-1.37-.59-2.42-.59c-1.32,0-2.27.18-2.84.55-.38.26-.57.6-.57,1.02,0,.36.17.66.5.91.45.33,2.01.8,4.68,1.41,2.67.61,4.53,1.35,5.59,2.23,1.05.89,1.57,2.13,1.57,3.73,0,1.74-.73,3.23-2.18,4.48-1.45,1.25-3.6,1.87-6.44,1.87-2.58,0-4.62-.52-6.13-1.57-1.5-1.05-2.49-2.47-2.95-4.26Z"/><path class="cls-18" d="m665.23,656.53c0-3.01.31-5.43.93-7.26.62-1.83,1.54-3.25,2.76-4.24,1.22-.99,2.76-1.49,4.61-1.49,1.37,0,2.56.27,3.59.82,1.03.55,1.88,1.34,2.55,2.38.67,1.04,1.2,2.3,1.58,3.78.38,1.49.57,3.49.57,6.01,0,2.98-.31,5.39-.92,7.23-.61,1.83-1.53,3.25-2.75,4.25-1.22,1-2.76,1.5-4.62,1.5-2.45,0-4.38-.88-5.78-2.64-1.68-2.12-2.52-5.56-2.52-10.34Zm3.21,0c0,4.18.49,6.96,1.47,8.34.98,1.38,2.18,2.07,3.62,2.07s2.64-.69,3.62-2.08c.98-1.39,1.47-4.16,1.47-8.33s-.49-6.97-1.47-8.35c-.98-1.38-2.2-2.06-3.65-2.06s-2.58.61-3.44,1.82c-1.08,1.55-1.61,4.41-1.61,8.59Z"/><path class="cls-18" d="m696.76,669.08h-3.12v-19.9c-.75.72-1.74,1.43-2.96,2.15-1.22.72-2.32,1.26-3.29,1.61v-3.02c1.75-.82,3.27-1.82,4.58-2.98,1.31-1.17,2.23-2.3,2.78-3.4h2.01v25.54Z"/><path class="cls-18" d="m703.28,669.51l7.38-26.31h2.5l-7.36,26.31h-2.52Z"/><path class="cls-18" d="m726.4,669.08h-3.12v-19.9c-.75.72-1.74,1.43-2.96,2.15-1.22.72-2.32,1.26-3.29,1.61v-3.02c1.75-.82,3.27-1.82,4.58-2.98,1.31-1.17,2.23-2.3,2.78-3.4h2.01v25.54Z"/><path class="cls-18" d="m743.52,669.08h-3.12v-19.9c-.75.72-1.74,1.43-2.96,2.15-1.22.72-2.32,1.26-3.29,1.61v-3.02c1.75-.82,3.27-1.82,4.58-2.98,1.31-1.17,2.23-2.3,2.78-3.4h2.01v25.54Z"/><path class="cls-18" d="m774.29,666.81c-1.16.98-2.27,1.68-3.34,2.08s-2.22.61-3.44.61c-2.02,0-3.58-.49-4.67-1.48-1.09-.99-1.63-2.25-1.63-3.79,0-.9.21-1.73.62-2.47.41-.75.95-1.34,1.61-1.8s1.41-.79,2.25-1.02c.61-.16,1.54-.32,2.78-.47,2.52-.3,4.38-.66,5.57-1.08.01-.43.02-.7.02-.82,0-1.27-.29-2.17-.88-2.69-.8-.71-1.98-1.06-3.56-1.06-1.47,0-2.55.26-3.25.77-.7.51-1.22,1.43-1.55,2.73l-3.05-.42c.28-1.31.73-2.36,1.37-3.17.64-.8,1.56-1.42,2.76-1.86,1.2-.43,2.6-.65,4.18-.65s2.85.19,3.83.56c.98.37,1.71.84,2.17,1.4.46.56.79,1.27.97,2.13.1.53.16,1.49.16,2.88v4.16c0,2.9.07,4.74.2,5.51.13.77.4,1.51.79,2.21h-3.26c-.32-.65-.53-1.41-.62-2.27Zm-.26-6.98c-1.13.46-2.83.86-5.1,1.18-1.28.19-2.19.39-2.72.62-.53.23-.94.57-1.23,1.02-.29.45-.43.94-.43,1.48,0,.83.31,1.53.95,2.08.63.56,1.55.83,2.77.83s2.27-.26,3.21-.79c.94-.53,1.63-1.25,2.07-2.16.33-.71.5-1.75.5-3.12v-1.15Z"/><path class="cls-18" d="m781.96,669.08v-25.44h3.12v25.44h-3.12Z"/><path class="cls-18" d="m798.93,656.53c0-3.01.31-5.43.93-7.26.62-1.83,1.54-3.25,2.76-4.24,1.22-.99,2.76-1.49,4.61-1.49,1.37,0,2.56.27,3.59.82,1.03.55,1.88,1.34,2.55,2.38.67,1.04,1.2,2.3,1.58,3.78.38,1.49.57,3.49.57,6.01,0,2.98-.31,5.39-.92,7.23-.61,1.83-1.53,3.25-2.75,4.25-1.22,1-2.76,1.5-4.62,1.5-2.45,0-4.38-.88-5.78-2.64-1.68-2.12-2.52-5.56-2.52-10.34Zm3.21,0c0,4.18.49,6.96,1.47,8.34.98,1.38,2.18,2.07,3.62,2.07s2.64-.69,3.62-2.08c.98-1.39,1.47-4.16,1.47-8.33s-.49-6.97-1.47-8.35c-.98-1.38-2.2-2.06-3.65-2.06s-2.58.61-3.44,1.82c-1.08,1.55-1.61,4.41-1.61,8.59Z"/><path class="cls-18" d="m828.71,669.08v-6.09h-11.04v-2.86l11.61-16.49h2.55v16.49h3.44v2.86h-3.44v6.09h-3.12Zm0-8.95v-11.47l-7.96,11.47h7.96Z"/><path class="cls-18" d="m836.98,669.51l7.38-26.31h2.5l-7.36,26.31h-2.52Z"/><path class="cls-18" d="m860.1,669.08h-3.12v-19.9c-.75.72-1.74,1.43-2.96,2.15-1.22.72-2.32,1.26-3.29,1.61v-3.02c1.75-.82,3.27-1.82,4.58-2.98,1.31-1.17,2.23-2.3,2.78-3.4h2.01v25.54Z"/><path class="cls-18" d="m877.22,669.08h-3.12v-19.9c-.75.72-1.74,1.43-2.96,2.15-1.22.72-2.32,1.26-3.29,1.61v-3.02c1.75-.82,3.27-1.82,4.58-2.98,1.31-1.17,2.23-2.3,2.78-3.4h2.01v25.54Z"/><path class="cls-18" d="m106.6,153.88v-28.97h7.71c2.87,0,4.75.14,5.63.42,1.41.45,2.57,1.4,3.49,2.87.92,1.46,1.37,3.35,1.37,5.65,0,2.09-.4,3.85-1.19,5.27-.79,1.42-1.78,2.41-2.96,2.98-1.19.57-3.23.86-6.13.86h-3.14v10.93h-4.78Zm4.78-24.07v8.24h2.65c1.78,0,3-.13,3.63-.38.64-.25,1.17-.7,1.58-1.36.41-.65.61-1.46.61-2.41s-.21-1.78-.63-2.44c-.42-.66-.94-1.1-1.57-1.33-.62-.22-1.93-.34-3.94-.34h-2.34Z"/><path class="cls-18" d="m132.11,139.28l-4.13-.91c.5-2.12,1.33-3.65,2.48-4.58,1.15-.93,2.81-1.39,4.97-1.39,1.92,0,3.39.27,4.41.81,1.01.54,1.74,1.28,2.17,2.21s.65,2.62.65,5.07l-.04,6.49c0,1.82.07,3.18.22,4.07.14.89.42,1.84.81,2.84h-4.51l-.59-2.29c-.78.92-1.61,1.62-2.5,2.08-.89.47-1.83.7-2.84.7-1.67,0-3.04-.56-4.11-1.69-1.07-1.13-1.6-2.63-1.6-4.5,0-1.19.22-2.22.65-3.11.43-.88,1.05-1.59,1.84-2.12.79-.53,2.06-1,3.79-1.41,2.11-.49,3.58-.94,4.41-1.37,0-1.17-.08-1.93-.25-2.3-.16-.36-.47-.66-.91-.89-.44-.23-1.06-.35-1.87-.35s-1.46.18-1.93.55c-.47.37-.85,1.06-1.14,2.07Zm6.09,4.53c-.58.24-1.48.52-2.71.83-1.41.37-2.33.78-2.77,1.23-.43.45-.65,1.03-.65,1.74,0,.81.24,1.48.72,2.03.48.55,1.08.82,1.81.82.65,0,1.29-.22,1.92-.66.63-.44,1.07-.97,1.31-1.58s.37-1.71.37-3.31v-1.11Z"/><path class="cls-18" d="m151.54,153.88h-4.57v-20.99h4.23v2.98c.72-1.4,1.37-2.33,1.95-2.79s1.24-.69,1.99-.69c1.04,0,2.04.35,2.98,1.05l-1.42,4.84c-.75-.61-1.46-.91-2.13-.91-.63,0-1.19.23-1.67.7-.48.47-.83,1.32-1.04,2.54-.21,1.23-.32,3.48-.32,6.77v6.49Z"/><path class="cls-18" d="m171.3,161.86v-10.53c-.62.98-1.37,1.73-2.27,2.25s-1.83.79-2.82.79c-1.92,0-3.58-.96-4.96-2.89s-2.08-4.71-2.08-8.33c0-3.43.71-6.08,2.12-7.95,1.42-1.87,3.15-2.8,5.19-2.8,1.09,0,2.07.3,2.94.9.86.6,1.62,1.5,2.26,2.7v-3.1h4.19v28.97h-4.57Zm.17-18.74c0-2.18-.36-3.79-1.08-4.83-.72-1.04-1.62-1.56-2.7-1.56s-2.01.53-2.74,1.6c-.74,1.06-1.1,2.77-1.1,5.12s.36,3.98,1.08,4.99c.72,1.02,1.59,1.53,2.62,1.53s1.96-.57,2.75-1.7c.8-1.14,1.19-2.85,1.19-5.15Z"/><path class="cls-18" d="m191.64,153.88v-3.14c-.63,1.14-1.46,2.03-2.49,2.67-1.03.64-2.1.96-3.22.96s-2.14-.3-3.04-.89c-.89-.59-1.56-1.44-2-2.53-.44-1.09-.66-2.68-.66-4.77v-13.29h4.57v9.64c0,2.75.07,4.5.21,5.25s.44,1.32.92,1.73,1.04.61,1.71.61c.76,0,1.46-.27,2.11-.8.64-.53,1.07-1.22,1.27-2.06.2-.84.31-2.68.31-5.52v-8.85h4.57v20.99h-4.25Z"/><path class="cls-18" d="m210.63,147.22l4.53.93c-.61,2.11-1.55,3.67-2.83,4.69-1.28,1.02-2.84,1.53-4.67,1.53-2.55,0-4.51-.85-5.9-2.55-1.64-1.98-2.45-4.75-2.45-8.31s.82-6.32,2.47-8.43c1.4-1.78,3.2-2.67,5.42-2.67,2.46,0,4.39.91,5.79,2.73,1.61,2.08,2.41,5.16,2.41,9.22l-.02.63h-11.4c.03,1.67.4,2.96,1.12,3.87.72.91,1.59,1.37,2.61,1.37,1.47,0,2.44-1,2.93-3Zm.24-5.63c-.04-1.64-.39-2.87-1.05-3.7-.66-.83-1.44-1.24-2.35-1.24-.96,0-1.77.43-2.43,1.29-.67.87-1,2.09-.99,3.65h6.82Z"/><path class="cls-18" d="m228.32,124.91h8.75c2.21,0,3.88.25,5,.74,1.12.49,2.16,1.33,3.11,2.5.95,1.17,1.69,2.69,2.23,4.57.54,1.87.81,4.2.81,6.98,0,2.5-.28,4.68-.85,6.53-.57,1.85-1.28,3.32-2.15,4.4-.87,1.08-1.92,1.89-3.15,2.44-1.23.55-2.81.82-4.75.82h-9v-28.97Zm4.78,4.9v19.17h3.6c1.54,0,2.66-.14,3.35-.43.69-.29,1.26-.73,1.7-1.31.44-.59.81-1.51,1.1-2.77.29-1.26.43-2.93.43-4.99s-.15-3.84-.44-5.07c-.3-1.24-.76-2.21-1.38-2.92-.63-.71-1.39-1.18-2.28-1.4-.67-.17-1.97-.26-3.89-.26h-2.17Z"/><path class="cls-18" d="m262.27,147.22l4.53.93c-.61,2.11-1.55,3.67-2.83,4.69-1.28,1.02-2.84,1.53-4.67,1.53-2.55,0-4.51-.85-5.9-2.55-1.64-1.98-2.45-4.75-2.45-8.31s.82-6.32,2.47-8.43c1.4-1.78,3.2-2.67,5.42-2.67,2.46,0,4.39.91,5.79,2.73,1.61,2.08,2.41,5.16,2.41,9.22l-.02.63h-11.4c.03,1.67.4,2.96,1.12,3.87.72.91,1.59,1.37,2.61,1.37,1.47,0,2.44-1,2.93-3Zm.24-5.63c-.04-1.64-.39-2.87-1.05-3.7-.66-.83-1.44-1.24-2.35-1.24-.96,0-1.77.43-2.43,1.29-.67.87-1,2.09-.99,3.65h6.82Z"/><path class="cls-18" d="m270.59,132.89h4.23v3.08c.58-1.11,1.35-1.98,2.3-2.62.95-.64,1.97-.96,3.07-.96,1.97,0,3.66.94,5.08,2.81,1.42,1.87,2.13,4.53,2.13,7.98,0,3.62-.71,6.38-2.13,8.31-1.42,1.92-3.12,2.88-5.08,2.88-.91,0-1.76-.22-2.54-.66-.78-.44-1.61-1.24-2.48-2.4v10.55h-4.57v-28.97Zm4.5,10.14c0,2.38.38,4.13,1.15,5.25.77,1.12,1.7,1.68,2.79,1.68s1.91-.52,2.62-1.56c.71-1.04,1.07-2.73,1.07-5.08s-.37-3.88-1.09-4.95c-.73-1.06-1.62-1.6-2.67-1.6-1.1,0-2.02.52-2.76,1.56-.74,1.04-1.1,2.6-1.1,4.69Z"/><path class="cls-18" d="m289.93,143.09c0-2.06.41-3.93,1.23-5.62.82-1.69,1.88-2.96,3.2-3.8,1.32-.84,2.8-1.27,4.45-1.27,2.77,0,4.94,1.09,6.52,3.26,1.58,2.17,2.37,4.71,2.37,7.61,0,2.16-.41,4.12-1.24,5.86-.82,1.74-1.9,3.05-3.24,3.93-1.34.88-2.8,1.32-4.4,1.32-2.56,0-4.68-.98-6.36-2.93s-2.53-4.74-2.53-8.35Zm4.66.3c0,2.13.42,3.74,1.25,4.83.83,1.09,1.83,1.64,3.01,1.64s2.13-.55,2.95-1.65c.82-1.1,1.23-2.72,1.23-4.86s-.42-3.68-1.25-4.78c-.83-1.1-1.83-1.65-2.99-1.65s-2.14.55-2.96,1.65c-.83,1.1-1.24,2.7-1.24,4.82Z"/><path class="cls-18" d="m315.65,153.88h-4.57v-20.99h4.23v2.98c.72-1.4,1.37-2.33,1.95-2.79s1.24-.69,1.99-.69c1.04,0,2.04.35,2.98,1.05l-1.42,4.84c-.75-.61-1.46-.91-2.13-.91-.63,0-1.19.23-1.67.7-.48.47-.83,1.32-1.04,2.54-.21,1.23-.32,3.48-.32,6.77v6.49Z"/><path class="cls-18" d="m332.05,132.89v4.43h-3.1v8.47c0,1.83.05,2.9.14,3.19.18.53.56.79,1.13.79.42,0,1.03-.18,1.82-.53l.39,4.31c-1.05.55-2.25.83-3.58.83-1.16,0-2.09-.28-2.79-.83s-1.17-1.35-1.4-2.39c-.18-.76-.28-2.32-.28-4.67v-9.16h-2.09v-4.43h2.09v-4.17l4.57-3.24v7.41h3.1Z"/><path class="cls-18" d="m335.23,130.05v-5.14h4.56v5.14h-4.56Zm0,23.83v-20.99h4.56v20.99h-4.56Z"/><path class="cls-18" d="m349.22,153.88l-6.97-20.99h4.77l3.25,10.71.95,3.57.96-3.58,3.3-10.71h4.66l-6.86,20.99h-4.05Z"/><path class="cls-18" d="m361.85,143.09c0-2.06.41-3.93,1.23-5.62.82-1.69,1.88-2.96,3.2-3.8,1.32-.84,2.8-1.27,4.45-1.27,2.77,0,4.94,1.09,6.52,3.26,1.58,2.17,2.37,4.71,2.37,7.61,0,2.16-.41,4.12-1.24,5.86-.82,1.74-1.9,3.05-3.24,3.93-1.34.88-2.8,1.32-4.4,1.32-2.56,0-4.68-.98-6.36-2.93s-2.53-4.74-2.53-8.35Zm4.66.3c0,2.13.42,3.74,1.25,4.83.83,1.09,1.83,1.64,3.01,1.64s2.13-.55,2.95-1.65c.82-1.1,1.23-2.72,1.23-4.86s-.42-3.68-1.25-4.78c-.83-1.1-1.83-1.65-2.99-1.65s-2.14.55-2.96,1.65c-.83,1.1-1.24,2.7-1.24,4.82Z"/><path class="cls-18" d="m106.62,200.85v-28.97h17.63v4.9h-12.85v6.42h11.94v4.88h-11.94v7.87h13.28v4.9h-18.06Z"/><path class="cls-18" d="m127.11,194.88l4.57-.85c.4,2.2,1.62,3.3,3.68,3.3,1.09,0,1.91-.21,2.45-.63.54-.42.81-.97.81-1.64,0-.46-.12-.82-.36-1.09-.25-.26-.75-.49-1.49-.69-3.74-.99-6.11-1.94-7.13-2.84-1.26-1.12-1.9-2.66-1.9-4.62s.62-3.52,1.86-4.69c1.24-1.18,3.04-1.76,5.4-1.76s3.97.44,5.14,1.31c1.17.88,2,2.29,2.47,4.24l-4.29.97c-.38-1.69-1.46-2.53-3.24-2.53-1.12,0-1.92.16-2.39.49-.47.32-.71.74-.71,1.26,0,.46.22.84.65,1.15.43.32,1.78.8,4.05,1.44,2.54.72,4.27,1.59,5.18,2.6.9,1.02,1.35,2.37,1.35,4.05,0,2.03-.69,3.7-2.08,5.02-1.39,1.32-3.31,1.98-5.76,1.98-2.23,0-4.04-.55-5.45-1.65-1.41-1.1-2.34-2.7-2.79-4.81Z"/><path class="cls-18" d="m155.03,179.86v4.43h-3.1v8.47c0,1.83.05,2.9.14,3.19.18.53.56.79,1.13.79.42,0,1.03-.18,1.82-.53l.39,4.31c-1.05.55-2.25.83-3.58.83-1.16,0-2.09-.28-2.79-.83s-1.17-1.35-1.4-2.39c-.18-.76-.28-2.32-.28-4.67v-9.16h-2.09v-4.43h2.09v-4.17l4.57-3.24v7.41h3.1Z"/><path class="cls-18" d="m161.61,186.24l-4.13-.91c.5-2.12,1.33-3.65,2.48-4.58,1.15-.93,2.81-1.39,4.97-1.39,1.92,0,3.39.27,4.41.81,1.01.54,1.74,1.28,2.17,2.21s.65,2.62.65,5.07l-.04,6.49c0,1.82.07,3.18.22,4.07.14.89.42,1.84.81,2.84h-4.51l-.59-2.29c-.78.92-1.61,1.62-2.5,2.08-.89.47-1.83.7-2.84.7-1.67,0-3.04-.56-4.11-1.69-1.07-1.13-1.6-2.63-1.6-4.5,0-1.19.22-2.22.65-3.11.43-.88,1.05-1.59,1.84-2.12.79-.53,2.06-1,3.79-1.41,2.11-.49,3.58-.94,4.41-1.37,0-1.17-.08-1.93-.25-2.3-.16-.36-.47-.66-.91-.89-.44-.23-1.06-.35-1.87-.35s-1.46.18-1.93.55c-.47.37-.85,1.06-1.14,2.07Zm6.09,4.53c-.58.24-1.48.52-2.71.83-1.41.37-2.33.78-2.77,1.23-.43.45-.65,1.03-.65,1.74,0,.81.24,1.48.72,2.03.48.55,1.08.82,1.81.82.65,0,1.29-.22,1.92-.66.63-.44,1.07-.97,1.31-1.58s.37-1.71.37-3.31v-1.11Z"/><path class="cls-18" d="m192.44,200.85h-4.23v-3.08c-.7,1.19-1.52,2.08-2.47,2.68-.95.6-1.92.9-2.92.9-1.92,0-3.6-.96-5.03-2.88-1.43-1.92-2.14-4.66-2.14-8.23s.7-6.3,2.09-8.13,3.11-2.74,5.15-2.74c.96,0,1.86.24,2.69.73.83.49,1.6,1.22,2.3,2.19v-10.42h4.57v28.97Zm-12.13-10.95c0,1.9.16,3.32.48,4.25.32.93.78,1.63,1.38,2.1.6.47,1.27.7,2.02.7,1,0,1.87-.54,2.6-1.62.74-1.08,1.1-2.72,1.1-4.9,0-2.42-.36-4.16-1.08-5.22-.72-1.06-1.63-1.6-2.73-1.6s-1.94.52-2.68,1.57c-.74,1.04-1.1,2.62-1.1,4.72Z"/><path class="cls-18" d="m196.95,177.01v-5.14h4.56v5.14h-4.56Zm0,23.83v-20.99h4.56v20.99h-4.56Z"/><path class="cls-18" d="m205.11,190.06c0-2.06.41-3.93,1.23-5.62.82-1.69,1.88-2.96,3.2-3.8,1.32-.84,2.8-1.27,4.45-1.27,2.77,0,4.94,1.09,6.52,3.26,1.58,2.17,2.37,4.71,2.37,7.61,0,2.16-.41,4.12-1.24,5.86-.82,1.74-1.9,3.05-3.24,3.93-1.34.88-2.8,1.32-4.4,1.32-2.56,0-4.68-.98-6.36-2.93s-2.53-4.74-2.53-8.35Zm4.66.3c0,2.13.42,3.74,1.25,4.83.83,1.09,1.83,1.64,3.01,1.64s2.13-.55,2.95-1.65c.82-1.1,1.23-2.72,1.23-4.86s-.42-3.68-1.25-4.78c-.83-1.1-1.83-1.65-2.99-1.65s-2.14.55-2.96,1.65c-.83,1.1-1.24,2.7-1.24,4.82Z"/><path class="cls-18" d="m235.77,200.85v-28.97h4.66l9.72,19.35v-19.35h4.47v28.97h-4.82l-9.57-18.89v18.89h-4.47Z"/><path class="cls-18" d="m263.04,186.24l-4.13-.91c.5-2.12,1.33-3.65,2.48-4.58,1.15-.93,2.81-1.39,4.97-1.39,1.92,0,3.39.27,4.41.81,1.01.54,1.74,1.28,2.17,2.21s.65,2.62.65,5.07l-.04,6.49c0,1.82.07,3.18.22,4.07.14.89.42,1.84.81,2.84h-4.51l-.59-2.29c-.78.92-1.61,1.62-2.5,2.08-.89.47-1.83.7-2.84.7-1.67,0-3.04-.56-4.11-1.69-1.07-1.13-1.6-2.63-1.6-4.5,0-1.19.22-2.22.65-3.11.43-.88,1.05-1.59,1.84-2.12.79-.53,2.06-1,3.79-1.41,2.11-.49,3.58-.94,4.41-1.37,0-1.17-.08-1.93-.25-2.3-.16-.36-.47-.66-.91-.89-.44-.23-1.06-.35-1.87-.35s-1.46.18-1.93.55c-.47.37-.85,1.06-1.14,2.07Zm6.09,4.53c-.58.24-1.48.52-2.71.83-1.41.37-2.33.78-2.77,1.23-.43.45-.65,1.03-.65,1.74,0,.81.24,1.48.72,2.03.48.55,1.08.82,1.81.82.65,0,1.29-.22,1.92-.66.63-.44,1.07-.97,1.31-1.58s.37-1.71.37-3.31v-1.11Z"/><path class="cls-18" d="m293.12,186.05l-4.49.99c-.33-2.2-1.37-3.3-3.12-3.3-1.13,0-2.03.48-2.72,1.43-.69.95-1.03,2.56-1.03,4.82,0,2.5.34,4.26,1.03,5.29.69,1.03,1.61,1.55,2.75,1.55.86,0,1.57-.29,2.12-.88.55-.59.95-1.62,1.19-3.11l4.49.93c-.92,5.06-3.58,7.59-7.96,7.59-2.81,0-4.89-1.07-6.25-3.21-1.36-2.14-2.04-4.71-2.04-7.72,0-3.6.77-6.35,2.3-8.23,1.54-1.88,3.55-2.82,6.04-2.82,2.02,0,3.66.53,4.94,1.6,1.27,1.07,2.19,2.76,2.74,5.08Z"/><path class="cls-18" d="m296.55,177.01v-5.14h4.56v5.14h-4.56Zm0,23.83v-20.99h4.56v20.99h-4.56Z"/><path class="cls-18" d="m304.72,190.06c0-2.06.41-3.93,1.23-5.62.82-1.69,1.88-2.96,3.2-3.8,1.32-.84,2.8-1.27,4.45-1.27,2.77,0,4.94,1.09,6.52,3.26,1.58,2.17,2.37,4.71,2.37,7.61,0,2.16-.41,4.12-1.24,5.86-.82,1.74-1.9,3.05-3.24,3.93-1.34.88-2.8,1.32-4.4,1.32-2.56,0-4.68-.98-6.36-2.93s-2.53-4.74-2.53-8.35Zm4.66.3c0,2.13.42,3.74,1.25,4.83.83,1.09,1.83,1.64,3.01,1.64s2.13-.55,2.95-1.65c.82-1.1,1.23-2.72,1.23-4.86s-.42-3.68-1.25-4.78c-.83-1.1-1.83-1.65-2.99-1.65s-2.14.55-2.96,1.65c-.83,1.1-1.24,2.7-1.24,4.82Z"/><path class="cls-18" d="m341.71,200.85h-4.56v-10.72c0-2.15-.09-3.58-.26-4.29-.17-.71-.49-1.26-.96-1.64-.47-.38-1-.57-1.59-.57-.76,0-1.46.25-2.08.74s-1.05,1.18-1.3,2.05c-.25.87-.38,2.51-.38,4.93v9.52h-4.57v-20.99h4.23v3.06c.75-1.19,1.6-2.07,2.54-2.67.94-.59,1.99-.89,3.13-.89,1.33,0,2.45.35,3.37,1.04s1.55,1.58,1.9,2.67c.35,1.09.52,2.66.52,4.72v13.06Z"/><path class="cls-18" d="m349.74,186.24l-4.13-.91c.5-2.12,1.33-3.65,2.48-4.58,1.15-.93,2.81-1.39,4.97-1.39,1.92,0,3.39.27,4.41.81,1.01.54,1.74,1.28,2.17,2.21s.65,2.62.65,5.07l-.04,6.49c0,1.82.07,3.18.22,4.07.14.89.42,1.84.81,2.84h-4.51l-.59-2.29c-.78.92-1.61,1.62-2.5,2.08-.89.47-1.83.7-2.84.7-1.67,0-3.04-.56-4.11-1.69-1.07-1.13-1.6-2.63-1.6-4.5,0-1.19.22-2.22.65-3.11.43-.88,1.05-1.59,1.84-2.12.79-.53,2.06-1,3.79-1.41,2.11-.49,3.58-.94,4.41-1.37,0-1.17-.08-1.93-.25-2.3-.16-.36-.47-.66-.91-.89-.44-.23-1.06-.35-1.87-.35s-1.46.18-1.93.55c-.47.37-.85,1.06-1.14,2.07Zm6.09,4.53c-.58.24-1.48.52-2.71.83-1.41.37-2.33.78-2.77,1.23-.43.45-.65,1.03-.65,1.74,0,.81.24,1.48.72,2.03.48.55,1.08.82,1.81.82.65,0,1.29-.22,1.92-.66.63-.44,1.07-.97,1.31-1.58s.37-1.71.37-3.31v-1.11Z"/><path class="cls-18" d="m364.79,200.85v-28.97h4.56v28.97h-4.56Z"/><path class="cls-21" d="m138.41,265.48l395.59,22.91c2.94.17,5.14,2.77,4.82,5.7l-21.06,193.84c-.25,2.31-.32,4.63-.19,6.95l12.62,238.63c.15,2.78-1.95,5.18-4.73,5.41l-318.47,25.78c-2.31.19-4.46-1.19-5.25-3.36l-6.17-16.86c-1.45-3.95-2.31-8.1-2.56-12.3l-7.43-125.69c-.27-4.52-1.24-8.97-2.89-13.19l-38.73-98.99c-1.62-4.15-2.59-8.52-2.88-12.96l-10.75-166.55c-.01-.21-.01-.43,0-.64l2.66-43.82c.17-2.83,2.6-4.99,5.44-4.83Z"/><path class="cls-16" d="m402.76,422.02l1.99-18.16c2.09-18.08-3.75-40.15-3.75-60.95s17.85-33.29,27.65-32.21l54.67,6.01-12.39,112.8-68.17-7.49Z"/><path class="cls-16" d="m275.67,277.05v81.27l-9.97,7.69h-25.78l-15.24-37.31-64.8-44.01c-7.65-4.42-2.56-12.25,3.28-12.25l112.51,4.61Z"/><path class="cls-16" d="m343.5,326.22c-33.19-3.3-63.05,21.16-66.35,54.35l-5.58,56.16c-3.3,33.19,21.16,63.05,54.35,66.35,33.19,3.3,63.05-21.16,66.35-54.35l5.58-56.16c3.3-33.19-21.16-63.05-54.35-66.35Z"/><path class="cls-9" d="m341.79,343.43c-25.76-2.56-48.94,16.42-51.5,42.19l-4.85,48.75c-2.56,25.76,16.42,48.94,42.19,51.5,25.76,2.56,48.94-16.42,51.5-42.19l4.85-48.75c2.56-25.76-16.42-48.94-42.19-51.5Z"/><path class="cls-9" d="m256.57,305.08c-7.5,0-13.64,6.14-13.64,13.64v7.51c0,7.5,6.14,13.64,13.64,13.64s13.64-6.14,13.64-13.64v-7.51c0-7.5-6.14-13.64-13.64-13.64Z"/><path class="cls-16" d="m434.34,444.74c-14.13-1.36-26.8,9.09-28.16,23.22l-3.71,38.58c-1.36,14.13,9.09,26.8,23.22,28.16,14.13,1.36,26.8-9.09,28.16-23.22l3.71-38.58c1.36-14.13-9.09-26.8-23.22-28.16Z"/><path class="cls-9" d="m426.17,529.58c8.81.85,16.88-4,20.56-11.52l-38.54-3.71c2.17,8.08,9.17,14.38,17.98,15.23Z"/><path class="cls-9" d="m452.44,472.4c.24-2.53.01-5-.61-7.33l-38.54-3.71c-1.06,2.16-1.75,4.54-2,7.07l-3.71,38.58c-.24,2.53-.01,5,.61,7.33l38.54,3.71c1.06-2.16,1.75-4.54,2-7.07l3.71-38.58Z"/><path class="cls-9" d="m433.85,449.85c-8.81-.85-16.88,4-20.56,11.52l38.54,3.71c-2.17-8.08-9.17-14.38-17.98-15.23Z"/><path class="cls-16" d="m488.44,637.38c-14.9-1.03-27.93,10.32-28.95,25.22l-2.25,32.68c-1.03,14.9,10.32,27.93,25.22,28.95,14.9,1.03,27.93-10.32,28.95-25.22l2.25-32.68c1.03-14.9-10.32-27.93-25.22-28.95Z"/><path class="cls-16" d="m493.03,645.84c-12.12-.84-22.71,8.39-23.55,20.51l-1.83,26.58c-.84,12.12,8.39,22.71,20.51,23.55,12.12.84,22.71-8.39,23.55-20.51l1.83-26.58c.84-12.12-8.39-22.71-20.51-23.55Z"/><rect class="cls-9" x="250.83" y="312.77" width="11.47" height="19.42"/><polygon class="cls-1" points="275.67 299.33 195.26 299.33 195.26 273.75 275.67 277.05 275.67 299.33"/><rect class="cls-1" x="198.79" y="281.02" width="6.4" height="12.58"/><line class="cls-1" x1="205.19" y1="287.31" x2="198.79" y2="287.31"/><rect class="cls-1" x="207.62" y="281.02" width="6.4" height="12.58"/><line class="cls-1" x1="214.01" y1="287.31" x2="207.62" y2="287.31"/><rect class="cls-1" x="216.44" y="281.02" width="6.4" height="12.58"/><line class="cls-1" x1="222.84" y1="287.31" x2="216.44" y2="287.31"/><rect class="cls-1" x="225.27" y="282.71" width="6.4" height="12.58"/><line class="cls-1" x1="231.66" y1="288.99" x2="225.27" y2="288.99"/><rect class="cls-1" x="235.08" y="282.71" width="6.4" height="12.58"/><line class="cls-1" x1="241.48" y1="288.99" x2="235.08" y2="288.99"/><rect class="cls-1" x="244.9" y="282.71" width="6.4" height="12.58"/><line class="cls-1" x1="251.3" y1="288.99" x2="244.9" y2="288.99"/><rect class="cls-1" x="254.72" y="282.71" width="6.4" height="12.58"/><line class="cls-1" x1="261.11" y1="288.99" x2="254.72" y2="288.99"/><rect class="cls-1" x="264.53" y="282.71" width="6.4" height="12.58"/><line class="cls-1" x1="270.93" y1="288.99" x2="264.53" y2="288.99"/><line class="cls-9" x1="262.3" y1="322.48" x2="250.83" y2="322.48"/><polygon class="cls-1" points="230.42 342.75 239.92 366.01 265.7 366.01 275.67 358.32 275.67 342.75 230.42 342.75"/><polygon class="cls-16" points="303.35 649.08 235.64 733.81 211.63 735.03 204.55 604.29 207.96 542.29 307.29 545.56 303.35 649.08"/><rect class="cls-16" x="193.55" y="419.25" width="16.04" height="48.51" transform="translate(19.41 -8.32) rotate(2.48)"/><rect class="cls-9" x="448.42" y="323.19" width="28.06" height="55.97" transform="translate(35.37 -42.26) rotate(5.44)"/><polygon class="cls-16" points="229.25 729.69 214.25 730.7 211.62 683.75 226.62 682.75 229.25 729.69"/><path class="cls-8" d="m508.47,662.83h0c-2.05-6.86-8.18-12.09-15.73-12.61-7.56-.52-14.34,3.81-17.31,10.33h0c-.85,1.87-1.39,3.93-1.54,6.1l-.13,1.81,35.28,2.43.13-1.81c.15-2.17-.1-4.28-.69-6.25Z"/><path class="cls-8" d="m473.75,668.47l-1.71,24.76c-.15,2.17.1,4.28.69,6.25h0c2.05,6.86,8.18,12.09,15.73,12.61,7.56.52,14.34-3.81,17.31-10.33h0c.85-1.87,1.39-3.93,1.54-6.1l1.71-24.76-35.28-2.43Z"/><rect class="cls-25" x="464.92" y="581.53" width="40.69" height="37.22"/><line class="cls-4" x1="232.27" y1="704.29" x2="421.14" y2="689.16"/><line class="cls-4" x1="235.64" y1="733.81" x2="304.57" y2="647.55"/><polyline class="cls-4" points="305.55 751.65 301.46 698.75 307.29 545.56 342.88 495.33"/><polyline class="cls-4" points="440.34 740.99 366.35 530.42 334.33 497.87"/><polyline class="cls-4" points="449.97 740.22 271.45 754.67 267.72 732.18 202.41 737.23"/><line class="cls-4" x1="438.6" y1="736.04" x2="468.12" y2="429.21"/><line class="cls-4" x1="523.55" y1="434.57" x2="389.58" y2="421.68"/><line class="cls-4" x1="140.77" y1="476.77" x2="278.8" y2="468.56"/><line class="cls-4" x1="134.87" y1="385.4" x2="277.66" y2="402.47"/><line class="cls-4" x1="135.66" y1="397.65" x2="276.24" y2="414.72"/><polyline class="cls-4" points="145.59 277.8 232.18 366.3 277.62 376.97"/><line class="cls-4" x1="455.48" y1="559.73" x2="520.81" y2="556.28"/><polyline class="cls-4" points="204.22 610.32 152.05 484.79 151.45 476.14"/><polyline class="cls-4" points="218.42 352.23 204.22 610.32 211.51 736.53"/><line class="cls-4" x1="307.29" y1="545.56" x2="174.56" y2="541.19"/><rect class="cls-16" x="217.5" y="551.43" width="30.3" height="52.09" transform="translate(18.91 -7.26) rotate(1.86)"/><rect class="cls-16" x="262.87" y="552.91" width="30.3" height="52.09" transform="translate(18.98 -8.74) rotate(1.86)"/><line class="cls-8" x1="247.8" y1="577.97" x2="217.51" y2="576.98"/><line class="cls-8" x1="248.12" y1="567.86" x2="217.84" y2="566.87"/><line class="cls-8" x1="247.47" y1="588.08" x2="217.18" y2="587.09"/><line class="cls-8" x1="293.16" y1="579.44" x2="262.88" y2="578.46"/><line class="cls-8" x1="293.49" y1="569.33" x2="263.21" y2="568.35"/><line class="cls-8" x1="292.83" y1="589.55" x2="262.55" y2="588.57"/><path class="cls-9" d="m338.95,371.96c-10.2-1.01-19.37,6.5-20.39,16.7l-4.8,48.3c-1.01,10.2,6.5,19.37,16.7,20.39,10.2,1.01,19.37-6.5,20.39-16.7l4.8-48.3c1.01-10.2-6.5-19.37-16.7-20.39Z"/><rect class="cls-9" x="310.44" y="399.2" width="48.53" height="30.91" transform="translate(-111.02 706.71) rotate(-84.32)"/><line class="cls-9" x1="350.08" y1="416.18" x2="319.35" y2="413.13"/><circle class="cls-9" cx="334.72" cy="414.66" r="4.64"/><rect class="cls-1" x="241.36" y="347.03" width="6.4" height="12.58"/><line class="cls-1" x1="247.76" y1="353.31" x2="241.36" y2="353.31"/><rect class="cls-1" x="250.9" y="347.03" width="6.4" height="12.58"/><line class="cls-1" x1="257.3" y1="353.31" x2="250.9" y2="353.31"/><rect class="cls-1" x="260.44" y="347.03" width="6.4" height="12.58"/><line class="cls-1" x1="266.84" y1="353.31" x2="260.44" y2="353.31"/><line class="cls-4" x1="337.98" y1="276.8" x2="333.84" y2="327.75"/><line class="cls-4" x1="347.45" y1="277.47" x2="343.5" y2="326.22"/><line class="cls-4" x1="356.93" y1="278.13" x2="352.7" y2="330.25"/><text class="cls-13" transform="translate(298.58 265.57) rotate(3.43)"><tspan class="cls-24" x="0" y="0">A</tspan><tspan class="cls-29" x="16.66" y="0">v</tspan><tspan x="27.58" y="0">. Grecia</tspan></text><text class="cls-13" transform="translate(280.59 789.16) rotate(-4.06)"><tspan x="0" y="0">Guillermo Mann</tspan></text><text class="cls-13" transform="translate(524.72 479.25) rotate(87.24)"><tspan class="cls-24" x="0" y="0">A</tspan><tspan class="cls-15" x="16.66" y="0">v</tspan><tspan x="27.58" y="0">. Pedro de </tspan><tspan class="cls-30" x="153.15" y="0">V</tspan><tspan x="169.31" y="0">aldivia</tspan></text><text class="cls-14" transform="translate(125.19 454.05) rotate(-92.11)"><tspan class="cls-22" x="0" y="0">A</tspan><tspan class="cls-28" x="16.66" y="0">v</tspan><tspan x="27.58" y="0">. Marathon</tspan></text><text class="cls-13" transform="translate(292.1 422.16)"><tspan x="0" y="0">Coliseo</tspan></text><circle class="cls-6" cx="485.27" cy="600.14" r="36.96"/><text class="cls-19" transform="translate(206.78 556.28)"><tspan x="0" y="0">Polideportivo</tspan><tspan x="42.5" y="36.72">Estadio</tspan><tspan x="33.99" y="73.45">Nacional</tspan></text><line class="cls-3" x1="408.19" y1="600.14" x2="448.52" y2="600.14"/><path class="cls-27" d="m646.01,602.43v-4.18h-3.61v4.18h-9.06v-4.18h-3.61v4.18h-3.31v19.97h22.9v-19.97h-3.31Zm-12.72,16.75h-3.48v-2.91h3.48v2.91Zm0-5.32h-3.48v-2.91h3.48v2.91Zm6.1,5.32h-3.48v-2.91h3.48v2.91Zm0-5.32h-3.48v-2.91h3.48v2.91Zm0-5.32h-3.48v-2.91h3.48v2.91Zm6.1,5.32h-3.48v-2.91h3.48v2.91Zm0-5.32h-3.48v-2.91h3.48v2.91Z"/><polyline class="cls-2" points="487.96 135.32 495.18 128.11 502.39 135.32"/><text class="cls-10" transform="translate(485.99 171.44)"><tspan x="0" y="0">N</tspan></text><circle class="cls-2" cx="495.18" cy="161.89" r="19.06"/><line class="cls-2" x1="495.18" y1="142.83" x2="495.18" y2="128.11"/><line class="cls-2" x1="495.18" y1="192.83" x2="495.18" y2="180.95"/><rect class="cls-20" x="469.15" y="218.29" width="52.05" height="4.85"/><polyline class="cls-7" points="469.15 212.56 469.15 223.14 521.2 223.14 521.2 212.56"/><text class="cls-12" transform="translate(470.49 245.15)"><tspan x="0" y="0">100 m</tspan></text><path class="cls-23" d="m806.14,307.08c-.26-.48-.5-.83-.39-1.1.11-.27.12-.7-.03-1.12-.15-.42-.51,0-.86,0s-.51-.24-.9-.62c-.38-.38-.55-.25-.89-.25s-.5.08-.76.08-.66.27-.84.27-.81-.09-.9-.44c-.09-.35-.58-.32-.79-.11-.21.21-.97.55-1.02.6-.06.06-.33.06-.71.06s-.77-.02-.97-.02-.71.46-.84.46-1.02.16-1.34,0c-.31-.16-.83.16-1.06.38-.23.23-.55.57-.99.57s-.73.23-.98.39c-.24.16-1.96,1.19-2.44,1.48-.48.29-.75.35-1.09.41-.34.06-.84.09-1.63.17-.79.09-1.27.24-1.92.5-.65.26-1.15.55-1.15.55l-3.48,1.8c-.73.38-.89.66-1.03.84-.14.18-.54.72-.54.72l-.58.61-1.12,1.33-.53.54-.51.37-.66.35-.58.27-1.26.53-3,1.39-5.53,2.38-1.79.71-2.53,1.05-.98.43-4.59,2.2-.38.17-.5.3-.37.16-.32.12-.64.14-.59.2-1.32.49-1.45.58-.34.2-.26.12-.41.05h-.66s-.43,0-.43,0l-.21.05-.29.12-1.14.5c-.28.93-.51,1.54-.51,1.92s-.3,1.21-.3,1.21l1.17.7s.45.03.86.34c.4.31,7.23,6.71,7.23,6.71,0,0,.33.22.61.73l.25-.05,4-.14,8.63-.35,6.67-.86-.03.21c-.12.84.12,1.36.36,2.06l7.08-.97.02-1.26-.56-.99-.18-1.02-.64-.6h1.53l-.05-.44v-.68s.36-.15.36-.15l.29-.25.29-.83,1.87-1.38h.96s2.12,1.28,2.12,1.28l.5-.6.07-1.82h.39s1.48-1.53,1.48-1.53l-.15-.44.58-.53-.21-.63-1.41-.49-.33-1.04.58-.39s.95.37,1,.37.37-1.39.37-1.39l-1.5-.62,1.45-.44,3.35-.67-.37-1.14-.18-.18.14-.6.23-1.06.03-1.27-.48-.48s-.03-.07.41-.05c.44.02.53-.51.53-.51l.23-1.25-1.13-.86-.61,1.13-.2-.93-.46-.46.71-1.46-.41-.44s-.78-.46-.76-.56c.02-.11.91.05.91.05l1.06-.37.07-1.18.32-.6.76-.41-.56-.49v-.6l-.53-.51s.09-.72.09-.77.54-.58.54-.58l.25-.25-.77-.21.18-1.16.4-.19.04-.46h.85l.51.65.34.28.51-.23.65.07.39-.97.14-.33h.58s.74-.02.79-.02c.05,0,.76-.6.76-.6l.53-.09s.51.55.58.58c.07.03.76.05.76.05l.55-.18.53-.05.56-.18.41.05.42.62.67.23.83-.26.18.65-.12.93.6,1.2.74.44.91-.19v-.13c-.38.09-.66.11-.91.11s-.57-.26-.82-.73Z"/><path class="cls-23" d="m784.89,353.61l-.68-.37-.06,1.13.35-.11.39-.65Zm.26,8.37l.33-.76-.54-.63-.04-.49-.53-.14-.32,1.2-.25.16-.65-.44.16-1.04-.33-.16.19-1.18.83.03.35-1h1.09l.33-.48-.18-.72-.62-.11-.63.19-.78-.23.21-.85.35-.25v-.72l-2.15-.19-3.78-.26s-.19.64-.29,1c-.1.36-.16.55-.16,1.04s-.09.69-.33,1.2l-3-1.05-.49-.17-.24-.06-.4-.04-.44-.02-.12.02-.27.14-.25.15-.18.11h-.1s-.21-.03-.21-.03l-2.92-.52-4.41-.07-.28-.03-.28-.1-3.97-1.73s.03-.1.04-.18c-.03.14-.06.24-.06.24,0,0-.18.54-.38,1.02-.2.48-.35.92-.43,1.19-.09.27-.89,2.77-.89,2.77.32.11.39.83-.21.83l-.09.4-.2,1.15-1.24,7.06c-.05.3-.06.4-.09.65-.03.26-.07.54-.15.73-.08.2-.12.32-.23.5-.1.18-2.08,3.91-2.28,4.28-.21.37-.38.83-.54,1.26-.15.44-.38,1.09-.52,1.48-.14.39-.26.95-.32,1.33l-.06.55.56.92.63.08c.57.04,4.36.32,4.81.37.45.05,3.61.45,4.13.52.53.07.48-.2.96-.15.49.05,8.01.51,8.01.51l1.29.12.36-.11-.04-.25,1.01-.14.62-.26,2.06-.71,1.07-.42.04-.03.21-.07.94-.37.48-.23-.25-.92.39-.04-.09-.62.9-.18-.02-1.36.79.19.12-.49.18.02.18-.62.33-.85-.07-1.3-.9-.76-.09.55-1.02-.69.03-.63.74.14.4-.39-.21-1.78-.51-.32.27-1.64-1.16-.65.19-.86,1.21.28.19-.63-.25-.74.56-.3,2.08.95s1.81.48,1.89.56c.07.09,1.16-2.98,1.16-2.98l-1.27-.83Z"/><path class="cls-26" d="m734.36,348.98l5.49-1.39.14.58,2.01-.44v-.3l1.1-.2,1.1-.37,4.1-.56.08.21.5-.02,2.2,1.41,2.49-4.29,2.09-2.82,1.4.98.41.17.62.19.43.22.93.68.99,6.92c.09.58.16,1-.04,1.7-.2.7-.29,1.16-.37,1.52-.07.36-.15.66-.15.66,0,0-.18.54-.38,1.02-.2.48-.35.92-.43,1.19-.09.27-.89,2.77-.89,2.77.32.11.39.83-.21.83-.25,0-.32-.17-.32-.17l-2.65,1.53-.52.23-.23.04-.6.13c-.05.46-.67.61-.91.1l-4.24-.3-3.32.31-7.11.49-.48-2.23c-.19-.5-.25-.46-.41-.63l-.41-.34-.07-.17-2.32-9.66Z"/><path class="cls-23" d="m784.54,340.04l-1.29.07-.78-.09-.84-.47-7.08.97c-.24-.7-.48-1.22-.36-2.06l.03-.21-6.67.86-8.63.35-4,.14-.25.05.12.23.15.28.2.24.5.38,1.4.98.41.17.62.19.43.22.93.68.99,6.92c.09.58.16,1-.04,1.7-.2.7-.29,1.16-.37,1.52-.05.27-.11.5-.13.61l3.97,1.73.28.1.28.03,4.41.07,2.92.52.21.04h.1s.18-.12.18-.12l.25-.15.27-.14.12-.02.44.02.4.04.24.06.49.17,3,1.05c.24-.52.33-.71.33-1.2s.05-.69.16-1.04c.11-.36.29-1,.29-1l3.78.26,2.15.19.35-.11.39-.65-.93-.51.12-.88.56.04.16-.23-.09-.3-.69-.21-.14-.3-.55-.32.56-1.83.05-.6-.21-.55.72-.04.2-.25-.12-.56-.55.02-.42-.16-.18-.81.49-.81-.16-.53.58-.07s-.16-.49-.12-.56c.03-.07.42-.28.42-.28l.02-.26-1.18.16-.11-.67.4-.28v-.32l-.4-1.44,1.52-.46-.32-.55Z"/><path class="cls-23" d="m744.98,328.42l-.04.63-.21.55-.42.28-.6-.11-.37.19.03.32.21.28-.46.51-.58-.25-.55.23-.88.02-.71.07-.95.85-.74,1.02-.14.81-.25.39-.21.86-.26,1.25-.33.19-.58.04-.78.42-1.2,1.23-.6.56-1.14.42-.42-.23-.37-.09-.06.12.32,2.59-.04.45,1.71,6.93,5.49-1.39.14.58,2.01-.44v-.3l1.1-.2,1.1-.37,4.1-.56.08.21.5-.02,2.2,1.41,2.49-4.29,2.09-2.82-.5-.38-.2-.24-.28-.51c-.28-.51-.61-.73-.61-.73,0,0-6.82-6.39-7.23-6.71-.41-.31-.86-.34-.86-.34l-1.17-.7s.3-.83.3-1.21.23-.99.51-1.92l-.2-.3-.13.41-.32.26Z"/><path class="cls-23" d="m760.5,322.23l2.53-1.05,1.79-.71,5.53-2.38,3-1.39,1.26-.53.58-.27.66-.35.51-.37.53-.54,1.12-1.33.58-.61s.4-.53.54-.72c.14-.18.3-.46,1.03-.84l3.48-1.8-.42-.73-.43-.49-.39.27.33.49-.35.26.21.51-.9.49-.27-.39-.33.25-.37-.58-2.01,1.25-1.29,1.39-1.18.02-1.06.16-.92.02-1.32-.14-.05-.39-.33-.35.04-.12.16-.51v-.39l-.58-.9.21-.46.51-.6-.35-.79-.51.03-.28.63.11.72-.11.48-.35.33-.56-.19-.7-.19.21-.69.37-.55-.35-.53.26-.58.41-.26.49-.21-.23-.51-.65-1.13-.44-.62-.07-1.13-.6-.6-.55.09.03-1.02h-.18l-.32.92-.81.44-.86.19-.46.37-.63.04-.6-.04-.35-.28-1.3.16.04.37,1.2-.03.02.39.46.03.04.26-.44.44.69.12-.35.33-.95-.05-.78.18-1.07-.04-.51,1.02v.88l-.37.77.11.28.71.05.47.53-.53.12-.74-.26-.46.28-.28-.21.11-.42.05-.92-.23-.18-.12-.85-.34-.23-1.02-.37.1-.35-.47-.42.35-.25-.16-.76-1.06.02-.09-.4-.25.05-.35.28.16.35-.57.28-.33.67-.46.55-1.32.14-.05,1.16-.99-.18-.56.11-.25-.41-.28.44-.47.48-.48.4-.02.92-.05,1-.39.28-1.48.42-.19.58-.32.58-.05,1.15-.19.72-.51.21-.86.49-.21,1.39-.03.94.04.09,1.28.72-.79.65-.93,1.25-.53.92-.37,1,.03,1.8.14,1.07.05.65-.87,2.72.2.3,1.14-.5.29-.12.21-.05h1.1s.41-.04.41-.04l.26-.12.34-.2,1.45-.58,1.32-.49.59-.2.64-.14.32-.12.37-.16.5-.3.38-.17,4.59-2.2.98-.43Z"/><path class="cls-23" d="m736.68,358.64l-2.32-9.66-1.71-6.93.04-.39-9.2-2.61-.14-.06-.06-.06-.11-.16-.07-.07-.11-.05-.2-.06-.2-.03h-.35s-.34-.05-.34-.05l-.31-.14-.45-.17-.43-.11-.45-.17-3.05-1.19-.13.32v.77l-1.77-.75c-1.12-.46-2.34.49-2.17,1.72l.32,4.42-.77.05-.04-.8.24-.02v-.64l-1.23.27.11,1.26-3.32.28.02.2v.29s-.13,1.95-.13,1.95l5.3-.28.25,3.46.02.18.51-.15v.11s-.64,9.61-.64,9.61l-.35.65,3-.08-.03,2.89s-2.09.07-3.22.11l-.05,1.07,3.91.11v-1.31l4.1-.09c.66,0,2.29.28,3.11.34.82.06,2.83.15,2.83.15,0,0,2.09,0,2.74-.05.65-.05,1.7-.52,2.41-.81,0,0,3.53-1.5,3.85-1.64.33-.13.51-.4.51-.4l.57-.75-.41-.34-.07-.17Z"/><path class="cls-23" d="m731.24,378.46l-.46-6.06-.64-5.24-.06-.52-.02-.23-.23-3.65c-.65.05-2.74.05-2.74.05,0,0-2.01-.09-2.83-.15l-.46,1.18-6.54,16.46,5.58,2.09,7.9,1.84.53.12.24.05.58.12-.26-2.9-.6-3.16Z"/><path class="cls-23" d="m732.09,384.44l.46,5.1.36,2.93.21,4.27s.07,1.05.24,1.99c.17.93,1.13,6.43,1.21,6.92l7.96-2.13-.18-.78-.98-3.99.59.14.22.03,1.06.04.23-4.87.15-4.63.03-1.41-.02-.34-.1-1.05-.5-5.09s-1.32.02-1.57.02-.51.06-.69.11c-.18.05-.95.31-1.13.38-.19.06-.37.11-.53.21,0,0-2.45,1.37-2.66,1.48-.21.11-.31.17-.72.24l-3.6.43Z"/><path class="cls-23" d="m711.11,394.9l-6.7-2.91-2.31-1.01c.03-.18.05-.37.09-.7.03-.33.06-.81.09-1.16.03-.35.05-.53.05-.79s.02-.52.06-.82c.04-.3.12-.52.26-.94.14-.42.59-1.55.59-1.55,0,0,1.2-3.15,1.91-4.9.71-1.75,1.79-4.36,1.79-4.36l.25.11s3.96,1.68,4.2,1.79c.24.11.53.16.85.31,0,0,1.48.79,1.63.87.16.09.35.1.58.14.24.04.34.02.57.14l2.24,1.17-6.15,14.61Z"/><path class="cls-23" d="m676.33,336.39c.18.11.54.33.84.52l-.13-.33-.72-.19Zm21.4-5.66l-.29-.18-.29-.2-.31-.23-.17-.12-.18-.11-.32-.18-.16-.08-.16-.07-.18-.09-.08-.07-.34-.34c-.67.45-1.44.87-2.16.95-.71.08-1.48-.41-2.03-.57-.55-.16-1.41-.1-2.15-.04-.74.06-.74.11-1.76.04-1.02-.07-1.37.07-1.96.11-.14,0-.26,0-.39,0l-.05.38-3.33.11-.03-.21-.93-.13-2.36.16-2.71.82.61,2.12,3.26.08.37,3.02.48.05.37-.11,1.19.29s.95.11,1.06.11.32,1.51.32,1.51h-.24l-.41-.17h0s.31.31.5.42c.19.11.98.32,1.27.37.29.05.55.09.62.09h1.14s1.36,0,1.36,0v3.36l4.3-.04h.52s.25.02.44.15c.19.12.3.2.4.26.11.06.25.13.44.16.2.03.65.08.76.12.11.04.2.1.29.23.09.13.16.27.37.36.21.09.41.08.41.08l.4-1.18.54-3.1,1.01-4.57.5-2.69.39-.72-.37-.18Z"/><path class="cls-23" d="m726.01,335.17l-.33,3.68v.81l7.01,1.99v-.06s-.31-2.59-.31-2.59l.06-.12-.07-.02.16-.28-.23-.16-.37-.3-.44-.33-.26-.37-.02-.46.11-.41.07-.49.02-.4-.02-.26.25-.05.02-.26h-.33l-.03-.37-.23-.02-.26-.25-.03-.33-.2-.12v-.4l.23-.46.39-.07.35.12.33-.44.67-.7.4-.44.18.23.49.02.16-.25.09-.55s.69-.33.74-.35c.05-.02-.25-.51-.25-.51l.53-.25.26.6.37.09s.42.46.48.49c.05.03.18-.3.18-.3l.76.07.46-.37.35-.58.04-.86-.48-.25.28-1.39.56-.81.6-.26.35.19.74.07.26-.39-.42-.3.02-.18-.21-.23.63-1.13-.11-.39.18-.18-.49-.65-.56-.26-.49-.72-.67-.93-.91-.55.23-.51,1.21.61.02-.02-.14-.07-.67-.32c-.57-.27-1.25-.73-1.87-1.25,0,0-5.21-4.53-5.63-4.87-.42-.34-.98-.79-1.8-1.16,0,0-2.17-.97-4.75-2.13l-.39.91v2.2l.18,1.77v.89l-.15,1.15.12.89v.38l-.06.97-.44,3.12.26,1.2.39,2.18.91.14.83.2.02,3.92v1.3l1.08.12-.08.53-.29,2.3Z"/><path class="cls-23" d="m723.63,311l-.39.91v2.2l.18,1.77v.89l-.15,1.15.12.89v.38l-.06.97-.35,2.5s-2.84-.12-3.32-.12-.63-.04-.95.07l.03.34-1.73.14-.04-.13-3.4,1.48-.86.29s-2.18-4.33-2.39-4.73c-.2-.41-.46-.93-.59-1.22-.13-.3-.25-.55-.4-.98-.15-.42-.6-1.65-.83-2.26-.22-.61-1.28-3.51-1.85-5.05-.57-1.55-1.78-4.86-1.78-4.86.5-.15.67-.18,1.18-.16.52.02,3.37.16,3.37.16h.11s1.99.17,1.99.17c.53.04.81.15,1.17.3.36.15.75.33,1.28.57.33.15,5.56,2.49,9.64,4.33Z"/><path class="cls-23" d="m717.17,336.19c-.17-.16-.26-.22-.44-.48-.18-.25-.56-.83-.7-1-.13-.18-.28-.39-.55-.62-.27-.23-.6-.46-.78-.66-.18-.21-.3-.34-.42-.57-.12-.23-.21-.58-.24-.83-.02-.25-.19-1.81-.19-1.81l-.38-3.48c-.05-.46-.17-.84-.39-1.26-.21-.42-.38-.74-.38-.74,0,0-2.18-4.33-2.38-4.73-.2-.41-.46-.93-.59-1.22-.13-.3-.25-.55-.4-.98-.15-.42-.6-1.65-.83-2.26-.14-.38-.26-.7-.72-1.96l-.47.14.25.87-.81.24-.08-.35-2.25,5-.12.59-.17,1.14-.77-.05-1.74.99-.68.02-.56-.37-.3-.28-.66.67-.03.24-1.11-.04-.14.1-.59.75-.69-.59-1.67-2.47-.31-.03-.14.57-.31-.04v-.48h-.95s-.59-.19-.59-.19l-.31.26.51.94-.32.59.36.38-.2.11-.83-.04-.69.83-.16.84-.46-.19-.45-.57-.69-.17-1.66-1.29-.31.15-1.01-.98.41-.59-1.18-.59s-.26.5-.3.46c-.04-.04-.64-.33-.64-.33l-.63.16-.8-.41-.89-.81.03-.41h-.08s-.05-.35-.05-.35l.13-.45-.2-1.93-1.52-1.52-5.98,6.01,4.98,2.28.56-1.36-.74-.33.14-.44-.57-.24-1.05-1,1.99.74.64-1.41,1.58.57.77.79-.48,1.02,1.03.52-.27.72-1.04-.24-.38,1.52,2.18,1.16-.24,2.41,1.1.17-.25,1.73-.02.14-.09.68c.12,0,.25,0,.39,0,.58-.04.93-.18,1.96-.11,1.02.07,1.02.03,1.76-.04.74-.06,1.6-.12,2.15.04.55.16,1.32.65,2.03.57.71-.08,1.49-.5,2.16-.95,0,0,.56-.4.76-.51.2-.11.55-.25,1.07-.25s1.04-.18,1.35-.37c.31-.2.59-.44.84-.58.26-.14.4-.2,1.2-.2s1.11-.01,1.78.01c.67.03,1.1.1,1.59.47.49.37,1.65,1.34,2.14,1.83.49.49.69.35,1.05.71.36.36.76.73,1.01,1.06.25.33.47.63,1.13,1.29.66.66,1.29.83,1.92,1.11.63.28,1.59.86,2.01,1.04.42.18.96.48,1.26.63.3.15.75.38.95.59.2.2.68.31,1.06.46.38.15.84.33.84.33l.15-.36s-.03,0-.21-.17Z"/><path class="cls-23" d="m674.98,320.13l5.52-5.55-2.92-2.7-3.4-2.2,1.35.91-.98,2.31-1.56-1.12-.84,1.58-.23-.12-.31.52,1.79,1.13.33-.42.88.58,1.41.98,1.1.94.29.47s-.58.69-.66.61c-.08-.08-2.01-.8-2.01-.8l-.24.23-1.61-.79-.58-.44-1.23,1.99,3.84,1.85.06.03Zm-6.34,29.09l-.41,3.48,1.16.14-.46,2.07v.02s1.18.21,1.18.21h.07s.23,0,.23,0l1.32.02.53-2.13h.09s.51-2.03.51-2.03l1.99.13.64.69-.14,1.45,1.71.13.69,2.44,11.03,2.61.08,1.7.63-.61.79-.63,1.15-.79v-3.49s.08-3.06.08-3.06l-3.42-.82s-.25-3.44-.25-3.56-.11-.2-.27-.27c-.15-.07-.13-.13-.13-.32s-.02-.47-.02-.47l-.11-4.3v-3.36h-1.36s-1.14,0-1.14,0c-.06,0-.33-.04-.62-.09-.29-.05-1.08-.26-1.27-.37-.19-.11-.5-.42-.5-.42l-.99-.1c-.29-.2-.66-.35-1.11-.35h-1.21c-.28,0-.58.09-.69.09s-.46.07-.75-.06c-.09-.04-.26-.14-.45-.25h-.04s0-.03,0-.03c-.31-.18-.66-.4-.84-.52l-.18-.05-.32-.03h-.24c-.19,0-1.74-.09-1.74-.09,0,0-.89-.31-1.25-.47-.37-.16-.65-.43-.78-.56-.13-.13-.35-.9-.65-1.82l-1.51-.02-1.22,6.32h.88l1.11-.26.11.77-.61.4.74,1.09.61.37,1.3.16-.37,3.45-.03,1.51-1.01-.29-1.94-.48-.58,2.83Z"/><path class="cls-23" d="m711.07,363.44l-.07-.3-.09-.28-.14-.28-1.21.29-.49-.07-.49.25-.25.19-.21.07-3.41.92-.38.09.16.13-8.45,4.41-.32-.55s-.58-.53-.71-.53-.63-.13-.63-.13l-1.06-.58-1.48.77-.44.04-.06,1.76v1.54h-.14l.11.71c-.54.36-.99.93-1.23,1.62-.24.69-2.51,6.44-2.51,6.44l7.27-.25,2.05,2.17-3.44,5.16,4.28,1.97.05-.09.56.22,1.24-2.97,1.6.56v1.35s-.74-.21-.74-.21l-.39,1.88-.17.24.48.22h0s.35.08.35.08c0,0,.13-.56.17-.57.04-.01,1.37-.49,1.37-.49h0s0-.06,0-.09c.03-.35.05-.53.05-.79s.02-.52.06-.82c.04-.3.12-.52.26-.94.14-.42.59-1.55.59-1.55,0,0,1.2-3.15,1.91-4.9.71-1.75,1.79-4.36,1.79-4.36l1.13-2.77.3-.74.43-1.12.62-1.76.78-2.25.64-1.92.24-.94.04-.36-.04-.46Zm-13,1.67l.54-1.06-3.27-3.21-.57,3.43c-.05.28-.07.36-.2.49-.13.13-.19.2-.22.29-.03.07-.05.17-.06.3l.12.03,3.67-.26Z"/><path class="cls-23" d="m697.74,388.98l-4.28-1.97-2.85,3.96.17.11.38-.57,1.37-1.95,4.07,2.18,1.13-1.76Zm-7.56,7.11l.11-1.56-1.51-1-.93,1.3.11.08s-.22.29-.26.29c-.01,0-.04-.02-.09-.05l-1.57,2.18h0s1.14,1.07,1.14,1.07l1.3-1.3-1.47-.88.7-.86,2.8,1.95.84-1.06-.67-.46-.52.31Zm10.2-5.9l-.48-.22-.54.74.45.22.57-.74Zm4.03,22.18l1.76-4.64-.02-.06-.14-.04-.03-.12.81-3.96.94.15,3.13-7.9-.09-.15.35-.75-6.7-2.91-2.31-1.01-.05-.02-.09.78-.54,1.52-.2,1.4-3.75,4.64-3.21,4.82-.16,1.99,1.52,1.13,4.16-5.19.75.21-.32,1.32h-1.17s-.1,1.3-.1,1.3l-.81-.13-.28,1.9.95.18-.04.56.2,1.7-.84.07-.04.29-.74.03-.81-.95-.52.04.06.59-.8.03-.07-.45-.43-.03-.22.81-.8.08-.04.31.36.63.1,1.1s2.64-.21,2.68-.21.66,1.67.66,1.67c0,0,1.63-.21,1.69-.21s-.52,4.48-.52,4.48l-1.12,10.5v2.05s.15,1.8.15,1.8l.32-.07-.13-1.44h.85l-.06,1.04-.33,1.06.28.66,1.91.81-.49,1.21.35.21.82,1.32.85.28,1.31-.43.66.26-.17,1.06-.84.39-.26-.53-.85.53-.33-.06-.47-.84-.22-.13h-.67l-.21-.15.06-.4-.21-.64-1.74-.06.49,3.58,1.6.07,1.37-.59-.52,1.99,1.95.52-.54,1.41-.74,1.4-1.52-.25-.03-.35-1.07-.25-.04-.59-.82-.06.03,1.39.36.07.03.42.18.06.33,1.41-.8-.07-.98-.22v.24l.38.35s.92.08.96.11.14.61.2.64c.06.03-.32.38-.32.38l.42.72.47-.13.17.45.75.13-1.25,3.65,1.02.33.22-.42.17.07.43-1.17,1.17.42v-.31s-1.07-1.73-1.07-1.73c0,0-.4-.74-.42-.8-.01-.06.13-.56.13-.56l.47.07.2.96,2.22-.27s-.28-2.12-.24-2.12-1.23-.38-1.23-.38l.15-.64.42.12.24-.75.56.18.61-1.44.6.25.35.67-.36,2.23,1.05.2v-.48l-.11-.45-.2-1.1.18-.92.96-2.87-1.27-.63.96-2.02.75.27.63-1.62.71.13-.88,1.8.71.32.26-.42,1.35.47.95-.11.15-.46.6.22v.32l.6,1.17,1.28-.45-.56-1.69-.96-.17-1.45-.39.29-1.14,1.84.45-.26-2.45-.52-2.27h.49l-.2-1.4-.67.12-.42,1.62-1.21-.34-.21.83-1.45-.83-.15-2.25.36-1.19.59.4.5-.7.64.28.59-1.23,1.56.84,4.97,1.2,1.08-3.43,1.42-5.08.69-2.86-5.76-1.4-10.31-4.96Z"/><polyline class="cls-23" points="668.54 409.6 666.69 411.46 664.77 409.8 662.45 412.12 661.04 410.5 658.75 413.03 660.83 415.12 659.54 416.41 659.26 416.13 658.14 417.37 659.24 417.98 659.92 418.66 658.98 420.48 658.21 418.7 656.59 419.15 655.9 419.84 653.17 422.45 650.3 419.61 649.81 420.19 649.09 419.47 648.62 419.87 648.86 420.36 648.73 420.56 646.85 418.81 645.46 420.04 645.09 419.59 651.88 412.26 652.97 411.17 654.25 410.24 650.6 404.79 651.95 404.17 652.56 405.11 653.69 404.5 654.93 406.19 654.74 406.38 656.31 408.21 657.3 407.53 657.66 407.99 659.8 405.99 659.5 405.75 662.18 403.41 663.93 403.61 668.61 405.96 669.2 408.86 668.68 409.38"/><path class="cls-23" d="m694.85,379.69l-7.27.25s2.26-5.74,2.51-6.44c.24-.69.69-1.26,1.23-1.62l-.11-.71h.14v-1.54l.06-1.76h-.14s0-.75,0-.75l-3.59-.03-.13.48-.87.13v-.21l-3.7,3.38-1.06.61-1.61.22-1.09-.08-1.59-.47-.89.24-2.41.53-1.49.72-.9.11-1.38.61v.45l-2.17.56-1.35.35v2.2h-.88l-1.14.4-.26-.88-.4.11-.13-.4h-.26l.56-.9-.05-.24-1.25.24-.32.4v.16l.37.05.13.42h-.13l.13.58-.88.21-.03,11.85-.29,1.41,2.44.72.11.56.48,1.01-1.17.85,1.48,1.33-.19.37,1.27,1.46-4.27,3.61,1.54,1.27-1.14,1.01h-.29l-.45.4.4.32-.22.19,6.29,6.17.21.07h0s2.24.7,2.24.7l.7.22.82-2.12.8.27.69-1.67.24.24.19-.45,1.03.48-.45,1.11,2.15.9.5-.74,3.55-4.91-1.33-.85.4-.64-1.83-.95-1.01-.56.45-.82-1.01-.56.96-1.75-1.8-.98-.66-.4-.72-.9-1.22-.69,1.33-1.09.98,1.33,1.27.82,4.85,2.41.56-1.35-3.47-2.94,1.82-1.46,2.77,2.44,1.17,1.16-.31.35,1.21.89h-.53s-.46-.38-.46-.38l-.46.54,1.27.88.65-.86,1.57-2.18c-.13-.1-.38-.3-.38-.3l-.63.61s-.25-.15-.29-.15.34-.49.34-.49l-.45-.39-.54.4-.13-.22.88-1.19-3.51-3.05.5-.67,6.61-4.24,2.16,1.07-1.46,2.16-1.3-.99-.75,1.21.52.4-.07.49-.52-.28-.95,1.51.54.49.98-1.52,1.46.96,2.85-3.96,3.44-5.16-2.05-2.17Zm-7.6,14.69l.6.45.93-1.3-.65-.43-.88,1.28Zm-10.66-23.53l.2-.08.56.13.9-.03,1.82-.18,1.37-.63,1.43-.9,1.93-2.32.21.16.42-.4,2.93-.9.21.42.85.05,1.35-1,1.69.37,1.06-.42.76.23c0-.13.03-.23.06-.3.04-.09.1-.16.22-.29.13-.13.15-.21.2-.49l.57-3.43-5.06-1.91-.79.63-.63.61-.08-1.7-11.03-2.61-.69-2.44-1.71-.13-.07.78,1.59.03.53,1.7.88,3.13,2.28,4.77-.26-.03-2.49,1.78h1.41l.85-.64.61-.8.29.77-.77.72-.66.8-2.36-.16-1.38-.21-.32.27-.93-.32-6.44,3.92.64,3.05,7.88-1.99Z"/><path class="cls-23" d="m686.64,310.96l.53-.9-1.65-.49.11-.11-4.55-1.23-.76-.48.06-.1-1.6-.46-.71.98-.43-.2-.43.74-1.33-.44-1.71,1.44,3.4,2.2,2.92,2.7.46-.46,1.52,1.52.2,1.93-.13.45.05.34h.08s.02-.38.02-.38l5.22-4.13-.17-2.08.28-.43-1.4-.37Zm3.46-14.39l-2.41-.16-1.66-.06.03.39-.66.55-.41-1.11-.64.3-1.71,1.3.08.28-.75.39.36.61-.58.3.39.66-.53,1.74-.75-.36.19.5-.78.14-1.14.23-.05-.19-1.44.33.16.77.85-.17.26.84-.4.21,1.32,1.54,4.67,1.16-.3,1.05,2.24.5.19.22-.46.46,1.33.46.43-.74,1.84.16.27.63.05.74.25.4.37.63-.47.74.15.72,1.23-.4.68.62-1.39,1.23.52.87s.2.1.52.1.48.37.61.63c.12.26.42.85.51.94.09.09.47.12.69.12s.57-.1.57-.1l.33-1.05h.77s1.45-.9,1.45-.9v-.68s.2-.21.2-.21l.1-.62-2.03-.84,1.31-2.76,1.77.17.79-.05,1.21-.5,1.23-.9-.06.64,1.05.06,1.78-.4,1.06.06.36.66.38,1.84-1.09.31.15.62.37.95.54.41.58.32.21.37-.11.26.08.35.81-.24-.25-.87.47-.14v-.04c-.4-1.05-.83-2.22-1.13-3.05-.57-1.55-1.78-4.86-1.78-4.86.5-.15.67-.18,1.18-.16.52.02,3.37.16,3.37.16h.11s-.05-.69-.05-1.07-.04-.56-.15-.95c-.07-.23-.22-.77-.37-1.27l-2.17.08-.86-.08-.86-.36-.17.89-1.05-.14-.64-1.38-1.8,1.47.97,1.41h-2.16l.03-1.02-.66-.72.06-1.19-1.11-.14.19-1.99-1.22-1.49-.03-.06-5.17-1.09-2.24.04Z"/><path class="cls-23" d="m744.94,315.23l-.65.11-.69-.67.05-.37-.35-.32-.72-.09-.12-.26-.72-.07-.51.23h-.55l-.78-.83.76-1.25.56-.07.74.44.71-.02.5.36.67-.08-.07-.28-.35-.34-.05.18-.12-.03-.31-.15-.1-.2-.53.11.06-.29-.33-.36-.43.18-.38.32-.69-.04-.22-.11-1.08-.06-1.52-.75-.17.14-1.02-.61-1.19-.88-.06-.39.25-1.02.08-.75.17-.88.22-.28.72-1.66-1.63-2.24-.88.11-.64.55-.3-.25-1.11,1.02-1.19,1.8-1.16,3.62-1.27-.08-2.21-1.52-2.9,1.85-.61-.05-.89-.47.28-.53.08-1-1.71-.22-.03-.64-.33-.14-.44,3.15-1.13-.5.08-1.24-.61-.25v-1.77l-.39-.06.06-3.01,2.79.72.14-3.35-.03-.91.08-1.13-.55-.53.66-.83.28-1.08-.17-.25.44-.36.11-.64-.83-.19-.03-.8-.28-.08.72-.83-.3-.53-.66-.19-.41-.47-2.02,1.36-.47-.39-.44.69-.36-.06-.44.44v.39l-.17,1.47-.41-.14-.11.83-1.52.22-1.27.3-.47,1.27.44.77.25,1.38,1.08.19.25,1.22-1.78-.36.19,1.22-.58-.28-.61.03-.28-1.22-2.49-.11.47,2.21h-.04c.15.5.3,1.04.37,1.27.11.39.15.57.15.95s.05,1.08.05,1.08l1.99.17c.53.04.81.15,1.17.3.36.15.75.33,1.28.57.54.24,14.39,6.46,14.39,6.46.82.37,1.38.81,1.8,1.16.42.34,5.63,4.87,5.63,4.87.63.52,1.3.98,1.87,1.25l.67.32.14.07.51-.46.3.42,2.73.88.7-.93.33-.26.49-.3.07-.53.16-.21.03-.63.18-.99.03-.05.48.09.05-.23.26-.49.33-.18.44-.51.28-.04-.55-1.16-.4.02Z"/><path class="cls-23" d="m788.84,425.23l-5.23.18-.32-.99-1.78-.05-.27.86-2.96.12-.51.16-.81-.33-2.27-1.39-.88-1.3.07-1.06-.27-.37-.51.28-.56-.83.51-.3-.18-.53-.97-.79-.42.16-.86-.99.18-.12-1.87-2.04.56-.69s-.18-.23-.19-.28c-.02-.05.21-.35.21-.35l.34-.48.02-1.34-.67-.23-.18.46.26.23-.19.88-.62.07-.03-2.68,2.96,1.74-.11-3.42.48-.18.2-.58-.69-.07-.16-.28.19-1.04.85-.02.46-2.34-4.62-1.27-.19-2.1.72-.21,1.16.51-.09-1.32-1.99-.86-.11-.46h-.03s-5.99-.13-5.99-.13l4.17,6.07.55.8-11.75,2.41.23,1.67-3.81.63-2.28-1.29-.26-.17c-.11-.07-.24-.07-.41-.07s-.3.05-.48.14c-.18.08-4.55,1.49-4.55,1.49l.38,2.45.38,2.3-.8.13.18,1.73.15,2.03c.28,0,.58-.03.74.61.16.64.44,2.22.44,2.22l.81,4.76,2.95-.46-.63-4.95,2.75-.32.07,1.06,1.34-.04.67,3.54-1.41.25.34,2.4-.69.04-4.63.9.42,1.99.62,1.53-7.28,1.13.14.97-1.76.19-.14-.91,1.64-.3.33-.28.12-.48-1.29-.04v-.95l-1.6-.3-.94-.31.02.42.05,3.4-.02.16-.89,4.61-.19.97-.4,2.46.3.04.74-.37-.16-.33-.48.14-.02-.55,1.78-1.04.07.62-.48.05-.02.72.42.09s-.02.58.05.63c.07.05,5.81-1,5.81-1l-.07-.53,2.31-.28-.07-1.36.83-.07.05-.25-.32-.02s-.23-.21-.48-.33c-.25-.12.05-.28.3-.46.25-.18.1-.35.05-.77-.05-.42-.09-.62.28-.83.37-.21.63-.72.63-.72l-.07-1.57-.76-.07-.28.32-.6.1-.21-1.21,1.81-.34v.23h.28l.02.9.58,2.63,1.34-.07.95,4.53,1.09.09.03.2,1.1.07.57-.26,3.08-1.9.62.79-.65.55.48.44.72-.92.25-.49.83-1.16,1.23-.58-.25-.86.41-.42s.81-.69.88-.69,1.37-.42,1.37-.42l-.05-.19,2.15-.97,1.67-.48.85-.37s.69-.35.84-.37c.16-.02,3.33-.81,3.33-.81l-.16-.95-.85-1.6,3.13.74-.7-.79-.74-.14-.81-.78-1.13-.12-2.06-3.42-.25-1.94.72-.18,1.22-3.17,2.03-2.27.67,1.22,1.04.3.58.86-.11.28s.72,1.48.79,1.53c.07.05,2.66,5.35,2.66,5.35l-.76.83-1.18.33-1.37.49-.18,1.09.26.51.46-.69.9-.9.44,1.16-.42.67s.99.55,1.08.55.81-.02.81-.02l.85.63.76.07s-.07-1.69-.09-1.81c-.02-.12,3.19-.09,3.19-.09,0,0,.49,2.2.54,2.22.05.02.6.07.6.07,0,0,.97-1.14,1.06-1.2.09-.05.61-.25.61-.25l.32-1.07.37-.21-.58-1.57-1.96-.62-2.52.35-2.8.21-.02-.6.67-1.2.19-.92.49-.67.88-.02.39-.48.72.1.28.49,1.58-.09.05-.58,1.83.07.04.92.53.6,1.27.02.51.35.62-.53,1.29-.18s.05-.72.07-.78c.02-.05,2.01-.67,2.01-.67l.02-.39-.93-.09Zm-51.29,3.93l.14,1.53-.62.07.33,1.16.67.14.07-.79.72-.11-.12-1.04-.86-.14-.14-1.36-1.63.25.04.61,1.39-.32Z"/><path class="cls-23" d="m736.19,432.05h-.02s-.16.19-.16.19l-7.03-.69-.52,5.89s.4.05.46.07l-.24,1.46-.11.5s-.02.07-.02.11l-.2.86-.04.12c.22,0,6.79.21,6.84.21s-.05.33-.05.33l-.32.23v.7l-.3-.02-.02.55.35.11-.09,1.37h.05s.4-2.46.4-2.46l.19-.97.89-4.61.02-.16-.05-3.4-.02-.42Zm8.17-9.42s-.28-1.58-.44-2.22c-.16-.64-.46-.61-.74-.61l-.15-2.03-.18-1.73.8-.13-.38-2.3-.38-2.45-.59-4.18.93-.19-.23-1.1-.48-2.16-7.96,2.13c-.02-.12-.05-.29-.14-.84h-.52l-9.72-1.68h-.06s-.78,3.85-.78,3.85l-3.54,14.61-1.42,5.08.6-2.15,1.24-4.55,13.49,1.58-.2.98v.72s2.12.22,2.12.22l.25,2.4h1.34l.04-.37-.05-.41h.6l-.03-.6.86.02.09.53h.51l.02-.6,5.16-.86.16,1.76-1.53.25.27,1.85-5.64.83-.21-.81s1.06-.3,1.11-.3,0-.69,0-.69l.28-.19-.02-.37-1.62.32-1.25.26.17,2.39,1.63-.25v-.06s.98-.18.98-.18l4.49-.69,1.95-.3-.81-4.76Z"/><path class="cls-23" d="m724.17,403.13l9.72,1.68h.52c-.29-1.7-.93-5.33-1.06-6.08-.17-.94-.24-1.99-.24-1.99l-.21-4.27-.36-2.93-.45-5.01-.43-.09-.52-.12-.59-.14-1.93-.45-2.82,11.59-.64,2.62-1.05,5.18h.06Z"/><polygon class="cls-23" points="723.26 399.78 723.32 399.51 719.05 398.71 718.46 398.21 711.11 394.9 710.76 395.65 710.85 395.8 707.72 403.7 706.78 403.55 705.97 407.51 706 407.63 706.14 407.67 706.16 407.73 704.41 412.37 714.72 417.33 720.49 418.73 720.97 416.75 723.33 406.98 724.11 403.12 724.74 400.03 723.26 399.78"/><path class="cls-23" d="m721.16,362.32l-4.1.09v1.31l-3.91-.11.05-1.07-2.44.04.14.28.09.28.07.3.04.46-.04.36-.24.94-.64,1.92-.78,2.25-.62,1.76-.43,1.12-.3.74-1.13,2.77.25.11s3.96,1.68,4.2,1.79c.24.11.53.16.85.31,0,0,1.48.79,1.63.87.16.09.35.1.58.14.24.04.34.02.57.14l2.24,1.17,6.54-16.46.46-1.18c-.82-.06-2.45-.34-3.11-.34Z"/><polygon class="cls-23" points="722.84 382.38 717.26 380.29 711.11 394.9 718.46 398.21 719.05 398.71 723.32 399.51 723.26 399.78 724.74 400.03 725.16 397.94 725.8 395.32 728.63 383.73 722.84 382.38"/><path class="cls-23" d="m738.06,362.01l7.11-.49,3.32-.31,4.24.3c.24.52.86.36.91-.1l.6-.13.23-.04.52-.23,2.65-1.53s.07.17.32.17l-.09.4-.2,1.15-1.24,7.06c-.05.3-.06.4-.09.65-.03.26-.07.54-.15.73-.08.2-.12.32-.23.5-.1.18-2.08,3.91-2.28,4.28-.21.37-.38.83-.54,1.26-.15.44-.38,1.09-.52,1.48-.14.39-.26.95-.32,1.33l-.06.55.56.92-1.33-.16-8.35-.65-1.15-.1-.14-.38-.08-.43-.96-5.42-.73-4.06-.11-.32-.14-.25-.17-.25-.19-.29-.13-.26-.14-.38-.08-.29-1.03-4.71Z"/><path class="cls-23" d="m786.72,387.8l-.97-.37-.1-.39-3.87-.35-4.14-.39-.95-.12-.7.23-1.07-.37-.02-.21-.67-.44.07-.34,2.25.95.28-.21-.14-.39-.39-.44-.58-.33.23-.48-.05-.74-.03-.85.46-.74,1.92-.11.23-1.09-2.31.3-1.36.55-.14-.28-1.64.33-.03-.22-.36.11-1.29-.12s-7.52-.46-8.01-.51c-.49-.05-.44.21-.96.15-.53-.07-3.69-.46-4.13-.52-.45-.05-4.24-.33-4.81-.37l-1.96-.24-8.35-.65-1.15-.1.91,1.2.13,1.32.5,5.09.1,1.05.02.34-.03,1.41-.15,4.63-.23,4.87-1.06-.04-.22-.03-.59-.14.98,3.99.18.78.48,2.16.23,1.1-.93.19.59,4.18s4.37-1.41,4.55-1.49c.18-.08.32-.14.48-.14s.3,0,.41.07l.26.17,2.28,1.29,3.81-.63-.23-1.67,11.75-2.41-.55-.8-4.17-6.07,5.99.13h.03s-.01-.04-.01-.04l-5.97-.16-.46-1.16,1.62-.09s.05-.56.04-.65c-.02-.09,3.47.12,3.47.12l1.99.78.41.56,1.53.44,1.09.93.28-.02-.1-1.36-1.69-.49-.16-1.09s.02-.7.02-.83-1.02-.03-1.08-.03.02-.6.02-.6l.72-.07s.05-.18.03-.23c-.02-.05,1.09-.09,1.09-.09l-.1-.6-.39-.74.05-.78.76-.18.07-1.14,2.1-.25-.05-1.83.21-1.39,11.5,1.78.67-.6.69-.88s1.3.04,1.36.05c.05.02.14-.53.14-.53l-.62-.63Zm-8.98-8.3l-.04.03.25-.1-.21.07Z"/><path class="cls-23" d="m739.61,382.09c-.19.06-.37.11-.53.21,0,0-2.45,1.37-2.66,1.48-.21.11-.31.17-.72.24l-3.6.43-.25-2.81-.6-3.16-.46-6.06-.64-5.24-.06-.52-.02-.23-.23-3.65c.65-.05,1.7-.52,2.41-.81,0,0,3.53-1.5,3.85-1.64.33-.13.51-.4.51-.4l.57-.75c.16.16.23.13.41.63l.48,2.23,1.03,4.71.08.29.14.38.13.26.19.29.17.25.14.25.11.32.73,4.06.96,5.42.08.43.14.38.91,1.2.13,1.32s-1.32.02-1.57.02-.51.06-.69.11c-.18.05-.95.31-1.13.38Z"/><path class="cls-23" d="m702.25,350.44l-.02-.19-.03-.12-.04-.1-.07-.18-.05-.16-.04-.21-.24-1.67-.03-.3v-.26s-.02-1.17-.02-1.17l.04-1.56.07-1.75-1.47.04-.91-.12-3.8-.69-.4,1.18s-.19,0-.41-.08c-.21-.09-.28-.23-.37-.36-.09-.13-.18-.19-.29-.23-.11-.04-.57-.1-.76-.12-.19-.03-.33-.1-.44-.16-.11-.06-.21-.14-.4-.26-.19-.12-.44-.15-.44-.15h-.52s-4.3.04-4.3.04l.11,4.3s.02.28.02.47-.03.25.13.32c.15.07.27.15.27.27s.25,3.56.25,3.56l3.42.82s7.26,1.74,7.56,1.81c.3.07.46.05.67,0l2.71-.74-.2-2.22Z"/><path class="cls-23" d="m716.38,336.38c-.38-.15-.86-.26-1.06-.46-.2-.2-.65-.44-.95-.59-.3-.15-.84-.45-1.26-.63-.42-.18-1.38-.76-2.01-1.04-.63-.28-1.26-.45-1.92-1.11-.66-.66-.89-.96-1.13-1.29-.25-.33-.65-.7-1.01-1.06-.36-.36-.57-.23-1.05-.71-.49-.49-1.65-1.46-2.14-1.83-.49-.37-.91-.44-1.59-.47-.67-.03-.99-.01-1.78-.01s-.94.05-1.2.2c-.26.14-.53.38-.84.58-.31.2-.83.37-1.35.37s-.86.14-1.07.25c-.2.11-.76.5-.76.51h0l.34.34.08.07.18.09.16.07.16.08.32.18.18.11.17.12.31.23.29.2.29.18.37.18-.39.72-.5,2.69-1.01,4.57-.54,3.1,3.8.69.91.12,1.47-.04-.07,1.75-.04,1.56v1.17s.02.26.02.26l.03.3.07.5,3.19-.47c.51-.06.43-.1.91-.06.48.04,2.32.12,2.32.12l.1-1.87.14-1.95v-.29s-.03-.2-.03-.2l3.32-.28-.11-1.26,1.23-.27v.64l-.24.02.04.8.77-.05-.32-4.42c-.17-1.23,1.04-2.18,2.17-1.72l1.77.75v-.77l.13-.32s-.46-.18-.84-.33Z"/><path class="cls-23" d="m708.33,363.23l.25-.19.49-.25.49.07,1.21-.29,2.44-.04c1.12-.04,3.22-.11,3.22-.11l.03-2.89-3,.08.35-.65.63-9.61v-.11s-.5.15-.5.15l-.02-.18-.25-3.46-5.3.28-.1,1.87s-1.84-.08-2.32-.12c-.48-.04-.4,0-.91.06l-3.19.47.17,1.17.04.21.05.16.07.18.04.1.03.12.02.19.2,2.22-2.71.74c-.22.05-.37.07-.67,0-.3-.07-7.56-1.81-7.56-1.81l-.09,3.06v3.49s-1.14.79-1.14.79l5.06,1.91,3.27,3.21.17-.34,4.23-1.06.25.7.36.36.71.61.38-.09,3.41-.92.21-.07Z"/><path class="cls-23" d="m807.14,307.6l-.72-.67-.39-.67.28-1-.46-.85-.95-.14-.21-.44-1.2-.6-.03-.55-.34-.19-.63.25-.03.35-.74.16-.93-.7.07-.51.55-.79.02-.41.33-.6.26.26.46-.11-.25-.7-.07-.58.62-.46-.51-.99-.58-.26.02-.33s.78.42.83.44c.05.02.21-.41.21-.41l.72-.3-.44-.48s.41-.44.41-.49.51-.53.51-.53l.65-.11.44.49.65-.56.05-.72.9-.03.58.56.72.04.04-.48-.6-.76-.9-.26-1.15-.37.12-.74.44-.65.55-.28.42-.65.83-.03.39-.28-.28-.56-.46-.33.44-.7.79-.34.28-.39.11-.6.62-.56.76.07.1-.16-.6-.97.65-1.43-.14-.62-.39.21.04.6-.93,1.51-.65,1.13-.46,1.11-1.07.44-.21.83-.83.33-.16.65-.97.49-.23-.56-.88-.62.3-.65-.46-.76-.58-.51-.14-.81-.79-.04-.62-.65-1.18-.26-.88.42-.27,1.62.62,1.02,1.16.83s1.06.03,1.11.03.69-.51.69-.51l.42.69.85.85-.35.58-.37.49-.07.88-.4.55-1.02-.18-.67-.02-.19.67.07.4.67.41.05.55-.5.42s-.19-.26-.21-.33c-.02-.07-.53-.11-.58-.11s-.37.55-.37.55l.12.7.27.26.12.53.26.18-.05.44-.49.32-.1.78-.51.21.02.44-.32.41-.21.39-.6.53-.53.14-.18.79-.69.37-.62.67-.63.39-.53-.21-.62-.33-.63.3-.55.14h-1.16l-.77.19-.62-.09-.39-.7.72-.35.25.37.93-.19-.05-.58-.37-.05-.4-.28.03-.85s.26.09.33.11c.07.02.19-.33.19-.33l.67-.16.23-.65-.37-.99-.55-.02-.76.09-.09-.97.58-.77-1-.78-.1-.55.79-.16.04-.41.03-.83.74.32.55-.39,1.15-1.29.44.14-.99,1.07.74,1.62.51.05-.02,1-.21.02-.05-.58-.28-.19-.69,1,.62,1.36.93.65.44.7-.07.76.23.12.49-.9.14-1.25.23-.37-.12-.51.18-.48.16-.53-.19-.56-.03-.37.76-.14-.18-1.16.28-.74-.56-.9-.14-.63-.21-.05-.49.33-.71-.21-1.18-1-.95-.18-1.55-1.18-.58.33-.74-.25-.18-.93-.44-.23.03-.3.56-.92-.97-.48-1.08-.09-.62.76-.14.69-.65-.46.05-1.53.07-.6-.55-1.55.22-.23-.28-.53-.31.02-2.12-1.09-.25.5,1.08.52-.09.16-.18,1.18-.35.11-.86-.7-.33.97-1.74-.04-.74-.53-.9.05-.74-.44-2.54-1.14-.42.12.09,1-.99-.05-.18-.57-.2-.13.74-1.04-.39-.67-.3.55-.62.26-.35-.02-.49-1.2-.09-.12-.07-.87.13-.67-.28-.34-.28.39-.25.02-.91,1.39h-.48s-1.39.36-1.39.36l-1.34.18-2.01.16-.9-.21.44,1.13,1.22.81.84.44.85,1.09,1.67,1.27-.85,1.36-.6.09-.35.39-.76-.46-.93,1.18-2.13,1.39-.88-.14.05.79.49,1.02-.42.72.33.63.77-.41.97.21,1.44,1.46.48-.16.48.92-.35.51.9.16.39-.46.42-.05.33.28.63.07.25.76.51-.09.04-.58.35-.44.81-.18,1.25,3.08.58,1.62-.37.18-.19-.18-.18-.62-1.09.35-.48-.21-.03-1.25-.41-.78-.49-.58-.3.12-.09.33.4-.09.21,1.07h-.49l.12.88.49-.05.05.41h-.35l-.53.41.07,1.87.18.19.21.4-.48-.03.03,1.13s1.22-.23,1.27-.23.09-.32.09-.32c0,0,1.67-.11,1.74-.12.07-.02,1.12-.4,1.12-.4l-.07.72-2.52.39-.04.86,1.08.35,2.45-.21.7.69.6.12.25.37.56.04.55.12.05.25-.49-.02-.84-.02.56.69.93-.09.64-.12.83-.56.5.23.98.37.86.23.44.72-.19.13.43.49.42.73s.51-.29,1.15-.55c.65-.26,1.13-.41,1.92-.5.79-.09,1.29-.11,1.63-.17.34-.06.61-.12,1.09-.41.48-.29,2.2-1.32,2.44-1.48.24-.16.54-.39.98-.39s.76-.34.99-.57c.23-.23.75-.54,1.06-.38.31.16,1.21,0,1.34,0s.64-.46.84-.46.59.02.97.02.66,0,.71-.06c.05-.05.81-.39,1.02-.6.21-.21.7-.24.79.11.09.35.71.44.9.44s.59-.27.84-.27.42-.08.76-.08.5-.14.89.25c.38.38.55.62.9.62s.71-.42.86,0c.15.42.13.84.03,1.12-.11.27.14.62.39,1.1.26.48.57.73.82.73s.53-.02.91-.11v-.24l-.74.14Z"/><path class="cls-23" d="m725.3,332.21v-1.3l-.02-3.92-.83-.2-.91-.14-.39-2.18-.26-1.2.08-.62s-2.84-.12-3.32-.12-.63-.04-.95.07l.03.34-1.73.14-.04-.13-3.4,1.48-.86.29h0s.16.32.38.74c.21.42.34.8.39,1.26l.38,3.48s.17,1.56.19,1.81c.02.25.12.61.24.83.12.23.24.37.42.57.18.2.51.43.78.66.27.23.41.45.55.62.13.18.52.75.7,1,.18.25.27.31.44.48.17.16.21.17.21.17l-.15.36,3.05,1.19.45.17.43.11.45.17.31.14.34.04h.35s.2.05.2.05l.2.06.11.05.07.07.11.16.06.06.14.06,2.19.62v-.81l.33-3.68.29-2.3.08-.53-1.08-.12Z"/><text class="cls-17" transform="translate(624.47 399.2)"><tspan x="0" y="0">uoa</tspan></text><text class="cls-11" transform="translate(601.06 436.35)"><tspan x="0" y="0">Santiago</tspan></text></g></g></svg>