<?xml version="1.0" encoding="UTF-8"?><svg id="Capa_1" xmlns="http://www.w3.org/2000/svg" xmlns:xlink="http://www.w3.org/1999/xlink" viewBox="0 0 836.64 424.05"><defs><style>.cls-1{fill:#28779c;}.cls-2{fill:#afaeae;}.cls-3{fill:url(#Degradado_sin_nombre_48);}</style><linearGradient id="Degradado_sin_nombre_48" x1="418.32" y1="424.05" x2="418.32" y2="325.98" gradientUnits="userSpaceOnUse"><stop offset="0" stop-color="#fff"/><stop offset=".35" stop-color="#fbfbfb"/><stop offset=".63" stop-color="#f2f2f2"/><stop offset=".87" stop-color="#e1e1e1"/><stop offset="1" stop-color="#d6d6d6"/></linearGradient></defs><rect class="cls-3" x="0" y="325.98" width="836.63" height="98.07"/><circle class="cls-2" cx="101.23" cy="172.17" r="10.21"/><path class="cls-1" d="m178.07,198.69c9.67-15.78,11.2-30.42,9.93-33.6-1.27-3.18-15.27-6.75-20.95-8.65s-3.24-4.2-2.47-5.47c.76-1.27,5.47,3.18,7-1.02s2.16-8.15,3.82-10.95c8.15-5.22,5.68-5.73,5.68-5.73-7.05-1.4-17.38,9.93-18.78,10.95-1.4,1.02-3.69.76-8.02,5.35-4.33,4.58-22.15,17.44-25.46,19.85-3.31,2.42-3.24,7.76-3.56,15.27-3.69,18.71,1.91,35.38,1.91,35.38,0,0-1.72,32.91-.57,42.68s-2.86,13.96,2.48,25.23c5.35,11.26,3.82,18.65,3.82,18.65,0,0-3.05,5.22,2.48,9.04,0,0,2.77.38,4.87,6.2.76,1.72.86,2.67,2.48,2.67h5.82s.67-2.2-2.2-3.34-4.77-11.87-6.2-14.57c-2.09-3.95-2.8-37.93-2.04-43.87s4.84-9.2,5.98-17.35c1.15-8.15,4.33-9.42,7.57-9.55,3.24-.13,7.58-3.18,10.5-3.69,2.93-.51,8.27-1.91,11.2-6.87,7.13-10.95,7-14.51,5.73-20.24-1.27-5.73-1.02-6.36-1.02-6.36Zm-27.62,12.92c-2.86-3.53-9.55-7.83-10.69-8.97-1.15-1.15-.49-7.92-.49-7.92,11.73,2.77,11.94,11.26,12.32,14.7.38,3.44-1.15,2.2-1.15,2.2Zm7.51-20.56c-.51,3.56-2.04-1.78-8.15-2.42-6.11-.64-11.45-.38-12.22-5.22s-1.02-5.68,2.55-8.82,8.65-5.94,8.65-5.94c0,0-1.5,3.05,1.37,4.1,0,0-4.71,8.4,5.76,13.46,0,0,2.55,1.27,2.04,4.84Zm12.63,1.75c-1.72.57-3.53-2.1-1.91-3.25,1.62-1.15,3.72-1.53,3.72-1.53,0,0,.48.29-.86-12.5-1.34-12.79-14.6-8.68-14.6-8.68-.48-3.24-3.91-1.82-3.91-1.82.19-2.96,5-7.25,7.54-7.25,7.64,1.05,14.41,8.3,17.56,10.12,3.15,1.81,3.63,2.39,2.1,5.44-1.53,3.05-3.91,12.41-6.11,14.6-2.2,2.2-1.81,4.3-3.53,4.87Z"/><path class="cls-1" d="m98.9,182.13c20.87.25,26.52,1.37,26.52,1.37,0,0,.47,4.96-.38,5.31-.85.35-26.62-2.42-29.68-4.71-3.05-2.29-6.59-8.11-5.54-12.41,1.05-4.3.38,3.39,3.63,5.94,3.25,2.55,5.44,4.49,5.44,4.49Z"/><path class="cls-2" d="m703.47,239.21c57.9,10.93,72.91.23,77.33,29.15,0,0,3.57-3.89,2.92-6.97-.65-3.08,2.27-22.7-41.19-21.4-15.49.46-23.65-.95-40.35-5.07l1.29,4.3Z"/><path class="cls-1" d="m745.02,188.07c-.89-3.08-10.13-11.03-11.03-12-.89-.97-1.22-3.81-2.27-4.54-1.05-.73-1.46.41-1.46.41,0,0-2.35-7.54-4.9-14.11-2.54-6.57-3.46-12-3.46-12-3.49-14.92-11.92-15.49-11.92-15.49-1.86,1.62.81,3.97,1.14,5.27s1.05,1.7,2.35,3.92c2.51,4.9-1.54,4.51-2.51,7.75-.97,3.24,3.16,5.19,4.7,5.43s1.22,2.19,1.22,2.19c0,0-1.82,3.89-4.07,5.19-2.25,1.3-9.31,8.03-11.74,12.41s-2.92,4.23-3.49,7.63c-.57,3.4-4.38,10.94-6.08,22.05-1.7,11.11-4.22,13.05-.97,20.59s5.11,15.49,15.32,17.68c10.22,2.19,9.16,2.19,9.16,2.19,0,0-.41,14.03,2.84,23.76,0,0-.08,7.94,0,11.14s-.65,7.1.97,16.58,1.86,13.13,1.86,13.13c0,0,.24,3.41-.81,5.19-1.05,1.78-6,9.73-3.97,11.11,2.03,1.38,4.86.93,5.84.87.97-.06,2.43-1.28,2.27-4.52s2.76-3.43,2.11-6.66c-.65-3.23-2.27-8.13-.97-16.91s2.78-9.35,1.07-17.21c0,0-.22-1.3.77-4.14,1-2.84,4.81-37.52,4.73-42.4,0,0,4.38-3.81,4.54-12.36,0,0,2.92-11.26.73-20.65,0,0-.32-.64,2.92-3.8,3.24-3.16,6-4.62,5.11-7.7Zm-43.18,15.8c-.04.39-.67-5.92-.67-5.92,0,0,1.66,1.56,1.66,2.55s-.95,2.98-.99,3.36Zm23.29,11.11s-1.82.79-1.82,1.52c0,0-2.17,1.7-2.37,2.25,0,0,.61-5.47,4.2-8.15,0,0-.12,3.71,0,4.38Zm1.03-16.38l-1.26,1.62s-2.84,0-5.19,2.31l-.85-.36s2.07-1.86,2.92-3.93c0,0,3.04.65,4.38-2.55v2.92Zm-5.11-7.46s-2.65-6.15-9.43-5.44c-1.95.21-3.77,1.08-5.26,2.35-2.22,1.9-4.12,3.94-5.82,6.66,0,0,2.51-4.91,3-8.55.49-3.65.49-6.45,1.09-7.3.61-.85,8.03-10.34,9.97-13.26s3.65-3.65,3.65-3.65c0,0,1.82,5.35,1.95,10.82.12,5.47,3.28,7.78,4.62,12.41,1.34,4.62,1.34,7.18,1.34,7.18,0,0-2.19-3.41-5.11-1.22Z"/><polygon class="cls-2" points="731.72 171.53 768.97 160.25 768.8 159.99 731.39 171.35 731.72 171.53"/><path class="cls-2" d="m695.85,234c-29.2-3.48-59.47-20.94-57.75-36.05-.24-7.3,50.43-44.67,127.21-37.96l3.4-.5-1.7-2.52s-70.31-15.22-128.67,31.62c-4.37,3.51-6.96,9.3-4.79,14.47,13.39,31.86,65.44,35.07,66.96,35.35l-4.66-4.41Z"/><polygon class="cls-2" points="295.72 275.67 296.24 276.67 273.85 286.16 273.3 285.17 295.72 275.67"/><path class="cls-2" d="m267.94,284.93c.06-.05.85.61.92.58.09-.03.01-.87.11-.88,4.12-.48,4.49-.22,5.03,1.28.54,1.5-.29,2.39-2.98,4.07-.06.04-.83-.87-.89-.85-.09.03.06,1.31-.17,1.33-4.32.27-4.08.29-4.65-1.31s-.74-1.43,2.64-4.21Z"/><polygon class="cls-2" points="387.83 213.22 387.22 212.6 401.55 200.65 402.18 201.25 387.83 213.22"/><path class="cls-2" d="m406.16,200.23c-.03.05-.76-.26-.81-.22-.06.04.18.65.12.67-2.92,1.27-3.25,1.16-3.98.18s-.32-1.82,1.28-3.65c.03-.04.8.46.85.42.06-.04-.33-.95-.17-1.01,3.11-1.16,2.93-1.12,3.71-.07.78,1.05.86.89-1,3.68Z"/><path class="cls-1" d="m391.29,211.7c.17-1.37-.26-1.28-3.59-1.11-3.33.17-4.1,1.02-4.95,5.04-.85,4.01-4.26,7.56-4.26,7.56-3.48-.63-8.26.96-4.82,6.52,0,0-4.44.8-3.87,7.06,0,0-2.62-1.02-9.79.46-9.11-1.48-11.61-4.1-11.95-5.58-.34-1.48-1.02-6.94-7.17-11.27v-26.18c0-2.05.11-5.58,1.59-8.65,1.48-3.07,6.15-10.13,7.4-23.45,1.25-13.32,1.02-14,4.55-15.37,3.53-1.37.91-6.37,2.96-9.56,2.05-3.19,4.1-7.29-1.71-9.33,0,0-3.87.8-6.38,11.38-2.5,10.59-9.56,28.46-9.56,28.46,0,0-3.41,8.08-4.33,9.56,0,0-2.28,3.98-2.73,8.65-.46,4.67-8.65,27.09-8.2,35.75,0,0,.68,2.16-3.64,5.46-4.33,3.3-6.6,10.13-3.98,38.59,0,0-5.46,4.21-8.88,4.33-3.42.11-5.92-.68-7.29,1.25-1.37,1.94-2.73,2.05-2.5,3.98l-4.44.91s-.57,1.25,2.39,1.48c2.96.23,6.6,1.48,12.86-2.16,6.26-3.64,8.65-3.07,8.65-3.07,0,0,.68,13.21,1.02,15.03.34,1.82,1.02,6.94,5.24,13.77,4.21,6.83,6.72,16.62,6.03,19.01-.68,2.39,0,4.78,7.51,4.78h15.71s.91-2.62-9.22-5.24c-10.13-2.62-10.25-14.57-11.61-20.38-1.37-5.81-2.73-7.51-3.3-11.84-.57-4.33.11-18.1.11-18.1,0,0,2.96-2.62,5.24-2.85,2.28-.23,13.21-1.25,14.34-2.39,1.14-1.14,8.77,1.25,17.99-3.07,0,0,8.08-1.59,10.02-9.68.11-.44,5.69,2.39,7.97.68,2.05-1.54,7.34-15.84-.8-21.9l2-10.67c3.5-2.29,5.21-6.51,5.38-7.87Zm-60.87,49.78v-11.38s0,.68,4.78,3.07c4.78,2.39,8.31,2.05,9.56,3.76,0,0-9.45,4.55-14.34,4.55Z"/><path class="cls-2" d="m475.6,267.53c-22.69,0-41.09,8.33-41.09,18.61s18.4,18.61,41.09,18.61,41.09-8.33,41.09-18.61-18.4-18.61-41.09-18.61Zm0,35.63c-21.63,0-39.16-7.62-39.16-17.02s17.53-17.02,39.16-17.02,39.16,7.62,39.16,17.02-17.53,17.02-39.16,17.02Z"/><path class="cls-1" d="m534.68,268.85c-.24.13.26-6.94,1.32-8.87,0,0,5.79,3.6,12.91,5.53,0,0-12.91,2.63-14.22,3.34Z"/><path class="cls-1" d="m522.06,280.23s1.12,2.87,1.12,6.61-.12,11,2.69,16.04c2.81,5.03,6.2,11.24,6.44,16.04.23,4.8-1.29,6.56.7,6.91,1.99.35,7.14,0,9.72,0s8.31.47,8.19-1.52-8.78-1.87-12.17-6.2c-3.39-4.33-3.63-19.32-5.74-26.22s.13-14.98.13-14.98c1.67-.66,3.47-1.45,4.61-2.08,3.86-2.11,23.27-.53,26.95-.88s3.95-7.11,6.32-8.43c2.25-1.25,7.81-1.4,7.81-1.4,2.81,3.07,7.46,3.42,7.46,3.42,3.78-1.84,6.5-10.1,6.94-14.57.44-4.48-6.67-8.17-6.67-8.17.61-1.93-.35-4.13-4.48-3.95s-3.25,4.32-3.25,4.32c-2.92,1.32-4.08,4.19-4.51,6.47,0,0-1.2,1.23-2.26.09-1.05-1.14-.61-2.55-11.41-3.34-10.8-.79-11.59-4.23-12.47-7.56-.88-3.33-2.37-9.56-7.46-11.67,0,0-.09-4.74.79-10.97.88-6.23.26-13.7.97-15.98.7-2.28,5.09-9.13,9.39-15.89,4.3-6.76,1.05-13.7,4.83-19.84,0,0,3.95-.44,4.39-2.55.44-2.11-.79-4.48,1.05-8.25,1.84-3.78,5.09-7.55-.97-11.06,0,0-7.55,7.02-9.48,19.05-2.46,8.69-11.85,22.74-11.85,22.74,0,0-4.48,4.21-5,11.76-.53,7.55-9.57,21.95-8.78,35.38,0,0-3.34,4.48-2.9,7.11,0,0-3.86,22.39-1.05,33.54,0,0-1.23,2.46-3.51,2.46s-4.92-1.23-6.23,0c-1.32,1.23-1.76,2.99-.79,5.71.97,2.72,4.13,1.05,6.41.53,2.08-.48,1.97-2.12,4.05-2.68h0Z"/></svg>