<?xml version="1.0" encoding="UTF-8"?><svg id="Capa_1" xmlns="http://www.w3.org/2000/svg" xmlns:xlink="http://www.w3.org/1999/xlink" viewBox="0 0 836.64 424.05"><defs><style>.cls-1{fill:#28779c;}.cls-2{fill:#afaeae;}.cls-3{fill:url(#Degradado_sin_nombre_48);}</style><linearGradient id="Degradado_sin_nombre_48" x1="418.32" y1="424.05" x2="418.32" y2="325.98" gradientUnits="userSpaceOnUse"><stop offset="0" stop-color="#fff"/><stop offset=".35" stop-color="#fbfbfb"/><stop offset=".63" stop-color="#f2f2f2"/><stop offset=".87" stop-color="#e1e1e1"/><stop offset="1" stop-color="#d6d6d6"/></linearGradient></defs><rect class="cls-3" x="0" y="325.98" width="836.64" height="98.07"/><path class="cls-1" d="m531.28,189.28c-.28-1.11-.97-5.4-2.63-7.9-1.66-2.49-5.82-6.51-13.44-7.48-7.62-.97-15.66-3.6-21.89,1.52l-2.77-1.8s-1.25-4.3-4.71-7.62c-3.46-3.33-5.54-4.71-5.27-6.79,0,0,2.77-3.41,6.24-8.11,0,0,.21.84,1.94,4.44,1.73,3.6,2.56,3.46,2.56,4.57s2.08.21,1.18-2.84c-.9-3.05-1.39-3.12.9-2.7,2.29.42,5.33,6.24,7.48,6.24,0,0,1.42-.07,1.06-1.39-.37-1.32-2.31-2.08-4.18-7.62-1.87-5.54-8.18-6.51-9.49-6.44-1.32.07-4.71,1.45-10.05,7.41-5.33,5.96-5.06,4.92-3.53,8.45,1.52,3.53,4.35,7.84,5.96,10.18,2,2.91,3.62,6.06,3.56,6.66-.39-.18-2.68-1.73-3.08-1.68-1.94.28-13.21,1.47-13.76,15.19,0,9.28,4.3,10.32,4.3,10.32,0,0-3.88-1.8-4.3,2.36-.42,4.16,10.25,7.62,9.98,1.39,0,0,13.51,2.78,12.89-9.59,0,0,1.71,1.54,2.26,4.59.55,3.05,5.13,9.72,5.82,11.86.69,2.14.69,1.45,2.63,3.66,1.94,2.22,7.48,5.13,7.48,5.13v7.96c0,3.27-3.19,12.55-2.63,18.23.55,5.68-1.94,10.95-5.13,13.93-3.19,2.98-5.68,5.61-7.21,12.82-1.52,7.21-2.08,17.32-3.6,23.56-.97,2.71-3.46,2.17-4.71,4.83-1.25,2.66-1.11,3.07-.69,6.12.42,3.05-2.22,5.49-1.39,9.54.83,4.04,1.39,3.12,8.31,3.72,0,0,1.52-1.48.14-3-1.39-1.52.55-2.49,3.05-8.31,2.49-5.82.42-6.65,2.49-13.99,2.08-7.34,7.21-20.37,8.31-22.17,1.11-1.8,5.68-5.4,8.59-9.84,0,0-3.33,6.17-2.91,17.84.42,11.67,2.08,14.86-1.25,21.37-2.63,3.6-4.02,4.85.28,9.28,4.3,4.43-.42,12.32,5.13,12.67,5.54.35,8.87,0,8.87,0,0,0,.83-.89-2.49-2.83-3.33-1.94-1.39-2.36-1.39-10.39s-.55-5.8-.42-12.11c.14-6.32,1.39-9.23,2.49-15.04,1.11-5.82.05-9.56,1.89-11.92,1.85-2.36,3.93-10.16,4.2-23.72,1.11-9.26,2.22-16.7,2.22-27.39s4.44-18.16.69-33.14Zm-20.09,16.28c-.42,2.7-2.98,2.7-3.19,6.51,0,0-2.15-.62-2.49-1.59-.35-.97-1.39-.35-2.98-4.99-1.59-4.64-3.19-9.28-3.19-9.28,0,0,5.75.83,8.59,0,2.84-.83,5.75,1.87,5.89,3.12.14,1.25-2.22,3.53-2.63,6.24Z"/><path class="cls-2" d="m508.42,221.29c-32.89,0-59.55,24.55-59.55,54.84s26.66,54.84,59.55,54.84,59.55-24.55,59.55-54.84-26.66-54.84-59.55-54.84Zm0,107.38c-31.51,0-57.05-23.52-57.05-52.54s25.54-52.54,57.05-52.54,57.05,23.52,57.05,52.54-25.54,52.54-57.05,52.54Z"/><path class="cls-1" d="m515.1,221.29s2.81,2.44,3.22,4.04c.42,1.6,4.47.35,6.13,1.5,1.66,1.14,1.35-3.14-.52-5-1.87-1.86-9.15-1.82-8.83-.54Z"/><path class="cls-1" d="m709.07,156.09s-1.5-11.23,8.61-13.73c10.11-2.5,10.11,7.99,8.49,12.36-1.62,4.37-3.87,7.36-5.12,7.86-1.25.5-2.37,5.12-3.62,5.37,0,0,.37,1.12,3.99,1.12s5.99.12,7.24,0c1.25-.12,4.12-3.87,6.61-6.49,2.5-2.62,6.12-6.99,5.99-8.99-.12-2,2.5-3.22,5.99-4.6,3.49-1.39,6.99-4.13,7.61-4.13s2.25.25,0,1.87c-2.25,1.62-3.62,2-3.49,3s2.25,2.75,3,3.49c.75.75,1.62,1.8-.25,2.33-1.87.54-3.62,1.41-5.62,1.16-2-.25-2.37.12-4.37,3.74-2,3.62-6.99,13.73-10.48,15.1,0,0-1.12-.62-2.87.75-1.75,1.37-4.49,3-4.49,3,0,0,.37,1.12,3.62,1.62,3.24.5,6.24,1.37,9.11,1.12s6.74-1.78,9.48.04c2.75,1.83,4.37,2.95,4.62,3.7.25.75-.12.87-2,1-1.87.12-4.12,1-5.12,1.25s-3,1.37-6.36.62-4.87-1.87-5.99-2.25c-1.12-.37-9.98,0-10.86,0s-3.87,5.62-7.99,11.23c-4.12,5.62-4.37,10.35-3,13.1s3.99,11.61,6.86,18.97c2.87,7.36,10.98,21.55,11.73,27.5,1.12,4.45,3.74,4.45,4.49,5.95.75,1.5,4.49,8.36,6.74,13.48,2.25,5.12,13.1,17.97,15.23,20.97,2.12,3,6.12,7.49,7.74,10.98,1.62,3.49,7.99,7.99,8.24,9.73.25,1.75,1.12,6.36-2,6.74-3.12.37-5.74,1.02-7.11-.74-1.37-1.76.25-3.26-3.99-7s-5.12-3.16-4.87-7.07c.25-3.91-9.48-14.77-12.98-16.64-3.49-1.87-7.61-3.69-10.86-11.58-3.24-7.89-7.11-8.39-11.23-16.5-4.12-8.11-20.09-27.08-21.97-28.7,0,0-2.25,3-1.75,11.99.5,8.98,1.87,16.59,2.62,18.22.75,1.62,2.37,4.62,1.12,9.98-1.25,5.37-2.64,3.07-3.82,11.71-1.18,8.64-4.55,15.38-4.55,19.24s-.87,11.38,4.74,16.36c0,0,2.75,2.36,1.12,3.67h-11.61s-3.12-2.33-3.12-4.69,1-1.99.62-4.36c-.37-2.37,1.12-3.91,1-8.69-.12-4.78-3.37-20.38,1-28.87,0,0,2.5-5.62,1.87-9.61-.62-3.99-6.49-27.08-7.99-28.83-1.5-1.75-5.12-18.47,1.62-30.2,6.74-11.73,2.62-19.84,6.99-31.82,4.37-11.98,10.48-10.36,16.6-14.23,0,0,4.24-8.86,4.74-10.61Z"/><path class="cls-1" d="m709.32,151.22s-2.16-.59-1.97,1.56c.19,2.15.66,2.87,1.25,2.84s.97-.25.97-.25c0,0,.87-2.68.81-2.87s-1.05-1.28-1.05-1.28Z"/><path class="cls-1" d="m721.81,162.07s.65,1.38,1.07.8c.42-.58,1.86-3.06,1.22-3.78-.64-.72-1.95-.62-2.29,0-.35.62,0,2.98,0,2.98Z"/><polyline class="cls-2" points="752.22 186.02 752.22 186.69 779.2 195.4 779.28 194.76"/><path class="cls-2" d="m637.63,253.4c-8.75-.75-17.56-4.56-22.17-12.03-5.11-8.27-10.12-27.6,38.7-41.23,76.88-21.47,75.88-1.85,104.33,13.3,28.45,15.15,37.19,6.58,37.19,6.58l2-4.16s-11.93,12.66-44.24-8.79c-.81-.53-1.6-1.13-2.36-1.74-24.15-19.26-35.63-17.59-49.13-17.68s-53.5,8.96-70.51,17.1c-17.01,8.14-27.92,19.72-21.7,33.38,6.22,13.67,16.95,17.91,34.68,19.08,22.44,1.48,67.21-15.01,103.87-17.45,35.76-2.38,15.5-33.82,43.44-52.37.7-.47,1.43-.92,1.43-.92l-4.48-2.55s-12.23,6.21-16.72,25.32c-4.49,19.11-8.49,23.41-16.47,25.75-7.99,2.34-34.48,3.08-61.4,10.83-21.55,6.2-41.96,8.83-56.46,7.58Z"/><path class="cls-1" d="m680.92,247.67l1.46,4.99,13.78-2.65s.05-3.47,0-6.95c-.05-3.48-7.26-2.15-7.61-1.9s-7.63,6.51-7.63,6.51Z"/><polygon class="cls-1" points="703.16 242.85 707.51 248.17 725.5 244.35 722.11 237.31 703.16 242.85"/><path class="cls-1" d="m178.23,176.28c-5.08-2.06-12.93-3.49-16.66-5.63-3.73-2.14-4.68-1.98-11.26-2.46-6.58-.48-6.35,1.35-7.54-.63-1.19-1.98-4.2-4.2-4.84-5.08-.63-.87.16-.63,0-2.06-.16-1.43-3.17-1.11-3.17-1.11-1.67-1.75-6.27-6.98-12.53-3.89-6.27,3.09-3.17,11.74-3.17,11.74-.63-.48-1.67.56-3.49.56s-11.42-2.7-14.6-3.41c-3.17-.71-5.24-2.54-5.24-2.54,0,0-2.3-2.78-2.54-5.79-.24-3.01-4.36-11.66-4.76-13.48-.4-1.82,1.75-1.43,2.46-2.54.71-1.11,2.62-2.86,3.49-3.59.87-.74.95-1.64.08-1.56-.87.08-3.25-.08-3.49-.24-.24-.16-.16-2.22.08-4.44.24-2.22-1.19-1.27-1.19-1.27,0,1.43-1.75,4.32-1.75,4.32-.95-.2-3.65.76-3.73,1.39-.08.63-2.38,6.35-1.67,8.01.71,1.67,2.54,9.6,3.01,11.89.48,2.29,3.33,10.95,3.73,12.7.4,1.75,1.67,1.03,2.54,1.51.87.48,10.47,5.31,17.37,6.82,6.9,1.51,11.82,3.41,12.06,4.2.24.79.48,1.98,3.25,5,2.78,3.01,3.89,8.01,3.49,14.83-.4,6.82-4.44,6.27-8.65,14.67-4.2,8.41-1.59,21.81.79,31.57,2.38,9.76,1.27,9.84,1.27,9.84-2.22,3.89-7.54,18.16-7.54,22.37s1.59,15.47,1.27,19.43c-.32,3.97-.48,1.51-3.09,3.73-2.62,2.22-1.82,4.2,0,5.99,1.82,1.79,1.59,2.73,2.06,5.59.48,2.86-.4,5.16,1.11,7.32,1.51,2.17,2.54,1.8,4.68,1.96,2.14.16,1.43-1.35,1.43-1.35-2.86-3.09-1.74-5-.16-7.54,1.59-2.54,1.98-14.99,1.9-18.32-.08-3.33.16-11.11.16-11.11,0,0,.16,2.14,1.59,5.79,1.43,3.65,4.76,17.21,5,20.15.24,2.94.63,2.78,1.03,3.73.4.95.16,7.46.08,9.44-.08,1.98.24,3.89,1.98,4.68,1.75.79,9.12,0,9.12,0,.32-3.49-2.78-5.31-2.93-9.12-.16-3.81-1.82-5.79-1.82-7.22s.08-3.17-.48-4.36c-.56-1.19-1.75-2.94-2.46-6.02-.71-3.08.48-16.91-.4-19.34-.87-2.43-1.43-9.39-1.43-10.74s.32-5.39.16-7.14c-.16-1.75.24-4.36.24-4.36,0,0,2.46-5.24,5.87-12.45,3.41-7.22,5.31-12.85,5.87-16.5.56-3.65,2.78-11.9,2.7-16.1-.08-4.2.32-5.24,1.59-8.73,3.17-5.08,3.25-6.98,3.25-6.98,1.03-.32,5.39-2.38,6.5-1.35,1.11,1.03-.56,1.43-2.3,2.7-1.75,1.27-1.43,3.01-.48,2.22.95-.79,6.98-2.38,8.09-3.57,1.11-1.19,3.97-3.01,3.97-3.01,0,0,8.09-5.31,9.99-7.77,1.9-2.46,6.11-4.36,6.35-5.79.24-1.43-1.19-3.49-6.27-5.55Zm-10.26,11.85c.13-.38.33-.79.57-1.21.45-1.37.73-3.88-1.06-7.39,0,0,3.53,2.15,5.04,2.39,0,0-2.66,2.66-3.98,5.01-.26.79-.57,1.21-.57,1.21Z"/><circle class="cls-2" cx="159.43" cy="184.3" r="9.36"/><path class="cls-1" d="m168.21,187.54s-2.16,3.97-5.49,3.2-6.84-.54-8.86-.18c-2.02.36-2.5,1.13-2.5,1.13l3.51,2.32s4.64.71,5.35.36,7.08-2.44,7.26-2.68.73-4.15.73-4.15Z"/><polygon class="cls-2" points="272.56 223.8 273.77 224.3 260.58 251.5 259.35 251.04 272.56 223.8"/><path class="cls-2" d="m254.46,254.84c.02-.09,1.2-.1,1.25-.18.06-.09-.64-.78-.57-.86,3.26-3.5,3.78-3.56,5.38-2.65,1.6.92,1.53,2.32.42,5.81-.02.08-1.38-.15-1.42-.08-.05.1,1.03,1.11.85,1.29-3.6,3.46-3.37,3.31-5.07,2.33-1.7-.98-1.73-.7-.83-5.67Z"/><path class="cls-1" d="m310.49,166.96s-4.67.57-5.02-1.77c0,0-5.66-.35-8.14-4.53,0,0-4.81,1.56-5.45-3.47-.64-5.02,3.89-5.45,4.6-4.88,0,0,2.33-7.78,11.96-6.08s15.99,8.66,16.48,10.27c.5,1.61,0,3.66,0,3.66,0,0,.99-.07,1.41-1.06.42-.99,2.41-2.76,8.35-3.54,5.94-.78,8.42-1.63,9.9-2.33s10.19-5.16,11.11-6.51c.92-1.34,6.23-3.18,9.34-2.76s11.04-3.14,11.18-3.83c.14-.69,2.19-4.02,5.59-3.45,3.4.57,4.74.42,5.09,1.98s1.34,3.11,0,5.94c-1.34,2.83-2.19,4.1-2.62,3.4s.42-1.13-.42-1.2-3.75.35-4.24-.5c-.5-.85-1.56-.85-1.56-.85l-36.79,15.85s.5,3.4,2.83,4.88c2.33,1.49,9.76,11,9.62,14.34-.14,3.34-1.2,14.03-2.05,18.13-.85,4.1-4.32,12.38-4.24,15.35s-.28,2.12.71,3.61,7.07,8.35,9.06,12.66c1.98,4.32,2.69,4.95,1.49,7.64-1.2,2.69-3.68,5.18-5.38,5.6s-6.51,1.12-7.22,2.4c0,0-.92,3.47-.78,5.52.14,2.05.28,4.53-.42,6.79-.71,2.26-.64,4.34-1.41,6.94-.78,2.61-.57,5.65-.35,8.41.21,2.76,2.55,24.55,3.68,28.01s1.34,5.02,2.05,7.07c.71,2.05,1.41,2.76,1.77,4.88.35,2.12-.07,7.36.35,8.77.42,1.41,3.61,1.84,5.02,3.18,1.41,1.34,1.27,2.19,1.27,2.19h-7.86c-1.51,0-2.83-1.01-3.16-2.49-.24-1.08-.79-2.48-1.92-4.16-2.83-4.17-8.28-6.15-8.14-7.99.14-1.84,1.2-2.76,1.91-5.59.71-2.83.5-6.72-.42-8.35s-8.28-15.78-7.36-28.58c.92-12.8,2.48-11.81,1.63-17.54,0,0-4.46,2.26-7.57,6.23-1.56,1.49-2.9,1.77-5.09,3.11-2.19,1.34-3.54,1.74-8.06,1.72s-7.29-1.37-6.01-4.13c1.27-2.76,3.47-2.05,5.24-3.54,1.77-1.49,2.83-1.49,3.82-2.33s1.41-2.62,3.18-3.54,3.41-1.41,5.81-.14c0,0,1.2-.07,2.97-2.48,1.77-2.41,4.17-3.89,4.17-3.89,0,0-.78-6.66-.92-11.04-.14-4.38.07-7.28-.99-9.33-1.06-2.05-9.13-5.59-6.15-16.55,1.98-6.51,8.7-7.36,8.77-12.59s-.14-8.49-4.81-10.33c-4.67-1.84-10.89-6-10.89-6,0,0-2.62,1.97-3.47,3.31-.85,1.34-6.44,6.86-9.34,8.77-2.9,1.91-5.87,5.38-6.44,7-.57,1.63-6.79,10.47-12.8,17.05-2.12,3.04-1.98,4.1-2.83,5.52-.85,1.41-1.06,1.06-1.41,2.33s-.07,1.77-.92,2.41-2.05.35-3.04.42-1.91-.5-1.91-.5c0,0-.21.92,0,1.7.21.78.57,1.41.35,1.7s-1.91.35-2.19-1.49c-.28-1.84-.42-4.81-.57-5.87-.14-1.06.21-1.06,3.32-4.1,3.11-3.04,7.5-8.77,9.76-13.65,2.26-4.88,2.55-8.06,5.73-10.75,3.18-2.69,12.45-11.29,13.3-13.85.85-2.56,2.97-9.21,7.57-11.19Z"/><polygon class="cls-2" points="382.23 213.61 382.85 214.76 355.42 227.45 354.76 226.32 382.23 213.61"/><path class="cls-2" d="m348.57,226.17c.07-.06.99.68,1.08.65.1-.04,0-1.01.1-1.02,4.74-.64,5.18-.36,5.84,1.36.66,1.72-.28,2.77-3.35,4.76-.07.04-.98-.99-1.05-.96-.1.04.09,1.51-.16,1.54-4.98.4-4.7.43-5.4-1.41-.7-1.83-.89-1.64,2.95-4.92Z"/></svg>