<?xml version="1.0" encoding="UTF-8"?><svg id="Capa_1" xmlns="http://www.w3.org/2000/svg" xmlns:xlink="http://www.w3.org/1999/xlink" viewBox="0 0 836.64 424.05"><defs><style>.cls-1{fill:#28779c;}.cls-2{fill:#afaeae;}.cls-3{fill:url(#Degradado_sin_nombre_48);}</style><linearGradient id="Degradado_sin_nombre_48" x1="418.32" y1="424.05" x2="418.32" y2="327.71" gradientUnits="userSpaceOnUse"><stop offset="0" stop-color="#fff"/><stop offset=".35" stop-color="#fbfbfb"/><stop offset=".63" stop-color="#f2f2f2"/><stop offset=".87" stop-color="#e1e1e1"/><stop offset="1" stop-color="#d6d6d6"/></linearGradient></defs><rect class="cls-3" y="327.71" width="836.64" height="96.34"/><path class="cls-1" d="m672.35,175.79s-2.49-9.96-9.02-8.87-10.27,4.98-9.96,8.09c0,0-.93-1.4-1.56.78-.62,2.18-1.56,5.91,1.71,6.53,0,0-2.02-1.09-4.98-.93-2.96.16-8.24.93-8.24.93,0,0,1.56,2.96,4.51,3.42,2.96.47,9.96-.31,11.51.47,1.56.78,4.98,1.4,5.13,3.89.16,2.49-.47,4.04-.47,4.04,0,0-2.18,2.18-1.71,7.62.47,5.44-.16,13.84-1.09,15.71-.93,1.87-4.82,6.53-8.56,8.87-3.73,2.33-7.62,14-12.13,29.87-4.51,15.87-5.6,16.8-7.31,18.36-1.71,1.56-3.89,3.08-4.98,6.91-1.09,3.83-5.44,21.56-6.53,25.14-1.09,3.58-2.02,3.2-2.18,4.4-.16,1.2-2.96,12.55-2.64,14.42s2.33,6.84,4.82,6.38c2.49-.47,4.51-1.87,4.36-6.22-.16-4.36-.47-7.93.78-12.29,1.24-4.36.16-4.51,1.4-7.31,1.24-2.8,10.11-16.33,13.53-25.98,0,0,1.22-2.18,4.34-5.44,3.12-3.27,3.59-6.38,5.3-10.89,1.34-3.53,6.87-10.31,9.21-13.1.36-.43,1.05-.19,1.05.37.02,3.14.19,10.44,1.25,18.17,1.4,10.27,1.4,8.06,1.24,12.35-.16,4.29-1.24,5.69,1.56,13.31,2.8,7.62,2.8,14.62,1.87,18.51-.93,3.89,1.24,5.13,3.89,7,2.64,1.87.62,6.38,2.64,7.62,2.02,1.24,7.93,2.8,8.87.93.93-1.87-1.09-3.89-4.04-9.33s-3.73-1.87-3.73-10.27c0-8.4,0-19.91-.93-25.04-.93-5.13-.93-8.09-.62-10.11.28-1.85,3.04-1.75,4.58-18.13.23-2.5.14-5.05-.46-7.49-.67-2.69-1.18-7.55.86-14.36,3.27-10.89,5.6-9.18,7-20.22,0,0,2.64-7.93,0-12.29-2.64-4.36-6.53-9.64-5.91-12.6.62-2.96,1.87-6.22,1.56-9.02-.31-2.8.86-13.42,4.16-16.72,0,0,1.4-.89.19-1.32s-2.06,1.24-2.76,1.13c-.7-.12-.54-.97-2.61-3.77-2.06-2.8-3.31-4.29-5.44-5.2s-3.5-.87-4.36-.44-.62.43-.31,2.68.23,2.02.27,3.62.74,1.59,3.31,4.16c2.57,2.57,5.17,2.8,4.78,4.63-.39,1.83-1.24,7.16-3.15,7.04Z"/><polygon class="cls-2" points="663.39 145.87 699.21 101.74 699.94 102.1 664.18 146.48 663.39 145.87"/><path class="cls-2" d="m706.16,92.56l2.49-8.71s21.98-37.75,45.21-28.62c23.23,9.13,19.91,36.92,7.05,42.31-12.86,5.39-46.87-2.9-49.98,14.1-3.11,17.01,18.64,29.45,60.03,46.87,41.39,17.42,26.04,96.24-10.46,91.67l-2.49-4.98s12.77,6.96,24.47-10.79c11.71-17.75,14.93-57.24-10.79-69.27-25.72-12.03-65.95-26.59-65.54-47.73.41-21.13,19.5-21.13,32.77-21.55,13.27-.41,22.2,2.67,26.55-10.79,4.34-13.45-5.02-24.47-14.54-26.13-9.52-1.66-14.91-.41-26.53,11.61-11.61,12.03-13.48,17.42-13.48,17.42l-4.77,4.56Z"/><path class="cls-1" d="m128.99,180.39s-2.82-1.66-2.22-5.66l.44-2.96c.08-.55.4-1.06.9-1.32.82-.42,1.98-1.41,1.48-3.58-.74-3.26-1.39-2.67-1.39-2.67,0,0-.83-5.49-6.32-6.97-5.49-1.48-7.71-.74-10.38,4.15-1.19,2.97-.44,7.28,0,8.61,0,0-.37.22.3,1.55.67,1.33.15,1.56.89,1.93.74.37,1.26.15,1.78.59.52.44,1.63,3.41,1.11,7.34,0,0-.44-.15-1.71,0,0,0-.3-.96-2.15-1.56s-3.11-2.08-5.12-3.19c-2-1.11-3.04-.44-5.64-2.37-2.6-1.93-4.89-3.26-9.05-5.64-4.15-2.37-9.27-7.12-10.68-9.12-1.41-2-5.71-5.71-6.6-5.78,0,0-.22-1.48,0-3.86.22-2.37-1.26-2.97-2.22-5.41-.96-2.45-5.64-5.56-6.82-5.56-1.19,0-1.33.52-.89.96.44.44,1.04.3,1.85,1.33.82,1.04-.89.96-.74,1.48.15.52.07-1.04,1.93,1.48,1.85,2.52,2,1.71,2,5.04,0,3.34-1.33,3.71.15,6.01,1.48,2.3,7.56,10.31,9.86,11.94,2.3,1.63,2.3,2.97,4.45,4.3s8.23,6.53,9.49,8.6c1.26,2.08,5.64,5.78,8.01,6.67,2.37.89,2.3,8.68,3.26,11.42.96,2.74,2.3,13.94,1.63,17.95-.67,4-3.49,6.23-4.45,9.79-.96,3.56-1.48,7.12-2.6,8.6-1.11,1.48-11.89,11.77-13.67,15.42,0,0-1.78-2.97-4.94-2.37,0,0-.2-3.16-3.56-2.27-3.36.89-2.18,1.88-4.05,2.08-1.88.2-3.46,1.88-3.46,2.57,0,.69,1.19.49,1.68,2.37.49,1.88,1.98,3.86,3.66,3.86,1.68,0,2.97,1.48,4.15,1.78,0,0,0,3.56,1.88,4.55,1.88.99,4.05,0,4.05,0,0,0,2.18,0,3.26-1.38,1.09-1.38,15.72-3.46,24.42-14.14,0,0,8.11-.89,9.79-1.58,0,0,7.81.99,26.3-10.18,0,0,14.83-7.42,16.81-8.01s1.88-1.88,4.75-3.12c2.87-1.23,7.02-.15,15.33-8.06,8.31-7.91,12.56-11.17,13.84-11.17,1.29,0,2.47,1.68,4.94.99s3.56-3.86,3.16-5.64c-.4-1.78.59-3.86,1.78-4.05,1.19-.2,5.14-1.98,6.92-4.35,0,0,2.57-.99,2.18-1.78-.4-.79-4.25-2.47-7.32,0,0,0-6.23,1.29-10.78,5.14-4.55,3.86-3.96,3.07-8.7,6.23-4.75,3.16-16.41,8.4-21.85,11.37-5.44,2.97-5.64,1.48-8.6,3.26-2.97,1.78-2.97,0-6.33,2.08-3.36,2.08-4.75,2.18-8.6,2.77s-9.2.89-13.84,3.76c0,0-.59-.4,1.09-3.76,1.68-3.36,4.15-12.46,5.44-18.49,1.29-6.03,2.67-11.37,7.02-13.74,4.35-2.37,19.58-9.1,20.57-9.44.99-.35,1.73.15,5.44-2.13s12.66-8.95,17.8-11.17c0,0,1.14-.69,2.37-.69s5.98-.1,6.97-.69c0,0,5.54-.64,5.69-1.53.15-.89.35-.69-.94-.49-1.29.2,2.82-2.82,3.16-4.35.35-1.53-.64-3.41-1.19-3.31s-4.5,2.87-5.59,2.77,3.46-5.19,3.41-5.78c-.05-.59-1.04-.64-2.87,1.58-1.83,2.22-4.4,4.6-4.5,4.25-.1-.35,1.19-3.36-.15-3.66-1.33-.3-.59.3-.99,1.43-.4,1.14-1.53,2.62-2.87,2.97s-2.42.25-3.16.54-4.8,1.98-6.77,3.31c-1.98,1.33-9.39,5.14-11.77,5.64-2.37.49-3.71,3.02-6.18,4.1-2.47,1.09-10.58,5.14-14.83,5.44s-6.53-.79-11.02,1.33c-4.5,2.13-7.51,4.16-9.89,1.66Z"/><circle class="cls-2" cx="64.46" cy="114.68" r="12.26"/><polygon class="cls-2" points="379.66 141.23 378.94 142.27 356.16 124.28 356.84 123.23 379.66 141.23"/><path class="cls-2" d="m354.29,117.86c.08.03-.15,1.14-.09,1.2.07.07.86-.44.92-.36,2.61,3.78,2.56,4.28,1.37,5.59-1.19,1.31-2.49.96-5.53-.8-.07-.04.42-1.27.37-1.32-.08-.07-1.26.74-1.39.53-2.51-4.09-2.41-3.84-1.14-5.24,1.27-1.4,1.02-1.47,5.49.39Z"/><polygon class="cls-2" points="275.72 129.63 275.9 128.39 304.3 134.41 304.15 135.66 275.72 129.63"/><path class="cls-2" d="m308.83,139.34c-.09,0-.37-1.09-.45-1.12-.1-.03-.58.78-.67.73-4.01-2.23-4.19-2.7-3.71-4.4.49-1.7,1.81-1.97,5.31-1.74.08,0,.18,1.32.26,1.34.1.02.8-1.22,1.01-1.09,4.06,2.55,3.86,2.37,3.34,4.19-.52,1.81-.26,1.77-5.1,2.09Z"/><path class="cls-1" d="m322.53,180.95s16.81-3.77,17.42,9.58c0,0,3.87-2.24,4.48,2.04s-3.46,8.97-6.93,6.52c0,0-1.32-.39-1.94.67s-3.67,1.77-4.69,1.36c0,0,1.43,1.94,1.53,6.32.1,4.38,1.73,10.19,5.6,9.88,3.87-.31,7.89-3.36,13.68-3.36,0,0,.69.61,3.24-2.75,2.55-3.36,12.84-13.96,15.08-16,2.24-2.04,2.45-10.56,5.3-14.76,2.85-4.2,16.71-15,16.61-17.34s-.92-3.87,1.32-5.4c2.24-1.53,3.87-2.65,5.4-5.71,1.53-3.06,3.46-3.67,4.99-3.36,1.53.31-.1,9.27-6.11,17.32-6.01,8.05-14.98,21.19-15.28,23.74s-.31,4.28-1.12,6.73c-.82,2.45-13.45,26.49-17.02,29.45s-4.65,4.72-5.06,8.8c-.41,4.08.54,27.72-1.09,38.99,0,0-.41,4.08-.14,6.66.27,2.58.54,7.61-2.45,14.13-2.99,6.52-3.8,13.18-2.85,16.3.95,3.12,1.77,4.35.95,5.3-.82.95-5.03,4.76-5.57,6.39-.54,1.63.27,7.06-10.19,7.47,0,0-1.49-1.36,0-3.4s3.4-.95,4.48-5.71c1.09-4.76,1.63-8.02,2.45-10.05.82-2.04,1.77-10.6,1.9-17.53.14-6.93,1.9-13.45,1.63-16.17-.27-2.72,0-6.66-.95-11.82-.95-5.16-1.63-4.76-2.99-10.6-1.36-5.84-2.31-11.82-2.85-12.77-.54-.95-5.43-2.72-12.64-5.57-7.2-2.85-8.83-5.04-10.19-7.27-1.36-2.24-7.61-7.4-8.02-11.75s2.58-12.5,2.99-16.98c.41-4.48-1.43-9.1-3.03-15.08-1.59-5.98-1.32-8.02-1.05-12.64.27-4.62-.68-18.61.54-28.94,0,0-1.09-1.49.27-3.8,1.36-2.31-1.49-1.22-1.9-.68-.41.54-1.9-1.63-3.67-3.12-1.77-1.49,2.58-3.32,4.62-4.31s2.31-1.67,3.26-.85,3.4,3.78,4.21,3.99-.82,3.75-1.9,6.47c-1.09,2.72-.14,5.9-.14,5.9,0,0,1.36-1.96,2.04-1.69s-1.49,4.35-.68,5.03c.82.68,1.97.14,3.26-1.22,1.29-1.36,2.31-.41,2.31-.41,0,0-2.24,2.16-3.06,4.41-.82,2.25-1.7,1.77-1.36,4.08.34,2.31-1.29,11.14.14,14.88,1.43,3.74,5.13,8.63,5.13,8.63Z"/><path class="cls-2" d="m543.75,53.81c0,28.08,11.92,50.84,26.61,50.84s26.61-22.76,26.61-50.84c0-28.08-11.92-50.84-26.61-50.84-14.7,0-26.61,22.76-26.61,50.84Zm1.99,0c0-26.71,11.03-48.36,24.63-48.36,13.6,0,24.63,21.65,24.63,48.36,0,26.71-11.03,48.36-24.63,48.36-13.6,0-24.63-21.65-24.63-48.36Z"/><path class="cls-1" d="m430.37,211.63c1.09.2,5.26,1.19,8.44-.89,3.18-2.09,2.88-5,5.36-6.82,2.48-1.82,10.63.36,21.35-2.22,10.73-2.58,15.39-8.63,17.28-9.33,1.89-.7,3.53.91,5.01,5.47,1.49,4.56,5.06,9.62,4.92,12.9-.15,3.28-6.11,5.81-7.3,10.73-1.19,4.92-.89,16.98,3.72,47.07,0,0,.89,4.02-.75,8.04-1.64,4.02,3.13,30.69,2.83,38.73-.3,8.04-1.79,11.92,3.28,12.36,5.06.45,6.11-2.98,6.11-2.98,0,0,.3-.74-1.19-3.72-1.49-2.98-3.58-6.54-3.58-11.54,0-4.67,1.69-21.37,2.4-25.72.05-.3.09-.55.13-.72,0,0,4.32,1.49,6.7-2.09,2.38-3.57,3.43-6.26,4.17-6.85.75-.6,10.43-2.23,12.07-9.53,1.64-7.3-2.38-35.45-3.28-37.24-.89-1.79-3.43-6.26-2.23-12.07,1.19-5.81.74-18.47,1.64-23.98.89-5.51-1.71-9.91.97-14,2.68-4.1,9.83-9.31,10.13-11.92.3-2.61,3.95-5.21,7.97-15.42,4.02-10.2,5.36-12.36,6.26-13.03.89-.67-1.04.82,4.39-2.53,5.44-3.35,6.33-3.95,9.98-5.44,3.65-1.49-.45-1.34,0-3.57.45-2.23-.82-2.46-1.12-2.23s-3.87,1.64-4.54,2.61c-.67.97-.6-2.01,1.49-3.95,2.09-1.94,2.9-2.76,2.16-3.35-.74-.6-1.49,1.42-4.62,3.35,0,0,.97-1.27.45-2.38-.52-1.12-.6-.07-1.86,1.56-1.27,1.64-3.35,3.28-4.54,4.32-1.19,1.04-4.99,2.98-6.93,11.47-1.94,8.49-6.26,5.44-9.01,16.09-.6,2.31-6.85,6.41-7.97,9.53-1.12,3.13-3.8,3.8-9.16,5.66-2.78,1.04-3.38,5.51-5.26,6.8-1.89,1.29-1.99-3.67-.89-5.96,1.09-2.28,1.29-1.09,1.59-3.57.04-.3-1.59-9.53-7.75-10.53-6.16-.99-11.52,3.67-11.52,5.96,0,0-3.08-.89-3.08,1.79,0,2.68,0,6.06,3.38,5.06,0,0,.79,4.67,5.46,6.36,0,0,.6,2.18.1,3.08s-2.48,2.98-4.97,3.97c-2.48.99-8.14.3-10.73,3.18-2.58,2.88-11.62,9.63-13.11,9.73-1.49.1-5.76-.1-9.43,1.69-3.67,1.79-9.63,2.98-12.51,2.98s-9.53,6.04-11.32,8.48c-1.79,2.44-2.18,4.43-1.09,4.63Zm68.32,61.52c.89-4.47,0-6.55,1.49-11.92,1.49-5.36,1.04-22.83,1.04-22.83l2.38.79c0,8.94,4.62,13.26,6.7,16.24,2.09,2.98,2.23,4.77-.74,7-2.98,2.23-3.13,5.36-3.13,5.36-2.38,1.34-4.62,2.38-4.32,4.32.3,1.94-3.43,7.45-3.43,7.45,0,0-.89-1.94,0-6.41Z"/></svg>