<?xml version="1.0" encoding="UTF-8"?><svg id="Capa_1" xmlns="http://www.w3.org/2000/svg" xmlns:xlink="http://www.w3.org/1999/xlink" viewBox="0 0 836.64 424.05"><defs><style>.cls-1{fill:#28779c;}.cls-2{fill:#afaeae;}.cls-3{fill:url(#Degradado_sin_nombre_48);}</style><linearGradient id="Degradado_sin_nombre_48" x1="418.32" y1="424.05" x2="418.32" y2="325.98" gradientUnits="userSpaceOnUse"><stop offset="0" stop-color="#fff"/><stop offset=".35" stop-color="#fbfbfb"/><stop offset=".63" stop-color="#f2f2f2"/><stop offset=".87" stop-color="#e1e1e1"/><stop offset="1" stop-color="#d6d6d6"/></linearGradient></defs><rect class="cls-3" x="0" y="325.98" width="836.63" height="98.07"/><polygon class="cls-2" points="341.72 180.42 341.11 179.62 359.23 167.87 359.86 168.65 341.72 180.42"/><path class="cls-2" d="m364.59,168.03c-.05.05-.83-.4-.89-.37-.07.04.12.77.04.79-3.53,1.05-3.9.89-4.6-.34-.7-1.23-.11-2.14,1.98-4.02.05-.04.86.64.91.6.07-.04-.25-1.14-.06-1.19,3.73-.9,3.52-.88,4.27.43s.87,1.14-1.66,4.09Z"/><polygon class="cls-2" points="366.1 183.28 365.96 184.28 350.22 176.98 350.32 175.98 366.1 183.28"/><path class="cls-2" d="m346.55,173.08c.07,0,.31.87.37.89.08.02.46-.63.53-.59,3.24,1.75,3.38,2.13,3.01,3.49-.37,1.37-1.43,1.59-4.24,1.44-.06,0-.16-1.06-.22-1.07-.08-.02-.63.98-.8.88-3.28-2.01-3.11-1.87-2.72-3.32.4-1.46.19-1.42,4.06-1.72Z"/><path class="cls-1" d="m358.84,170.78l-2,2.16s-3.16-3.41-5.17-2.66c-2,.75-2.7,3.08-2.7,3.08,1.5.75,3.5,2.62,2.37,2.5-1.12-.12-2.37,1.37-3.12,2.25-.75.87-8.49,3.87-13.49,3.87s-12.99,3.75-12.99,3.75c0-.21,0-.42,0-.62.03-4.86,1.61-9.2-4.74-19.86-6.62-11.12-9.24-26.85-9.24-26.85l.38-1.12c.37-1.12,0-3.25-.62-4.87-.62-1.62-.87-1.25-1.37-2.37-.5-1.12-1.5-.12-1.5-.12,0,0-3.5-5.37-8.74-11.24-5.25-5.87-6.87-4.37-7.49-2.25-.62,2.12,1.75,3.25,4.12,7.24,2.37,4,1.25,2.37.12,6.25-1.12,3.87-.62,5.62,3.87,6.25s3,4.55,3,4.55c0,0-9.87,15.68-11.49,18.31-1.62,2.62-.25,1.87-3.5,7.44-3.25,5.57-7.74,16.92-7.74,19.17s-.87,3.12-1,5.87c-.12,2.75-1.12,5.75-1.12,5.75,0,0-.25,2.62-1.87,7.99-1.62,5.37-.75,9.24,0,12.49.75,3.25,2.25,6,7.12,9.99,4.87,4,12.87,3,16.24,2.5,3.37-.5,4,.75,4,.75-1.5,4.12-1.37,20.86,0,24.86,1.37,4,0,6.12,0,10.37s.75,5,.5,8.99c-.25,4-2.25,23.86-2.25,27.23s-.12,1.62-.75,4.51c-.62,2.89-.62,9.48-3.87,12.6-3.25,3.12-2,5.75-2,5.75,0,0,6.49.75,8.37,0,1.87-.75.37-3.62,1-7.24.62-3.62,4.5-4.37,5.37-5.62.87-1.25-1.12-5.48-1.12-5.48-1.12-7.48,1.33-13.79,1.33-13.79,3.5-6.16,3.84-11.82,3.91-13.66.07-1.7-.17-6.58.08-8.08.25-1.5,1.92-4.58,1.58-7.83-.33-3.25.67-12.32,2.16-19.57,1.5-7.24,1.83-18.57,1.83-18.57,1.25-2.41,1.5-7.24,1.5-7.24,3.58-5,4.75-24.4,4.75-24.4,1.17-1.75,8.49-4.08,8.49-4.08,5.33.83,3.58.58,9.16-3.5,5.58-4.08,13.57-6.66,13.91-7.58.33-.92,3.33-1.5,3.91-3.08.58-1.58,4.66-6.74,4.66-6.74-1-.92-3.83,2-3.83,2Zm-51.29,31.98c-.96,1.28-5.23,3.78-6.41,7.5-.11.35-.28.66-.55.92-.6.58-1.82,1.61-3.45,2.24,0,0-3.58.75-3-3.83,0,0,.12-.94,1.55-2.33,2.46-2.4,2.11-2.66,4.44-3.66,2.33-1,6.99-2.41,7.41-3.08,0,0,1,.92,0,2.25Zm2.16-22.65c0-1.17-1.58-4.66-5.66-6.66-4.08-2-11.74,1.25-14.41,1.92-2.66.67-1,2.25-1.17,5.91-.17,3.66-3.08,6.91-3.08,6.91.6-2.73-.25-4.25,1.17-7.33,1.42-3.08,3-12.82,4.41-13.82,1.42-1,3.83-4.91,5.08-7.58,1.25-2.66,5.33-11.66,5.33-11.66.42,12.49,7.08,24.9,8.33,26.81s0,5.5,0,5.5Z"/><path class="cls-1" d="m531.52,213.71c-1.01-3.59-.24-5.55-.24-5.55,0,0,.43-2.06,1.24-13.36.81-11.3-.96-20.78-.96-20.78-.96-1.87-17.09-2.15-17.66-2.15-.54,0-5.05-.29-5.63-.33.03-.13.04-.6-.06-2.01-.96-5.07-1.29-22.07-1.29-22.07.14-1.39-.19-2.97,1.01-4.45,1.2-1.48,2.11-2.35,2.25-3.73.14-1.39-2.63-3.73-3.54-4.93-.91-1.2-1.29-3.45-.96-5.17.33-1.72.86-1.63,1.05-2.39.19-.77.19-1.58.72-2.11.53-.53,1.15-1.68-.38-2.82-1.53-1.15-4.64,2.44-5.36,3.49-.72,1.05.1,2.56-1.05,4.26-2.82,4.12-.98,11.01-.88,11.35.1.34.88,9.77.36,12.93s-1.87,15.18-1.87,15.18c-.19,1.24-.48.57-1.34.96-.86.38-.77,1.53-1.54,3.16-.78,1.63-.28,1.53-.09,2.97.19,1.44,0,.86,0,1.82s-.77,2.01-1.63,4.21c-.86,2.2-1.24,5.65-2.11,9-.86,3.35-2.2,5.94-2.2,5.94-2.71-.99-8.11-4.28-11.49-4.98-3.38-.7-3.86-.41-8.3-1.05-4.44-.64-11.71-3.45-12.99-3.7-1.28-.26-1.12-.26-2.78-.77s-2.81,0-5.52-.26c-1.21-.11-1.79-.26-2.17-.43-.75-.34-1.52-.65-2.33-.81-2.48-.48-4.87-2.12-5.42-2.04-.64.1-.61,1.47-.61,2.68s4.02,2.23,4.6,2.27.83.54.13.96-.48,1.88,2.43,2.2c2.9.32,4.28.93,6.19.93s2.17-1.02,4.6-.51c2.43.51,17.62,7.15,19.21,7.53,1.6.38,5.3,2.3,7.85,2.81,2.55.51,3.89,1.47,3.89,1.47,0,0-.96,2.81-2.3,7.34-1.34,4.53-.64,14.04-.26,18.13.38,4.08,2.23,4.15,1.6,5.68-.64,1.53-1.28,27.06-1.15,30.51.13,3.45-.77,9.83-.77,11.74s.77,2.3,1.21,4.02c.44,1.72.2,3.96.2,3.96-.77,6.64.83,11.04,2.3,15.13,1.47,4.08,3.38,16.79,3.7,18.45.32,1.66-.32,3.51-.32,5.57s1.02,1.96,1.02,1.96h18.7s.89.06,1.02-.64c.13-.7-.96-1.34-2.94-2.04-1.98-.7-6.57-3.06-9.45-5.68-2.87-2.62-3.83-10.34-4.34-19.21-.51-8.87-.89-13.34-1.34-15.51-.45-2.17-.59-3.93.41-7.13,1.01-3.21.48-6.27.48-6.27,3.45-5.36,5.41-16.42,5.6-17.95.19-1.53,1.82-3.93,1.82-3.93,2.97,0,9.29-2.3,9.81-2.92.53-.62,3.4-1.15,3.4-1.15,5.12-.34,12.35-6.99,13.74-10.72,1.39-3.73,2.82-3.83,3.95-7.61,1.12-3.78-.21-7.8-1.22-11.39Zm-26.62,5.65c-1.34-2.68-4.69-2.78-4.69-2.78-.34-1.05-1.24-.67-1.29-2.15-.05-1.48-.24-1.53-.24-3.11s.91-2.63.91-2.63c3.69.67,5.12,1.91,5.7,3.69.57,1.77-.14,2.06.19,3.93.34,1.87-.57,3.06-.57,3.06Zm7.28-19.1c-.24,1.05.3.57-1.28.67-1.59.1-.34.05-3.41-.43-3.06-.48-5.89-.48-5.89-.48,0,0,.43-4.02.33-6.37-.1-2.35.62-2.39.62-2.39,0,0-.1,2.35,2.97,2.49,0,0,.19,3.64,3.21,4.07,3.02.43,3.69,1.39,3.45,2.44Zm-5.79-15.61c-1.48-.96-1.82-.38-1.82-.38,1.1-2.15,2.58-6.27,2.58-6.27,2.49-.57,7.95.95,7.95.95-5.7-.58-8.71,5.71-8.71,5.71Zm16.8-1.05c-.67-.1-1.24-.48-1.72-1.51-.48-1.03-1.2-1.55-1.2-1.55,0,0,3.49.53,4.26,3.06,0,0-.67.1-1.34,0Z"/><path class="cls-2" d="m531.87,136.45c-25.47-.7-46.25,3.66-46.42,9.74-.17,6.08,20.34,11.57,45.81,12.27,25.47.7,46.25-3.66,46.42-9.74.17-6.08-20.34-11.57-45.81-12.27Zm-.57,20.65c-24.21-.66-43.72-5.52-43.57-10.85.15-5.32,19.89-9.1,44.1-8.44,24.21.66,43.72,5.52,43.57,10.85-.15,5.32-19.89,9.1-44.1,8.44Z"/><polygon class="cls-1" points="500.24 152.71 499.76 156.34 507.29 158.53 507.08 153.29 500.24 152.71"/><path class="cls-1" d="m165.94,191.33c-4.02-13.03-.95-21.2-1.38-26.01-.42-4.81-.95-7.14-3.39-11.48-2.44-4.34-6.14-13.24-5.08-17.16,0,0,1.27-1.91,2.12-3.07.85-1.16-.74-5.4-4.55-5.51,0,0-2.22-.64-2.01-4.13.21-3.49.85-9.96-1.48-10.27-2.33-.32-4.02,6.25-5.4,11.54-1.38,5.3,2.22,8.58,3.6,15.89,1.38,7.31,2.44,18.64,3.81,21.82,1.38,3.18,1.27,5.19.64,7.41-.64,2.22-2.12,5.82-1.48,8.58.64,2.75-.64,8.58-1.17,11.23-.53,2.65-.21,15.46-.21,15.46,0,0-8.9.42-14.19,1.8-5.3,1.38-9,1.59-12.5,5.08-3.5,3.49-9.85,11.76-10.06,13.24-.21,1.48-3.39,7.52,0,14.3,3.39,6.78,2.22,3.6,2.01,7.41-.21,3.81,1.48,4.55-.32,8.15-1.8,3.6-3.81,10.06-4.77,12.92-.95,2.86-1.38,3.49-2.12,6.35-.74,2.86-5.19,14.93-5.93,16.31-.74,1.38-1.17,2.22-2.22,2.22s-.85,1.48,0,1.48,2.01-1.06,2.54-.64c.53.42.53,1.38-.21,1.8-.74.42-3.81,1.8-4.66,3.07-.85,1.27-2.44,1.91-2.33,2.44.11.53,3.28-.11,3.71-1.16.42-1.06,2.01-1.38,2.12.11.11,1.48-.11,5.4-2.86,8.68,0,0-.95,2.12,1.27.95,2.22-1.16,2.86-6.14,4.24-5.13,1.38,1,.53,3.86,1.48,5.35s2.22,1.91,2.65-.95c.42-2.86,0-5.93,1.17-5.3,1.17.64,2.65,4.02,2.65,4.02,0,0,.32-.64-.64-5.51-.95-4.87-.21-4.66,0-4.34.21.32,1.91,2.65,2.44,2.65s0-1.69-1.27-3.92c-1.27-2.22-1.48-1.91-1.27-3.6.21-1.69,7.63-14.51,7.41-18.11-.21-3.6-.21-4.13,1.27-7.31,1.48-3.18,3.18-4.77,3.18-4.77,0,0,17.58,8.26,24.04-5.19,0,0-.95,2.33-1.48,5.19-.53,2.86-1.59,3.83-3.18,6.47-1.59,2.64-4.77,7.19-5.3,9.63-.53,2.44-1.06,6.88-1.17,11.44-.11,4.55.74,13.66-.9,15.04-1.64,1.38-4.18,2.01-4.18,4.34s2.22,2.68.21,6.11c-2.01,3.43-3.6,7.66-.64,8.83,2.97,1.16,6.99.75,7.52.59.53-.16-.32-1.22-1.8-1.75-1.48-.53.95-1.27,2.12-4.13s2.97-4.77,2.97-8.79-1.91-2.33,1.38-12.71c3.28-10.38,3.71-15.89,6.78-20.65,3.07-4.77,2.86-3.92,3.5-5.3.64-1.38,1.91-3.28,1.91-4.87s2.75-5.4,4.55-15.57c1.8-10.17,5.08-13.03,6.14-24.25,0,0,.21-2.12,1.91-4.34,1.69-2.22,2.86-18.96-1.17-31.98Zm-30.71,54.57c-.32.29-2.65-1.93-5.4,2.52,0,0,.32-2.97,1.38-3.6,1.06-.64,1.48-1.69,1.59-1.38s2.01.85,2.44,1.59c.42.74.32.58,0,.87Z"/><circle class="cls-2" cx="141.91" cy="237.39" r="9.24"/><path class="cls-1" d="m141.91,228.15s6.13,2.61,7.33,5.58c1.2,2.97,1.77,3.88,2.4,4.24.64.35,3.74-.92,3.74-2.54s-3.04-8.61-3.32-8.68-10.16,0-10.16,0v1.41Z"/><polygon class="cls-2" points="655.62 84.14 683.36 121.68 684.16 120.92 656.42 83.37 655.62 84.14"/><path class="cls-1" d="m674.63,184.69s4.23-1.31,5.54-.63,8.26,9.05,3.76,18.28c-4.5,9.22-12.36,7.52-13.84,7.29,0,0-1.08,3.7-5.18,1.82s-1.71-5.92-.46-5.87c0,0-4.29-4.04-1.29-8.22,0,0-1.75-1.14-4.71-.65-2.96.49-5.24,1.56-8.09,5.5-2.85,3.95-3.53,6.26-2.2,8.01,1.33,1.75,4.14,4.97,7.63,8.85,3.49,3.87,3.61,7.67,2.13,15.68,0,0-.15,2.35.19,6.38.34,4.02.46,8.54.11,13.51-.34,4.97-.68,8.58.42,11.5,1.1,2.92,5.01,8.73,5.01,12.83s-6.04,19.25-4.21,25.17c1.82,5.92,2.85,5.24,2.85,6.72s-3.3,3.42-2.9,6.26c.4,2.85,1.37,8.43-.68,8.94s-9.74,0-9.74,0c0,0-1.2-2.16.97-2.79,0,0,2.79.46,2.16-.91-.63-1.37-1.54-10.19-.57-13.84.97-3.64,1.31-6.94,1.25-11.27-.06-4.33.4-18.62-.97-22.1-1.37-3.47-2.45-6.95-2.62-8.83-.17-1.88-2.73-7.69-5.01-12.3-2.28-4.61-4.9-14.52-4.73-20.27.17-5.75-8.66-9.85-9.17-14.41-.51-4.56.51-9.34.51-15.15s-1.2-8.83,1.71-13.04c2.9-4.21,7.69-10.59,9.85-11.84,2.16-1.25,6.49-3.02,13.67-1.88,7.17,1.14,7.57,1.37,8.2.57.63-.8,3.3-8.83,4.21-11.05.91-2.22.91-1.77,1.82-4.73.91-2.96,1.02-5.69,2.45-8.6,1.42-2.9,5.01-11.62,5.52-13.15.51-1.54,1.99-3.47,1.02-7.8-.97-4.33-.46-4.78.34-6.61s1.31-1.59,1.02-3.53c-.28-1.94.11-3.7,1.29-2.6,1.18,1.1,1.44,1.33,2.01,3.04s2.32,1.29,3.15,3.68c.84,2.39.99,1.71,0,4.75-.99,3.04-1.67.76-2.47,4.52-.8,3.76-1.71,6.19-2.2,10.78-.49,4.59-2.09,5.81-2.62,7.82-.53,2.01-.99,4.02-2.24,7.02-1.25,3-2.77,9.83-2.77,9.83,0,0,7.86-7.02,9.53-9.49,1.67-2.47,14.46-7.78,18.22-10.63,0,0,.04-2.05.19-2.81s-3.91-1.18-3.99-2.96,1.22,1.4,3.99.34,2.12-.42,2.27-2.24c.15-1.82.04-2.39.72-1.29.68,1.1,1.75.72,2.77,2.92,1.02,2.2-.15,2.13.57,4.71.72,2.58,1.06,3.68-.95,4.78-2.01,1.1-3.87,1.37-6.38,4.06-2.51,2.7-7.21,6.53-10.1,8.66-2.89,2.13-3.53,1.44-5.35,3.61-1.82,2.16-9.79,10.59-11.65,13.63Z"/><path class="cls-2" d="m655.01,80.6c.4-.46,1.94-2.33,1.94-2.33,0,0,19.97-19.42,32.88,0,12.91,19.42,4.86,50.39-11.39,42.35-16.25-8.05-6.68-31.28,23.54-22.47,30.22,8.81,72.58,32.06,57.4,98.71-10.93,38.11-23.69,43.95-30.98,44.67-7.29.72,13.97-23.46,42.52-20.48,27.03,2.82,5.67,38.64-8.6,47.34-1.1.67-2.31,1.13-3.54,1.53-13.26,4.27-48.55,35.26-37.66,49.58l6.99,2.03s-6.38-1.52-2.73-12.15c2.87-8.36,9.07-18.12,20.33-26.9,4.32-3.36,9.17-5.94,14.22-8.04,11.58-4.82,26.3-21.78,26.3-32.9,0-12.41,6.04-32.42-44.98-20.48-21.87,8.75-21.18,20.14-17.08,22.65,4.1,2.51,16.63.46,21.18-7.29s58.99-77.57-16.17-128.64c0,0-42.97-37-60.28,0,0,0-5.66,18.17,23.14,14.22,6.02-2.35,16.34-29.46-2.49-47.98-21.75-21.08-34.51,6.61-34.51,6.61Z"/></svg>