<?xml version="1.0" encoding="UTF-8"?><svg id="Capa_1" xmlns="http://www.w3.org/2000/svg" xmlns:xlink="http://www.w3.org/1999/xlink" viewBox="0 0 836.64 424.05"><defs><style>.cls-1{fill:#28779c;}.cls-2{fill:#afaeae;}.cls-3{fill:url(#Degradado_sin_nombre_48);}</style><linearGradient id="Degradado_sin_nombre_48" x1="418.32" y1="424.05" x2="418.32" y2="325.98" gradientUnits="userSpaceOnUse"><stop offset="0" stop-color="#fff"/><stop offset=".35" stop-color="#fbfbfb"/><stop offset=".63" stop-color="#f2f2f2"/><stop offset=".87" stop-color="#e1e1e1"/><stop offset="1" stop-color="#d6d6d6"/></linearGradient></defs><rect class="cls-3" x="0" y="325.98" width="836.63" height="98.07"/><circle class="cls-2" cx="139.6" cy="134.86" r="10.24"/><path class="cls-1" d="m144.78,154.68s4.17-3.76,9.46-3.15c5.29.61,8.04,3.22,13.43-.07,0,0,2.71,3.56,7.6.85,4.88-2.71,3.66-10.72-3.26-9.9,0,0,.26-15.91-21.71-10.21-.77.2-1.28,1-1.08,1.77.32,1.21.44,3.13-.88,5.36-2.24,3.76-4.27,5.29-7.12,4.48-2.85-.81-6.31-3.48-20.35-.98-6,2.09-7.53,8.91-12.11,11.86-4.58,2.95-5.6,21.16-4.37,31.95,0,0-9.26-.61-11.8,0-2.54.61-7.33,4.17-13.63,3.36-6.31-.81-11.9,2.24-18.52,1.73-6.61-.51-4.68-1.83-22.59-3.46-8.44-2.44-14.04-3.76-23.6-2.85-9.56.92-12.31,3.27-14.04,6.37s7.73,1.16,9.56.76,5.19-.81,6.61,2.14c1.42,2.95,5.7,4.37,8.04,1.63,2.34-2.75,19.64,2.44,22.99,4.27,3.36,1.83,8.75,4.58,22.69,2.24,8.65,0,21.98,3.06,31.23,1.53,0,0-1.32,3.55-1.42,5.28-.1,1.73-.61,2.03-1.02,3.87-.41,1.83-3.05,1.93-2.95,2.24.1.31.61,2.03,3.05.92,0,0-.1,6.41-.71,7.94s2.95,3.87,5.6.61c2.65-3.26,3.97-4.48,4.58-9.56s.31-6.41,1.42-6.51c1.12-.1,3.76,3.15,4.48,6.61.71,3.46,2.14.1,1.83-2.95s-.09-7.01-.86-8.44c0,0,11.34,2.33,13.78-4.48,0,0,10.61-1.83,20.38-10.78,0,0,1.09-1.22,5.02-2.03,3.93-.81,15.33-7.6,18.72-11.26,3.39-3.66,30.79-14.92,34.05-15.46,3.26-.54,15.74-2.03,20.75-9.63,0,0,3.12-6.1-1.63-7.73s-3.8,1.36-11.12,4.07c-7.33,2.71-7.87,3.39-7.46,5.43,0,0-9.09,2.44-20.21,4.48-11.12,2.03-8.68,1.65-16.41,7.13-7.73,5.48-10.99,7.8-13.97,8.61-2.98.81-17.91,4.47-20.89,5.01,0,0-2.17-.41-4.48-2.71,0,0,2.03-4.07,2.03-7.33s6.44-8.95,10.89-12.95Z"/><path class="cls-2" d="m489.55,175.26c-26.17,6.09-45.54,18.96-43.27,28.75,2.28,9.79,25.34,12.8,51.51,6.71,26.17-6.09,45.54-18.96,43.27-28.75-2.28-9.79-25.34-12.8-51.51-6.71Zm7.86,33.81c-24.73,5.75-46.46,3.21-48.52-5.67-2.06-8.88,16.31-20.74,41.05-26.49,24.73-5.75,47.04-3.54,49.11,5.34,2.06,8.88-16.89,21.07-41.63,26.82Z"/><path class="cls-1" d="m467.31,179.8c5.76-.72,4.12-5.87,4.12-5.87,2.44-.99,5.18-5.79,5.18-5.79,1.52,1.22,5.34.76,5.34.76,1.37,1.91.91,3.43,5.72,10.22,6.1,7.24,6.02,4.8,6.02,11.44s2.36,7.85,2.36,7.85c.61,2.29-4.73,7.85-7.17,10.37-2.44,2.52-6.02,8.92-6.02,8.92.46-6.94-8.23-14.87-11.05-17.99-2.82-3.13-8.39-6.79-8.08-8.08.3-1.3.53-4.19.3-5.79-.23-1.6-3.96-2.59-6.25-3.96-2.29-1.37-4.73-8.31-5.79-10.37s-2.52-.99-3.58,1.91c-1.07,2.9-.99,7.62,0,8.16.99.53,3.58,10.14,6.25,12.27,2.67,2.13,6.25,8.16,8.31,12.27,2.06,4.12,8.31,19.21,12.96,24.93,4.65,5.72,4.96,5.87,20.58-5.95,15.63-11.82,13.42-18.3,13.81-17.38s1.82,1.68,3.12.91c1.3-.76.15-1.52.15-1.52,1.98,1.76,4.04.76,5.26,3.27,1.22,2.52,1.52,3.13,1.98,4.35s1.3-.3,2.9,1.91c1.6,2.21,3.05,3.58,3.58,2.9.53-.69-.15-2.74-.15-2.74.53.08,1.6-.38,1.6-.38,3.2-.91,2.67-1.3,1.75-4.57-.91-3.28-1.98-2.52-5.03-3.35-3.05-.84-2.9-1.37-2.9-1.37.38-.76.38-.23-1.22-2.37-1.6-2.13-7.01-3.13-5.34-4.27,1.68-1.14,2.36-7.09,3.89-9.99,1.52-2.9,4.5-8.2,4.54-9.22.04-1.03,5.45-14.56,8.65-20.62,3.2-6.06,5.41-9.8,5.98-11.78.57-1.98,2.06-3.35,5.18-7.17,3.13-3.81,2.02-7.55,2.25-9.61.23-2.06,4.69-13.65,5.98-17.31,1.3-3.66,5.6-3.43,6.33-7.05.72-3.62-1.07-3.62-2.17-5.6s-1.11-4.73-.69-6.75,3.51-6.63,3.62-8.69c.11-2.06-2.21-1.83-3.09-1.56-.88.27-2.67,2.17-5.07,3.89-2.4,1.72-2.63,3.43-2.71,6.44-.08,3.01-1.72,7.93-1.94,9.61-.23,1.68-1.07,2.44-1.98,5.64-.91,3.2-6.56,13.53-10.1,20.24-3.54,6.71-3.35,10.98-4.96,11.97-1.6.99-1.72,2.63-3.09,4.23-1.37,1.6-1.98,3.43-4.19,6.1-2.21,2.67-8.12,9.99-8.12,9.99-3.2-8.46-9.45-14.07-13.49-15.93-4.04-1.87-8.31-.53-11.02-.15s-7.89,1.03-10.41.91-3.74,1.49-6.44,1.76c-2.71.27-8,1.67-10.98.98-2.97-.69-3.13,0-3.13,0-3.35,2.44-5.3,11.63-5.3,11.63-3.51,10.67,8.23,13.57,8.23,13.57,0,0,0,4.5,5.49,3.81Z"/><polygon class="cls-2" points="285.9 172.41 284.96 172.91 275.81 152.09 276.73 151.56 285.9 172.41"/><path class="cls-2" d="m276.88,146.55c.05.06-.56.8-.53.87.03.08.82,0,.83.09.5,3.84.27,4.2-1.13,4.72-1.4.52-2.24-.24-3.84-2.74-.03-.05.81-.79.78-.85-.03-.08-1.23.07-1.24-.14-.3-4.03-.32-3.81,1.17-4.37,1.49-.56,1.33-.71,3.97,2.41Z"/><polygon class="cls-2" points="305.83 150.91 304.92 151.56 292.37 131.15 293.25 130.47 305.83 150.91"/><path class="cls-2" d="m292.69,125.21c.06.05-.47.91-.43.98.04.08.85-.11.88-.03,1.07,3.94.88,4.34-.5,5.09-1.38.75-2.37.07-4.4-2.3-.04-.05.73-.94.69-1-.05-.08-1.27.25-1.32.03-.9-4.17-.89-3.93.59-4.73,1.47-.8,1.29-.94,4.49,1.94Z"/><path class="cls-1" d="m315.64,150.41s-.42-13.05,6.59-15.99c7.01-2.95,14.04,2.95,13.82,10.94,0,0,2.73-.56,2.17,2.95-.56,3.51-1.4,4.63-2.95,4.35,0,0,6.17.42,7.15,3.23.98,2.81.7,2.45,3.86,8,3.16,5.54,4.63,11.92,10.45,16.27,2.74.56,5.47,1.47,8.28,3.93,0,0,4.56-1.96,10.45-3.02,3.51-1.89,4.14-3.16,5.61-4.07,1.47-.91,6.59-2.88,7.36-3.37s9.89-7.5,14.24-11.99c4.35-4.49,5.54-5.19,7.43-8.49,1.89-3.3,3.16-4.21,4.35-5.47,1.19-1.26,4.77-8.14,7.15-9.61,2.38-1.47,3.72-3.58,6.1-2.31,2.38,1.26,2.6,4.35-.84,9.61s-3.37,5.12-3.3,8.28-.7,5.68-5.89,6.52c0,0-1.61-.56-2.95,1.4-1.33,1.96-8.98,12.98-10.1,15.29-1.12,2.31-6.24,6.66-11.22,8.35-4.98,1.68-9.4,9.26-13.19,11.92-3.79,2.67-7.5,7.29-12.7,10.38-5.19,3.09-13.54,2.03-17.75,2.53,0,0-9.19,5.82-21.39-.63-12.2-6.45-14.1-5.4-18.03-8.07s-10.59-6.8-13.26-7.29c-2.67-.49-13.89-4.7-21.67-12.91-7.79-8.21-14.52-13.61-16.76-15.08-2.24-1.47-5.19.21-6.87-1.33-1.68-1.54-1.47-2.88-1.19-6.87.28-4-3.93-9.05-4.84-10.73-.91-1.68-.56-1.61-.84-2.88-.28-1.26.77-3.09,3.58-2.17,2.81.91,9.75,11.71,13.33,14.59,3.58,2.88,8.07,8.98,11.99,10.94,3.93,1.96,13.68,8.7,15.85,10.31,2.17,1.61,4.42,2.67,5.19,2.81s4.49,0,7.01,1.47c2.53,1.47,5.33,2.74,6.73,3.44,1.4.7,13.89.42,20.9,4.35,0,0-1.4-2.53-13.05-11.92-3.79-5-4.35-8.42-6.31-9.12-1.96-.7-2.81.63-12.06,1.75,0,0-4.77.28-10.45-4.42l-3.93-2.88s-1.61,1.26-4.14,1.89c-2.53.63-3.3-2.74-3.72-5.05s-1.48-3.3,0-3.86c3.07-1.16,1.4.76,2.88,1.68,1.39.87-.18-2.3-.18-2.3,0,0,1.86-.58,3.19-.01s2.31,1.96,4,2.17c1.68.21,2.95.56,6.24,1.47,3.3.91,3.3.35,5.19,1.33s4.91,1.26,6.24.35c1.33-.91,3.02-4.35,6.31-4.63,0,0-1.33-3.51-4.91-4.98-3.58-1.47-6.94-3.09-8.07-5.82-1.12-2.74-1.58-7.88-2.56-9.36-.98-1.47,1.35-.38,1.49-1.51.14-1.12.16-1.97,1.28-1.97s1.26-.91,1.89,0,.21,2.67.77,3.16c.56.49,3.72,1.89,4.21,2.88.49.98,1.75,4.84,1.82,6.03.07,1.19,6.17,4.56,9.96,5.54Z"/><path class="cls-1" d="m628.94,156.38s2.09.97,2.78-2.23c.7-3.2,1.11-5.01,0-5.29-1.11-.28-5.7-1.25-4.45-5.98,1.25-4.73,4.17-11.27,10.99-11.13,6.82.14,9.6,3.76,10.02,5.98,0,0,3.06-.28,3.76,1.53.7,1.81-.42,6.68-2.92,6.96-2.5.28-2.92-.42-2.92-.42,0,0-2.41,3.34-3.36,4.04-.95.7-.67,3.06.58,3.2s3.76-3.76,5.7-4.45c1.95-.7,5.01-2.51,5.7-4.46s2.78-7.09,5.84-9.74c3.06-2.64,11.55-10.08,11.97-12.42.42-2.33.14-2.89,0-3.86-.14-.97,3.2-5.29,4.31-5.15s.7,2.64,1.25,3.2c.56.56,2.09,3.42,1.11,5.81-.97,2.4-3.06,1.71-3.62,3.17-.56,1.45-6.68,10.08-9.32,12.03-2.64,1.95-3.9,11.55-10.44,19.34,0,0-.97,1.11-.83,4.73.14,3.62-3.24,8.49-1.76,11.97,1.48,3.48,1.06,7.24,5.79,10.71,4.73,3.48,5.01,8.91,7.93,9.12,2.92.2,5.43-2.86,11.55-2.86s7.93,0,9.46-4.59c1.53-4.59,2.64-6.96,9.32-11.13l6.68-4.17s-.42-.28-1.67-2.78c-1.25-2.5,3.48-2.5,5.84-3.76,2.37-1.25,3.06-3.9,3.9-4.04s2.64-.28,3.06.97c.42,1.25-.14,2.97-1.25,5.1-1.11,2.13-.97,2.13-1.53,4.36s-2.37,3.35-5.01,5.92c-2.64,2.57-7.93,11.47-10.02,16.06-2.09,4.59-4.87,5.57-7.1,6.54-2.23.97-9.88,5.29-14.47,5.57-4.59.28-10.85,5.01-16.7,5.01s-5.04.7-8.28,1.63c-3.24.94-8.56,2.3-14.3,0-5.74-2.3-6.05-3.34-13.67-5.43-7.62-2.09-8.56-5.64-12-6.68-3.44-1.04-6.99-.94-8.77-1.67-1.77-.73-8.04-2.61-14.19-10.33-6.16-7.72-13.04-10.02-13.04-10.02,0,0-3.86,2.92-6.57-3.24-2.71-6.16-5.95-9.29-9.39-11.58-3.44-2.3,2.5-5.11,5.11-4.07,2.61,1.04,5.53,4.07,8.66,6.16s5.22,2.82,6.47,5.22,14.82,12.52,20.56,14.92c5.74,2.4,7.41,2.61,9.39,2.92,1.98.31,4.49,1.77,6.57,2.09,2.09.31,4.7,1.04,6.99.83,2.3-.21,8.04,2.51,9.39,3.03,0,0-5.32-8.25-7.31-13.99-1.98-5.74.83-8.27-3.97-13.26-4.8-5-13.57-9.07-15.55-10.22-1.98-1.15-14.09-7.83-16.07-8.66-1.98-.83-2.61-1.04-3.13-1.25s-1.57-.73-1.98-.1-1.57,2.26-3.83,2.16c-2.26-.1,2.23-2.23,2.23-2.89s.35-1.7,1.18-2.09c.83-.38.56-1.74,1.81-2.99,1.25-1.25,1.43-2.44,2.5-2.12,1.08.31.83,1.01.28,2.57-.56,1.57,1.01.21,1.63-.87.63-1.08.52.9,1.53,2.71,1.01,1.81,5.25,2.3,7.69,2.71,2.44.42,4.73,1.18,10.57,5.08,5.84,3.9,5.15,3.13,8.35,3.34,3.2.21,9.04.21,10.92,3.2Z"/><polygon class="cls-2" points="675.85 113.52 667.87 85.79 668.6 85.79 676.42 113.12 675.85 113.52"/><path class="cls-2" d="m670.45,87.78s50.03-17.84,71.9,37.14c21.87,54.98,29.02,87.28,92.4,78.55l1.88-4.98c-63.38,8.7-70.53-23.49-92.4-78.3-21.87-54.81-71.9-37.02-71.9-37.02l-1.88,4.62Z"/></svg>